<svg width="45" height="53" viewBox="0 0 45 53" fill="none" xmlns="http://www.w3.org/2000/svg">
<path d="M0.975825 37.4654C0.935343 39.8047 0.861127 42.144 0.928597 44.4833C0.982572 46.3467 1.00281 48.4648 1.79895 50.1941C2.10931 50.8644 2.51412 51.4609 3.19556 51.8028C4.2076 52.3189 5.51651 52.1245 6.60951 52.1245C9.42298 52.1245 12.2364 52.1178 15.0499 52.1111C21.0007 52.0977 26.9447 52.0843 32.8955 52.1111C35.5133 52.1245 38.3875 52.5267 40.7422 51.1258C42.2063 50.2544 43.0901 48.7999 43.5827 47.218C44.1427 45.4016 44.2438 43.4578 44.2506 41.5676C44.2506 40.6627 44.2304 39.7645 44.1966 38.8596C44.1831 38.491 44.1696 38.1156 44.1561 37.747C44.1561 37.5995 44.1427 37.4453 44.1427 37.2979C44.1427 37.2308 44.1427 37.1571 44.1427 37.0901C44.1427 36.8421 44.1427 37.2576 44.1427 37.0096C44.1427 36.1383 43.1441 36.0243 42.4357 36.1048C41.8487 36.1718 40.2227 36.6276 40.2227 37.4654C40.2294 40.2136 40.4993 42.9416 40.1012 45.6764C39.8988 47.0505 39.602 48.3776 38.7788 49.4568C38.6304 49.6512 38.8531 49.3965 38.6237 49.6177C38.5562 49.6847 38.1986 49.993 38.5157 49.7249C38.2323 49.9662 38.3538 49.7048 38.4955 49.7651C38.4752 49.7584 38.3335 49.8388 38.3133 49.8456C38.0839 49.9528 38.7316 49.7048 38.3673 49.8187C38.3133 49.8389 38.0772 49.8657 38.347 49.8187C38.6844 49.7651 38.3268 49.7986 38.3201 49.812C38.2931 49.8724 38.0637 49.8187 38.347 49.812C38.1784 49.812 38.0097 49.812 37.841 49.812C37.0179 49.812 36.188 49.8053 35.3649 49.7986C29.8459 49.7718 24.3269 49.7785 18.8079 49.7919C16.1766 49.7919 13.5521 49.8053 10.9208 49.812C9.65237 49.812 8.3772 49.812 7.10878 49.812C6.79168 49.812 6.42734 49.7651 6.11023 49.812C5.90108 49.8389 6.28565 49.7986 6.20469 49.8321C6.30589 49.7919 6.13723 49.7651 6.15072 49.7785C6.21144 49.8456 5.9753 49.5774 5.92807 49.5104C4.94977 48.2503 4.94302 45.8239 4.8688 44.2353C4.75411 41.829 4.85531 39.4093 4.89579 37.0029C4.90929 36.1249 3.88375 36.0176 3.18882 36.0981C2.58834 36.1651 0.989319 36.6209 0.975825 37.4587V37.4654Z" fill="#D29F47"/>
<path d="M20.7932 1.60279C20.8096 3.03298 20.8101 3.08361 20.8827 9.48344C20.9367 14.2479 21.1197 20.4038 21.364 28.022L17.5645 27.9156C17.2223 27.906 16.9385 28.1108 16.9307 28.3731C16.9285 28.4469 16.9487 28.5202 16.9897 28.5874L21.3554 35.7286C21.5015 35.9675 21.8709 36.0731 22.1805 35.9644C22.3018 35.9218 22.4013 35.85 22.464 35.7598L27.2478 28.8762C27.4078 28.6459 27.2922 28.3571 26.9896 28.2312C26.9045 28.1958 26.8102 28.1759 26.714 28.1732L22.8498 28.0641C22.7603 20.1693 22.7044 15.2439 22.63 8.67667C22.5555 2.10946 22.5818 4.40795 22.5501 1.61689C22.5682 1.45297 22.3964 0.959189 21.8391 0.954706C21.1154 0.948885 20.7904 1.36207 20.7932 1.60279Z" fill="#E0A619"/>
</svg>
