<svg width="231" height="252" viewBox="0 0 231 252" fill="none" xmlns="http://www.w3.org/2000/svg">
<g clip-path="url(#clip0_737_765)">
<path d="M222.718 176.988C222.34 170.237 217.187 166.172 212.078 162.422C210.04 160.928 204.276 158.213 203.301 155.8C202.427 153.645 207.609 150.729 209.036 149.092C218.395 138.433 221.743 121.095 213.461 108.856C207.493 100.036 196.401 96.7754 186.649 101.185C173.563 107.104 166.533 123.939 167.072 137.356C168.018 137.025 168.964 136.695 169.91 136.365C165.965 135.129 166.489 134.325 167.858 130.647C168.702 128.363 169.313 125.993 169.677 123.594C170.463 118.38 170.157 112.979 168.687 107.908C166.329 99.7345 160.725 92.035 152.53 88.8173C137.116 82.7841 122.473 94.4196 118.019 108.554C119.052 108.325 120.071 108.095 121.104 107.865C119.663 98.6141 120.813 88.5013 120.813 79.1785V51.3253C119.867 51.6557 118.921 51.9861 117.975 52.3165C125.355 54.3706 129.925 60.3176 130.275 67.8017C130.304 68.3044 133.346 67.7729 133.39 66.9829C133.826 57.4159 142.152 49.1418 152.414 52.9198C158.891 55.3043 162.574 61.1651 162.88 67.816C162.909 68.3188 165.951 67.7873 165.994 66.9972C166.431 57.4303 174.757 49.1562 185.033 52.9341C191.511 55.3187 195.193 61.1795 195.499 67.8304C195.528 68.3332 198.57 67.8017 198.614 67.0116C199.007 58.2491 206.037 50.1043 215.819 52.3595C222.383 53.8678 226.75 59.2546 227.944 65.6182C228.046 66.2072 231.131 65.532 231.059 64.7994C227.187 27.408 182.486 9.03545 150.114 3.16026C109.984 -4.13704 62.9687 0.632063 28.6608 23.8599C14.1778 33.671 1.84905 47.7772 0.00047231 65.5895C-0.043195 65.9773 2.95529 65.5895 3.08629 64.9C4.80387 55.7065 13.6829 48.9407 23.2024 53.3651C29.0101 56.0657 32.1542 61.6535 32.4307 67.8017C32.4598 68.3044 35.502 67.7729 35.5457 66.9829C35.9823 57.4159 44.3082 49.1418 54.57 52.9198C61.0474 55.3043 64.73 61.1651 65.0356 67.816C65.0502 68.3188 68.1069 67.7873 68.1506 66.9972C68.5872 57.4303 76.9131 49.1562 87.1749 52.9341C93.6523 55.3187 97.3349 61.1795 97.6406 67.8304C97.6551 68.3332 100.712 67.8017 100.755 67.0116C101.076 60.2314 104.918 54.1695 111.891 52.2159C111.338 52.2159 110.77 52.1872 110.217 52.1872V90.9864C111.221 90.6847 112.24 90.3687 113.244 90.0527C105.559 81.9079 94.4092 79.5233 84.2347 84.4791C73.8273 89.5499 68.6455 100.596 67.8886 111.6C68.922 111.327 69.97 111.054 71.0035 110.781C66.2292 100.438 57.9615 90.1389 45.1961 91.8483C33.7116 93.3853 25.6623 102.363 23.7846 113.41C22.5328 120.808 23.8719 128.521 27.2198 135.215C28.7772 138.347 30.8005 141.234 33.2167 143.777C34.3957 145.027 36.0842 146.018 37.1468 147.311C39.0973 149.666 37.8309 149.695 35.2545 151.232C25.1092 157.337 11.8052 163.586 11.354 176.945C11.354 177.362 14.4398 176.988 14.4689 176.126C14.9638 161.575 31.47 155.154 42.2267 148.474C42.3577 148.388 42.7944 148.115 42.5033 147.943C28.8209 139.123 22.1543 120.132 29.243 105.164C33.4496 96.2726 43.3621 89.8947 53.2164 94.4196C60.3632 97.7091 64.7445 104.805 67.8886 111.614C68.1942 112.275 70.9598 111.485 71.0035 110.795C71.5712 102.406 74.5988 93.9886 81.0761 88.2571C90.4209 79.9686 102.4 82.7266 110.319 91.1157C110.755 91.5753 113.346 90.8715 113.346 90.1819V51.3827C113.346 50.9518 111.76 51.3253 111.672 51.354C103.652 53.5949 98.0627 59.3839 97.6697 67.8591C98.7031 67.5862 99.7366 67.3133 100.785 67.0403C99.7802 44.8755 66.04 46.5706 65.0647 67.8591C66.0982 67.5862 67.1317 67.3133 68.1797 67.0403C67.1753 44.8755 33.4351 46.5562 32.4598 67.8591C33.4933 67.5862 34.5413 67.3133 35.5748 67.0403C34.6286 46.1252 3.71219 45.9529 0.0586954 65.5177C1.09215 65.2878 2.11106 65.058 3.14452 64.8282C6.87079 28.5141 49.6211 10.2852 81.0906 4.40999C120.755 -3.00222 167.785 1.75252 201.336 25.5549C214.873 35.1649 226.139 48.7396 227.886 65.5895C228.919 65.3166 229.967 65.0436 231 64.7707C227.172 44.3297 196.372 47.7485 195.455 67.8017C196.489 67.5287 197.537 67.2558 198.57 66.9829C197.566 44.8181 163.826 46.5131 162.85 67.8017C163.884 67.5287 164.932 67.2558 165.965 66.9829C164.961 44.8181 131.221 46.5131 130.245 67.8017C131.279 67.5287 132.327 67.2558 133.36 66.9829C132.997 59.1684 128.091 53.2789 120.522 51.1673C119.969 51.0093 117.684 51.3827 117.684 52.1584V80.0117C117.684 89.3488 116.534 99.4472 117.975 108.698C118.077 109.316 120.901 108.54 121.061 108.009C123.259 101.056 127.247 94.5057 133.812 90.7853C141.686 86.3035 151.162 88.9466 157.348 94.8361C168.396 105.365 169.502 122.89 162.632 135.876C162.53 136.063 162.748 136.135 162.88 136.178C164.379 136.609 165.863 137.069 167.348 137.528C167.872 137.701 170.216 137.298 170.186 136.537C169.473 118.955 188.323 86.3753 207.886 106.63C221.466 120.678 214.465 145.228 199.458 155.24C199.283 155.355 198.934 155.556 199.167 155.786C206.212 162.049 219.021 167.249 219.603 177.836C219.632 178.324 222.762 177.836 222.718 177.017" fill="#E0A619"/>
</g>
<path d="M24.3085 195.845C23.3551 198.556 22.4394 201.07 21.5614 203.387C20.7084 205.679 19.868 207.861 19.0401 209.931C18.2122 212.002 17.3843 213.986 16.5564 215.884C15.7536 217.758 14.9257 219.619 14.0728 221.467H10.6483C9.79535 219.619 8.95492 217.758 8.12703 215.884C7.32423 213.986 6.49634 212.002 5.64337 209.931C4.81548 207.861 3.96251 205.679 3.08445 203.387C2.20639 201.07 1.30324 198.556 0.375 195.845H4.40154C5.75626 199.739 7.0859 203.486 8.39045 207.084C9.695 210.683 11.0372 214.06 12.417 217.215C13.7968 214.085 15.139 210.72 16.4435 207.121C17.7481 203.498 19.0652 199.739 20.3948 195.845H24.3085Z" fill="#E0A619"/>
<path d="M30.1883 221.467V195.845H46.1063V198.913H33.8386V206.53H44.7516V209.525H33.8386V218.398H47.0471V221.467H30.1883Z" fill="#E0A619"/>
<path d="M67.1004 213.222C67.1004 214.455 66.9624 215.601 66.6865 216.661C66.4356 217.721 65.9715 218.657 65.2941 219.471C64.6419 220.259 63.7512 220.888 62.6223 221.356C61.5185 221.8 60.1261 222.022 58.4452 222.022C57.5923 222.022 56.802 221.948 56.0745 221.8C55.372 221.677 54.7323 221.516 54.1553 221.319C53.5783 221.097 53.0765 220.876 52.65 220.654C52.2236 220.407 51.8849 220.173 51.634 219.951L53.064 217.104C53.5908 217.474 54.2682 217.868 55.0961 218.287C55.949 218.682 57.0027 218.879 58.2571 218.879C60.0634 218.879 61.3805 218.435 62.2084 217.548C63.0363 216.636 63.4502 215.083 63.4502 212.889V195.845H67.1004V213.222Z" fill="#E0A619"/>
<path d="M91.3349 218.361V221.467H75.6427V195.845H79.2929V218.361H91.3349Z" fill="#E0A619"/>
<path d="M97.4144 221.467V195.845H113.332V198.913H101.065V206.53H111.978V209.525H101.065V218.398H114.273V221.467H97.4144Z" fill="#E0A619"/>
<path d="M143.841 217.918C143.59 217.326 143.252 216.574 142.825 215.662C142.424 214.75 141.985 213.764 141.508 212.704C141.032 211.645 140.517 210.56 139.965 209.451C139.438 208.317 138.937 207.257 138.46 206.271C137.983 205.26 137.532 204.361 137.105 203.572C136.704 202.783 136.378 202.179 136.127 201.76C135.851 204.669 135.625 207.824 135.45 211.226C135.274 214.602 135.123 218.016 134.998 221.467H131.423C131.523 219.249 131.636 217.018 131.762 214.775C131.887 212.507 132.025 210.289 132.176 208.12C132.351 205.926 132.527 203.794 132.702 201.723C132.903 199.653 133.116 197.693 133.342 195.845H136.541C137.218 196.929 137.946 198.211 138.723 199.69C139.501 201.169 140.279 202.722 141.057 204.348C141.834 205.951 142.587 207.565 143.314 209.192C144.042 210.794 144.707 212.261 145.309 213.592C145.911 212.261 146.576 210.794 147.303 209.192C148.031 207.565 148.784 205.951 149.561 204.348C150.339 202.722 151.117 201.169 151.894 199.69C152.672 198.211 153.4 196.929 154.077 195.845H157.276C158.129 204.102 158.768 212.643 159.195 221.467H155.62C155.494 218.016 155.344 214.602 155.168 211.226C154.993 207.824 154.767 204.669 154.491 201.76C154.24 202.179 153.901 202.783 153.475 203.572C153.074 204.361 152.634 205.26 152.158 206.271C151.681 207.257 151.167 208.317 150.615 209.451C150.088 210.56 149.586 211.645 149.11 212.704C148.633 213.764 148.181 214.75 147.755 215.662C147.354 216.574 147.027 217.326 146.777 217.918H143.841Z" fill="#E0A619"/>
<path d="M166.123 208.637C166.123 206.444 166.449 204.509 167.101 202.833C167.778 201.156 168.681 199.764 169.81 198.654C170.964 197.521 172.294 196.67 173.799 196.103C175.33 195.536 176.948 195.253 178.654 195.253C180.335 195.253 181.915 195.536 183.395 196.103C184.901 196.67 186.218 197.521 187.347 198.654C188.475 199.764 189.366 201.156 190.018 202.833C190.696 204.509 191.034 206.444 191.034 208.637C191.034 210.831 190.696 212.766 190.018 214.442C189.366 216.118 188.475 217.523 187.347 218.657C186.218 219.766 184.901 220.604 183.395 221.171C181.915 221.738 180.335 222.022 178.654 222.022C176.948 222.022 175.33 221.738 173.799 221.171C172.294 220.604 170.964 219.766 169.81 218.657C168.681 217.523 167.778 216.118 167.101 214.442C166.449 212.766 166.123 210.831 166.123 208.637ZM169.961 208.637C169.961 210.19 170.162 211.608 170.563 212.889C170.964 214.146 171.529 215.219 172.256 216.106C173.009 216.993 173.912 217.684 174.966 218.177C176.045 218.645 177.249 218.879 178.578 218.879C179.908 218.879 181.1 218.645 182.153 218.177C183.207 217.684 184.098 216.993 184.825 216.106C185.578 215.219 186.155 214.146 186.556 212.889C186.958 211.608 187.158 210.19 187.158 208.637C187.158 207.084 186.958 205.679 186.556 204.422C186.155 203.141 185.578 202.056 184.825 201.169C184.098 200.281 183.207 199.603 182.153 199.135C181.1 198.642 179.908 198.396 178.578 198.396C177.249 198.396 176.045 198.642 174.966 199.135C173.912 199.603 173.009 200.281 172.256 201.169C171.529 202.056 170.964 203.141 170.563 204.422C170.162 205.679 169.961 207.084 169.961 208.637Z" fill="#E0A619"/>
<path d="M220.135 208.637C220.135 210.856 219.784 212.791 219.082 214.442C218.379 216.069 217.388 217.425 216.109 218.509C214.829 219.569 213.299 220.37 211.518 220.913C209.737 221.43 207.78 221.689 205.647 221.689C204.594 221.689 203.427 221.64 202.148 221.541C200.893 221.467 199.752 221.307 198.723 221.06V196.214C199.752 195.968 200.893 195.808 202.148 195.734C203.427 195.635 204.594 195.586 205.647 195.586C207.78 195.586 209.737 195.857 211.518 196.399C213.299 196.917 214.829 197.718 216.109 198.802C217.388 199.862 218.379 201.218 219.082 202.869C219.784 204.496 220.135 206.419 220.135 208.637ZM205.948 218.546C209.41 218.546 211.994 217.684 213.7 215.958C215.406 214.208 216.259 211.768 216.259 208.637C216.259 205.507 215.406 203.079 213.7 201.354C211.994 199.603 209.41 198.728 205.948 198.728C204.92 198.728 204.117 198.741 203.54 198.765C202.988 198.79 202.599 198.815 202.373 198.839V218.435C202.599 218.46 202.988 218.485 203.54 218.509C204.117 218.534 204.92 218.546 205.948 218.546Z" fill="#E0A619"/>
<path d="M19.1906 225.823H23.9321V251.446H19.1906V240.095H7.86361V251.446H3.12208V225.823H7.86361V236.065H19.1906V225.823Z" fill="#E0A619"/>
<path d="M40.217 252C38.4358 252 36.9055 251.754 35.626 251.261C34.3466 250.743 33.2804 250.028 32.4274 249.116C31.5995 248.204 30.9849 247.132 30.5835 245.9C30.1821 244.667 29.9814 243.312 29.9814 241.833V225.823H34.7605V241.389C34.7605 242.547 34.886 243.546 35.1368 244.384C35.4128 245.197 35.7891 245.863 36.2658 246.38C36.7675 246.898 37.3445 247.28 37.9968 247.527C38.6742 247.773 39.4268 247.896 40.2547 247.896C41.0826 247.896 41.8352 247.773 42.5125 247.527C43.1899 247.28 43.7669 246.898 44.2436 246.38C44.7453 245.863 45.1216 245.197 45.3725 244.384C45.6485 243.546 45.7865 242.547 45.7865 241.389V225.823H50.5656V241.833C50.5656 243.312 50.3524 244.667 49.9259 245.9C49.5245 247.132 48.8973 248.204 48.0443 249.116C47.2164 250.028 46.1502 250.743 44.8457 251.261C43.5411 251.754 41.9983 252 40.217 252Z" fill="#E0A619"/>
<path d="M61.3705 247.601C61.6464 247.625 62.0102 247.65 62.4618 247.674C62.9134 247.674 63.528 247.674 64.3057 247.674C67.4918 247.674 69.8626 246.886 71.418 245.308C72.9985 243.706 73.7888 241.475 73.7888 238.616C73.7888 235.707 73.0236 233.477 71.4933 231.924C69.9629 230.371 67.5922 229.594 64.381 229.594C62.9761 229.594 61.9726 229.631 61.3705 229.705V247.601ZM78.7561 238.616C78.7561 240.834 78.4049 242.769 77.7024 244.421C77 246.048 75.9965 247.416 74.6919 248.525C73.4125 249.609 71.857 250.423 70.0257 250.965C68.2194 251.483 66.2124 251.742 64.0047 251.742C62.951 251.742 61.7593 251.692 60.4297 251.594C59.1001 251.52 57.8332 251.347 56.629 251.076V226.193C57.8332 225.922 59.1126 225.749 60.4673 225.675C61.8221 225.601 63.0263 225.564 64.0799 225.564C66.2625 225.564 68.257 225.823 70.0633 226.341C71.8696 226.834 73.4125 227.622 74.6919 228.707C75.9965 229.767 77 231.123 77.7024 232.774C78.4049 234.401 78.7561 236.348 78.7561 238.616Z" fill="#E0A619"/>
<path d="M95.524 252C93.5672 252 91.8111 251.705 90.2557 251.113C88.7002 250.521 87.3832 249.659 86.3044 248.525C85.2256 247.366 84.3978 245.961 83.8207 244.31C83.2437 242.658 82.9552 240.76 82.9552 238.616C82.9552 236.471 83.2813 234.573 83.9336 232.922C84.611 231.271 85.5267 229.878 86.6807 228.744C87.8347 227.585 89.1895 226.71 90.7449 226.119C92.3003 225.527 93.9686 225.232 95.7498 225.232C96.8286 225.232 97.807 225.318 98.6851 225.49C99.5631 225.638 100.328 225.811 100.981 226.008C101.633 226.205 102.172 226.415 102.599 226.637C103.025 226.858 103.326 227.019 103.502 227.117L102.109 230.925C101.507 230.556 100.642 230.211 99.5129 229.89C98.4091 229.545 97.2049 229.373 95.9004 229.373C94.7714 229.373 93.7177 229.57 92.7393 229.964C91.7609 230.334 90.908 230.901 90.1804 231.665C89.478 232.429 88.926 233.39 88.5246 234.549C88.1232 235.707 87.9225 237.051 87.9225 238.579C87.9225 239.935 88.0731 241.179 88.3741 242.313C88.7002 243.447 89.1895 244.433 89.8417 245.271C90.494 246.085 91.3219 246.725 92.3254 247.194C93.3289 247.637 94.5331 247.859 95.938 247.859C97.6188 247.859 98.9861 247.699 100.04 247.379C101.093 247.034 101.909 246.713 102.486 246.417L103.765 250.226C103.464 250.423 103.05 250.62 102.523 250.817C102.022 251.014 101.42 251.212 100.717 251.409C100.015 251.581 99.2244 251.717 98.3464 251.816C97.4683 251.939 96.5275 252 95.524 252Z" fill="#E0A619"/>
<path d="M125.939 251.446C125.588 250.435 125.224 249.437 124.848 248.451C124.472 247.465 124.108 246.454 123.757 245.419H112.769C112.417 246.454 112.054 247.477 111.677 248.488C111.326 249.474 110.975 250.46 110.624 251.446H105.694C106.672 248.71 107.601 246.183 108.479 243.866C109.357 241.549 110.21 239.355 111.038 237.285C111.89 235.214 112.731 233.242 113.559 231.369C114.387 229.496 115.24 227.647 116.118 225.823H120.596C121.474 227.647 122.327 229.496 123.155 231.369C123.983 233.242 124.811 235.214 125.638 237.285C126.491 239.355 127.357 241.549 128.235 243.866C129.138 246.183 130.079 248.71 131.057 251.446H125.939ZM118.263 230.778C117.686 232.084 117.021 233.674 116.268 235.547C115.541 237.42 114.776 239.454 113.973 241.648H122.553C121.75 239.454 120.972 237.408 120.22 235.51C119.467 233.612 118.815 232.035 118.263 230.778Z" fill="#E0A619"/>
<path d="M151.927 251.446C151.074 250.041 150.121 248.537 149.067 246.935C148.014 245.308 146.922 243.681 145.793 242.054C144.665 240.403 143.51 238.813 142.331 237.285C141.177 235.732 140.074 234.339 139.02 233.107V251.446H134.354V225.823H138.23C139.233 226.858 140.312 228.091 141.466 229.52C142.62 230.925 143.774 232.392 144.928 233.92C146.107 235.449 147.236 236.989 148.315 238.542C149.419 240.07 150.397 241.5 151.25 242.831V225.823H155.954V251.446H151.927Z" fill="#E0A619"/>
<path d="M173.8 252C171.843 252 170.087 251.705 168.532 251.113C166.976 250.521 165.659 249.659 164.58 248.525C163.501 247.366 162.674 245.961 162.097 244.31C161.52 242.658 161.231 240.76 161.231 238.616C161.231 236.471 161.557 234.573 162.209 232.922C162.887 231.271 163.803 229.878 164.957 228.744C166.111 227.585 167.465 226.71 169.021 226.119C170.576 225.527 172.244 225.232 174.026 225.232C175.104 225.232 176.083 225.318 176.961 225.49C177.839 225.638 178.604 225.811 179.256 226.008C179.909 226.205 180.448 226.415 180.875 226.637C181.301 226.858 181.602 227.019 181.778 227.117L180.385 230.925C179.783 230.556 178.918 230.211 177.789 229.89C176.685 229.545 175.481 229.373 174.176 229.373C173.047 229.373 171.994 229.57 171.015 229.964C170.037 230.334 169.184 230.901 168.456 231.665C167.754 232.429 167.202 233.39 166.8 234.549C166.399 235.707 166.198 237.051 166.198 238.579C166.198 239.935 166.349 241.179 166.65 242.313C166.976 243.447 167.465 244.433 168.118 245.271C168.77 246.085 169.598 246.725 170.601 247.194C171.605 247.637 172.809 247.859 174.214 247.859C175.895 247.859 177.262 247.699 178.316 247.379C179.369 247.034 180.185 246.713 180.762 246.417L182.041 250.226C181.74 250.423 181.326 250.62 180.799 250.817C180.298 251.014 179.695 251.212 178.993 251.409C178.291 251.581 177.5 251.717 176.622 251.816C175.744 251.939 174.803 252 173.8 252Z" fill="#E0A619"/>
<path d="M186.207 251.446V225.823H202.953V229.779H190.948V236.102H201.636V239.984H190.948V247.49H203.856V251.446H186.207Z" fill="#E0A619"/>
<path d="M215.444 225.564C219.207 225.564 222.079 226.242 224.061 227.598C226.068 228.954 227.072 231.024 227.072 233.809C227.072 237.285 225.328 239.639 221.841 240.871C222.318 241.438 222.857 242.128 223.459 242.942C224.061 243.755 224.676 244.643 225.303 245.604C225.93 246.541 226.532 247.514 227.109 248.525C227.687 249.511 228.201 250.484 228.652 251.446H223.346C222.87 250.558 222.355 249.671 221.803 248.784C221.252 247.872 220.687 246.997 220.11 246.159C219.558 245.296 219.006 244.495 218.454 243.755C217.902 242.991 217.388 242.313 216.911 241.722C216.56 241.746 216.259 241.759 216.008 241.759C215.757 241.759 215.519 241.759 215.293 241.759H212.998V251.446H208.256V226.193C209.41 225.946 210.64 225.786 211.944 225.712C213.249 225.614 214.415 225.564 215.444 225.564ZM215.783 229.594C214.779 229.594 213.851 229.631 212.998 229.705V237.987H215.068C216.222 237.987 217.238 237.926 218.116 237.803C218.994 237.679 219.721 237.457 220.298 237.137C220.9 236.817 221.352 236.385 221.653 235.843C221.954 235.301 222.105 234.61 222.105 233.772C222.105 232.984 221.954 232.318 221.653 231.776C221.352 231.234 220.913 230.802 220.336 230.482C219.784 230.161 219.119 229.939 218.341 229.816C217.564 229.668 216.711 229.594 215.783 229.594Z" fill="#E0A619"/>
<defs>
<clipPath id="clip0_737_765">
<rect width="231" height="178.008" fill="white"/>
</clipPath>
</defs>
</svg>
