<svg width="58" height="58" viewBox="0 0 58 58" fill="none" xmlns="http://www.w3.org/2000/svg">
<rect x="2" y="2" width="55" height="55" rx="10" fill="#E0A619"/>
<path d="M39.9815 17C39.9815 17 40.0148 17 40.0333 17C41.1222 17.0039 42 17.8778 42 18.9557V19.0443C42 20.1222 41.1148 21 40.0259 21H39.9741C38.8815 21 38 20.1261 38 19.0443V18.9557C38 17.8739 38.8889 16.9962 39.9852 17H39.9815Z" fill="white"/>
<path d="M39.6968 12H20.3032C15.7175 12 12 15.7175 12 20.3032V39.6968C12 44.2825 15.7175 48 20.3032 48H39.6968C44.2825 48 48 44.2825 48 39.6968V20.3032C48 15.7175 44.2825 12 39.6968 12Z" stroke="white" stroke-width="4" stroke-miterlimit="10"/>
<path d="M30.0018 22H29.9982C25.5809 22 22 25.5809 22 29.9982V30.0018C22 34.4191 25.5809 38 29.9982 38H30.0018C34.4191 38 38 34.4191 38 30.0018V29.9982C38 25.5809 34.4191 22 30.0018 22Z" stroke="white" stroke-width="4" stroke-miterlimit="10"/>
</svg>
