<?xml version="1.0" encoding="utf-8"?>
<!-- Generator: Adobe Illustrator 27.0.1, SVG Export Plug-In . SVG Version: 6.00 Build 0)  -->
<svg version="1.1" id="Lag_1" xmlns="http://www.w3.org/2000/svg" xmlns:xlink="http://www.w3.org/1999/xlink" x="0px" y="0px"
	 viewBox="0 0 300.3 161.5" style="enable-background:new 0 0 300.3 161.5;" xml:space="preserve">
<style type="text/css">
	.st0{fill:#1D1D1B;}
</style>
<path class="st0" d="M28.8,0v80H5V0H28.8z M74.5,0L53.4,36.3l21,43.7H47.6L29.5,35.8L50,0H74.5z"/>
<path class="st0" d="M118.2,0v80H94.4V0H118.2z"/>
<path class="st0" d="M170,21.5V80h-23.8V0h30.5c9.3,0,16.5,2.3,21.6,6.9c5.7,5.2,8.6,11.7,8.6,19.6c0,8.1-3.5,14.9-10.6,20.4L210,80
	h-25l-11.5-25.8V33.6h1.9c5,0,7.5-2.1,7.5-6.4c0-3.8-2.9-5.7-8.7-5.7H170z"/>
<path class="st0" d="M253.8,0v80H230V0H253.8z M299.4,0l-21.1,36.3l21,43.7h-26.7l-18.1-44.2L275,0H299.4z"/>
<path class="st0" d="M27.4,120.5h-4.6c-1.9,0-3.4-0.5-4.2-1.5c-0.9-1-1.3-2.3-1.3-4c0-3.6,2.7-5.5,8.2-5.5c5.1,0,9,0.8,11.5,2.3
	l-2.2,1.7c-1.8-0.8-4.9-1.2-9.3-1.2c-2.2,0-3.6,0.2-4.4,0.7s-1.1,1.2-1.1,2c0,0.9,0.2,1.5,0.6,2c0.4,0.5,1.2,0.7,2.2,0.7h4.7
	c3.4,0,6.5,0.6,9.2,1.7c2.7,1.2,5,2.7,6.8,4.8c1.8,2,3.1,4.3,4.1,6.9c0.9,2.6,1.4,5.4,1.4,8.4c0,2.4-0.3,4.7-1,6.9
	c-0.7,2.2-1.7,4.2-3.1,6c-1.4,1.8-3,3.4-5,4.7c-1.9,1.3-4.2,2.4-6.9,3.1c-2.7,0.7-5.6,1.1-8.7,1.1c-4.9,0-9.5-0.7-13.7-2.2
	c-4.3-1.5-7.8-3.5-10.6-6.2l2.2-1.6c2.6,2.3,5.8,4.1,9.7,5.4c3.9,1.3,8,1.9,12.5,1.9c3.5,0,6.6-0.5,9.4-1.5c2.8-1,5.1-2.4,6.9-4.1
	c1.8-1.7,3.2-3.8,4.2-6.1c1-2.3,1.5-4.8,1.5-7.4c0-3.5-0.7-6.7-2.1-9.5c-1.4-2.8-3.6-5.2-6.5-6.9C34.8,121.4,31.4,120.5,27.4,120.5z
	 M22.8,134.2H27c1.9,0,3.4,0.5,4.2,1.5c0.9,1,1.3,2.3,1.3,3.9c0,3.6-2.7,5.5-8.2,5.5c-5.1,0-9-0.8-11.6-2.3l2.2-1.7
	c1.8,0.8,4.9,1.2,9.4,1.2c2.2,0,3.6-0.2,4.4-0.7c0.7-0.5,1.1-1.2,1.1-2c0-0.8-0.2-1.5-0.6-2c-0.4-0.5-1.2-0.7-2.3-0.7h-4.1
	c-3.5,0-6.6-0.6-9.5-1.7c-2.8-1.1-5.1-2.7-6.9-4.7c-1.8-2-3.2-4.3-4.2-6.9c-1-2.6-1.4-5.5-1.4-8.5c0-2.4,0.3-4.7,1-6.9
	c0.7-2.2,1.7-4.2,3.1-6c1.4-1.8,3-3.4,5-4.7c1.9-1.3,4.2-2.4,6.9-3.1c2.7-0.7,5.6-1.1,8.7-1.1c4.9,0,9.4,0.7,13.7,2.2
	c4.2,1.5,7.8,3.5,10.6,6.2l-2.2,1.6c-2.6-2.3-5.8-4.1-9.7-5.4c-3.9-1.3-8-1.9-12.4-1.9c-3.5,0-6.6,0.5-9.4,1.5
	c-2.8,1-5.1,2.4-6.9,4.1c-1.8,1.7-3.2,3.8-4.2,6.1c-1,2.3-1.5,4.8-1.5,7.4c0,3.6,0.7,6.8,2.2,9.6c1.4,2.9,3.6,5.2,6.6,6.9
	C15.3,133.3,18.8,134.2,22.8,134.2z M22.8,123.3h4.3c5.1,0,9.1,1.6,12,4.7c2.9,3.1,4.3,7,4.3,11.7c0,4.7-1.7,8.6-5,11.7
	c-3.4,3.1-8.1,4.6-14.1,4.6c-4,0-7.8-0.6-11.3-1.7c-3.5-1.1-6.4-2.7-8.8-4.7l2.1-1.7c2.1,1.7,4.7,3,7.8,3.9
	c3.1,0.9,6.5,1.4,10.1,1.4c5.3,0,9.4-1.3,12.2-3.8c2.8-2.6,4.2-5.8,4.2-9.8c0-3.9-1.2-7.2-3.5-9.8c-2.4-2.6-5.7-3.9-10.1-3.9h-4.3
	c-3.7,0-6.5-1-8.3-3c-1.8-2-2.8-4.7-2.8-7.9c0-3.2,1.1-5.9,3.4-7.9c2.3-2,5.7-3,10.3-3c3.2,0,6.2,0.4,9,1.1c2.8,0.7,5,1.8,6.8,3.2
	l-2.2,1.7c-3.2-2.2-7.7-3.3-13.6-3.3c-3.8,0-6.6,0.8-8.4,2.3c-1.8,1.5-2.6,3.5-2.6,5.9c0,2.5,0.7,4.5,2,6
	C17.7,122.5,19.9,123.3,22.8,123.3z M22.8,128.7H27c3.7,0,6.5,1,8.3,3.1c1.8,2,2.8,4.7,2.8,7.9c0,3.2-1.1,5.9-3.4,7.9
	c-2.3,2-5.7,3-10.3,3c-3.2,0-6.2-0.4-9-1.1c-2.8-0.7-5.1-1.8-6.8-3.2l2.2-1.7c3.2,2.2,7.7,3.3,13.7,3.3c3.8,0,6.6-0.8,8.4-2.3
	c1.8-1.5,2.6-3.5,2.6-5.9c0-2.5-0.7-4.4-2-5.9c-1.3-1.5-3.5-2.3-6.4-2.3h-4.1c-5.2,0-9.2-1.5-12.2-4.6c-2.9-3.1-4.4-7-4.4-11.7
	c0-4.7,1.7-8.6,5-11.7c3.4-3.1,8.1-4.6,14.1-4.6c4,0,7.8,0.6,11.3,1.7c3.5,1.1,6.4,2.7,8.7,4.7l-2.1,1.7c-2.1-1.7-4.7-3-7.8-3.9
	c-3.1-0.9-6.5-1.4-10.1-1.4c-5.3,0-9.4,1.3-12.2,3.8c-2.8,2.6-4.2,5.8-4.2,9.8c0,4,1.2,7.2,3.6,9.8C15,127.4,18.4,128.7,22.8,128.7z
	"/>
<path class="st0" d="M106,129.7V95.9h2.2v33.7c0,5.2-1.2,10.1-3.5,14.6c-2.3,4.5-5.5,8-9.5,10.6c-4,2.6-8.4,3.9-13.1,3.9
	c-4.7,0-9-1.3-13.1-3.9c-4-2.6-7.2-6.1-9.5-10.6c-2.3-4.5-3.5-9.3-3.5-14.6V95.9h2.2v33.7c0,3.6,0.6,7,1.9,10.2
	c1.3,3.3,3,6.1,5.1,8.5c2.1,2.4,4.7,4.2,7.6,5.7c2.9,1.4,6,2.1,9.2,2.1c3.2,0,6.3-0.7,9.2-2.1c2.9-1.4,5.5-3.3,7.6-5.7
	c2.1-2.4,3.8-5.2,5.1-8.5C105.4,136.7,106,133.2,106,129.7z M101.5,129.7V95.9h2.2v33.7c0,3.2-0.6,6.3-1.7,9.3
	c-1.1,2.9-2.7,5.5-4.6,7.6c-1.9,2.1-4.2,3.8-6.9,5.1c-2.7,1.3-5.5,1.9-8.4,1.9c-2.9,0-5.7-0.6-8.4-1.9c-2.7-1.3-5-3-6.9-5.1
	c-1.9-2.1-3.5-4.7-4.6-7.6c-1.1-2.9-1.7-6-1.7-9.3V95.9h2.2v33.7c0,3.8,0.9,7.4,2.6,10.6c1.7,3.3,4.1,5.8,7.1,7.7
	c3,1.9,6.2,2.9,9.7,2.9c3.5,0,6.7-1,9.7-2.9c3-1.9,5.3-4.5,7.1-7.7C100.7,137.1,101.5,133.5,101.5,129.7z M97.1,129.7V95.9h2.2v33.7
	c0,2.5-0.5,4.9-1.4,7.2c-0.9,2.3-2.1,4.3-3.7,5.9c-1.5,1.7-3.4,3-5.5,4c-2.1,1-4.3,1.5-6.6,1.5c-2.3,0-4.5-0.5-6.6-1.5
	c-2.1-1-3.9-2.3-5.5-4c-1.5-1.7-2.8-3.7-3.7-5.9c-0.9-2.3-1.4-4.7-1.4-7.2V95.9h2.2v33.7c0,2.9,0.7,5.6,2,8c1.3,2.5,3.1,4.4,5.4,5.8
	c2.3,1.4,4.8,2.1,7.5,2.1c2.7,0,5.2-0.7,7.5-2.1c2.3-1.4,4.1-3.4,5.4-5.8C96.4,135.2,97.1,132.6,97.1,129.7z M92.6,129.7V95.9h2.2
	v33.7c0,3.7-1.2,6.8-3.7,9.5c-2.5,2.6-5.5,3.9-8.9,3.9s-6.5-1.3-8.9-3.9c-2.5-2.6-3.7-5.8-3.7-9.5V95.9h2.2v33.7c0,3,1,5.5,3.1,7.6
	c2,2.1,4.5,3.2,7.4,3.2c2.9,0,5.3-1.1,7.4-3.2C91.6,135.2,92.6,132.6,92.6,129.7z"/>
<path class="st0" d="M119.2,95.9h2.7v62.8h-2.7V95.9z M124.7,95.9h2.7v62.8h-2.7V95.9z M130.2,95.9h2.7v62.8h-2.7V95.9z M135.6,95.9
	h2.7v62.8h-2.7V95.9z"/>
<path class="st0" d="M147.4,98.7v-2.7h41v2.7H147.4z M147.4,104.1v-2.7h41v2.7H147.4z M147.4,109.6v-2.7h41v2.7h-10.9v49.2h-2.7
	v-49.2H172v49.2h-2.7v-49.2h-2.7v49.2h-2.7v-49.2h-2.7v49.2h-2.7v-49.2H147.4z"/>
<path class="st0" d="M200.3,158.8h-2.7V95.9h2.7V158.8z M205.8,158.8h-2.7V95.9h2.7V158.8z M211.3,158.8h-2.7V95.9h2.7V158.8z
	 M216.7,145.1h29.1v2.7h-29.1v2.7h29.1v2.7h-29.1v2.7h29.1v2.7H214V95.9h31.8v2.7h-29.1v2.7h29.1v2.7h-29.1v2.7h29.1v2.7h-29.1v10.9
	h14.9v2.7h-14.9v2.7h14.9v2.7h-14.9v2.7h14.9v2.7h-14.9V145.1z"/>
<path class="st0" d="M277.9,120.5h-4.6c-1.9,0-3.4-0.5-4.2-1.5c-0.9-1-1.3-2.3-1.3-4c0-3.6,2.7-5.5,8.2-5.5c5.1,0,9,0.8,11.5,2.3
	l-2.2,1.7c-1.8-0.8-4.9-1.2-9.3-1.2c-2.2,0-3.6,0.2-4.4,0.7s-1.1,1.2-1.1,2c0,0.9,0.2,1.5,0.6,2c0.4,0.5,1.2,0.7,2.2,0.7h4.7
	c3.4,0,6.5,0.6,9.2,1.7c2.7,1.2,5,2.7,6.8,4.8c1.8,2,3.1,4.3,4.1,6.9c0.9,2.6,1.4,5.4,1.4,8.4c0,2.4-0.3,4.7-1,6.9
	c-0.7,2.2-1.7,4.2-3.1,6c-1.4,1.8-3,3.4-5,4.7c-1.9,1.3-4.2,2.4-6.9,3.1c-2.7,0.7-5.6,1.1-8.7,1.1c-4.9,0-9.5-0.7-13.7-2.2
	c-4.3-1.5-7.8-3.5-10.6-6.2l2.2-1.6c2.6,2.3,5.8,4.1,9.7,5.4c3.9,1.3,8,1.9,12.5,1.9c3.5,0,6.6-0.5,9.4-1.5c2.8-1,5.1-2.4,6.9-4.1
	c1.8-1.7,3.2-3.8,4.2-6.1c1-2.3,1.5-4.8,1.5-7.4c0-3.5-0.7-6.7-2.1-9.5c-1.4-2.8-3.6-5.2-6.5-6.9
	C285.2,121.4,281.8,120.5,277.9,120.5z M273.3,134.2h4.2c1.9,0,3.4,0.5,4.2,1.5c0.9,1,1.3,2.3,1.3,3.9c0,3.6-2.7,5.5-8.2,5.5
	c-5.1,0-9-0.8-11.6-2.3l2.2-1.7c1.8,0.8,4.9,1.2,9.4,1.2c2.2,0,3.6-0.2,4.4-0.7c0.7-0.5,1.1-1.2,1.1-2c0-0.8-0.2-1.5-0.6-2
	c-0.4-0.5-1.2-0.7-2.3-0.7h-4.1c-3.5,0-6.6-0.6-9.5-1.7c-2.8-1.1-5.1-2.7-6.9-4.7c-1.8-2-3.2-4.3-4.2-6.9c-1-2.6-1.4-5.5-1.4-8.5
	c0-2.4,0.3-4.7,1-6.9c0.7-2.2,1.7-4.2,3.1-6c1.4-1.8,3-3.4,5-4.7c1.9-1.3,4.2-2.4,6.9-3.1c2.7-0.7,5.6-1.1,8.7-1.1
	c4.9,0,9.4,0.7,13.7,2.2c4.2,1.5,7.8,3.5,10.6,6.2l-2.2,1.6c-2.6-2.3-5.8-4.1-9.7-5.4c-3.9-1.3-8-1.9-12.4-1.9
	c-3.5,0-6.6,0.5-9.4,1.5c-2.8,1-5.1,2.4-6.9,4.1c-1.8,1.7-3.2,3.8-4.2,6.1c-1,2.3-1.5,4.8-1.5,7.4c0,3.6,0.7,6.8,2.2,9.6
	c1.4,2.9,3.6,5.2,6.6,6.9C265.7,133.3,269.2,134.2,273.3,134.2z M273.3,123.3h4.3c5.1,0,9.1,1.6,12,4.7c2.9,3.1,4.3,7,4.3,11.7
	c0,4.7-1.7,8.6-5,11.7c-3.4,3.1-8.1,4.6-14.1,4.6c-4,0-7.8-0.6-11.3-1.7c-3.5-1.1-6.4-2.7-8.8-4.7l2.1-1.7c2.1,1.7,4.7,3,7.8,3.9
	c3.1,0.9,6.5,1.4,10.1,1.4c5.3,0,9.4-1.3,12.2-3.8c2.8-2.6,4.2-5.8,4.2-9.8c0-3.9-1.2-7.2-3.5-9.8c-2.4-2.6-5.7-3.9-10.1-3.9h-4.3
	c-3.7,0-6.5-1-8.3-3c-1.8-2-2.8-4.7-2.8-7.9c0-3.2,1.1-5.9,3.4-7.9c2.3-2,5.7-3,10.3-3c3.2,0,6.2,0.4,9,1.1c2.8,0.7,5,1.8,6.8,3.2
	l-2.2,1.7c-3.2-2.2-7.7-3.3-13.6-3.3c-3.8,0-6.6,0.8-8.4,2.3c-1.8,1.5-2.6,3.5-2.6,5.9c0,2.5,0.7,4.5,2,6
	C268.2,122.5,270.3,123.3,273.3,123.3z M273.3,128.7h4.2c3.7,0,6.5,1,8.3,3.1c1.8,2,2.8,4.7,2.8,7.9c0,3.2-1.1,5.9-3.4,7.9
	c-2.3,2-5.7,3-10.3,3c-3.2,0-6.2-0.4-9-1.1c-2.8-0.7-5.1-1.8-6.8-3.2l2.2-1.7c3.2,2.2,7.7,3.3,13.7,3.3c3.8,0,6.6-0.8,8.4-2.3
	c1.8-1.5,2.6-3.5,2.6-5.9c0-2.5-0.7-4.4-2-5.9c-1.3-1.5-3.5-2.3-6.4-2.3h-4.1c-5.2,0-9.2-1.5-12.2-4.6c-2.9-3.1-4.4-7-4.4-11.7
	c0-4.7,1.7-8.6,5-11.7c3.4-3.1,8.1-4.6,14.1-4.6c4,0,7.8,0.6,11.3,1.7c3.5,1.1,6.4,2.7,8.7,4.7l-2.1,1.7c-2.1-1.7-4.7-3-7.8-3.9
	c-3.1-0.9-6.5-1.4-10.1-1.4c-5.3,0-9.4,1.3-12.2,3.8c-2.8,2.6-4.2,5.8-4.2,9.8c0,4,1.2,7.2,3.6,9.8
	C265.4,127.4,268.8,128.7,273.3,128.7z"/>
</svg>
