<svg width="55" height="60" viewBox="0 0 55 60" fill="none" xmlns="http://www.w3.org/2000/svg">
<rect y="3" width="55" height="55" rx="10" fill="#E0A619"/>
<path d="M9.44141 48V21.8281H16.5703V48H9.44141ZM13.0059 18.9473C10.8574 18.9473 9.19727 17.3115 9.19727 15.2607C9.19727 13.1855 10.8574 11.5742 13.0059 11.5742C15.1543 11.5742 16.8145 13.1855 16.8145 15.2607C16.8145 17.3115 15.1543 18.9473 13.0059 18.9473ZM21.3311 48V21.8281H28.2158V26.4912H28.3623C29.7539 23.2441 32.5127 21.3398 36.541 21.3398C42.3516 21.3398 45.623 25.002 45.623 31.1299V48H38.4941V32.6191C38.4941 29.2012 36.8828 27.248 33.6846 27.248C30.4863 27.248 28.46 29.5918 28.46 32.9854V48H21.3311Z" fill="white"/>
</svg>
