<svg width="57" height="48" viewBox="0 0 57 48" fill="none" xmlns="http://www.w3.org/2000/svg">
<path d="M31.248 45.8406C31.8965 44.2612 32.5349 42.6777 33.1684 41.0941C34.5508 37.6548 35.9132 34.2112 37.2403 30.755C38.5675 27.2989 39.8544 23.9223 40.9956 20.4662C41.3575 19.3728 41.7245 18.271 41.9658 17.1567C42.3378 15.4265 42.4434 13.5832 42.3982 11.8321C42.3378 9.57829 41.7848 7.34122 40.1561 5.49795C38.3413 3.4494 35.325 2.1968 32.3188 1.94126C26.0952 1.41341 19.4996 4.76901 17.4888 9.75424C17.0162 10.923 16.9659 12.2133 17.0011 13.4324C17.0514 15.0537 17.3128 16.6707 17.6547 18.2668C18.4741 22.1251 19.7459 25.9122 21.1385 29.6491C22.531 33.3859 23.9335 36.7373 25.497 40.2312C26.3717 42.1917 27.2766 44.1481 28.2217 46.0877C28.2669 46.1799 28.3122 46.2679 28.3574 46.36C28.6892 47.0345 31.5496 46.2679 31.2731 45.7107C30.6246 44.4037 30.0113 43.084 29.403 41.7644C27.9753 38.6644 26.623 35.535 25.3663 32.3847C23.8782 28.6604 22.5058 24.8942 21.4351 21.0694C20.5654 17.9652 19.7359 14.6976 19.942 11.4928C20.0375 9.97627 20.6106 8.61057 21.5658 7.30771C22.3047 6.30647 23.275 5.38902 24.386 4.66428C24.9038 4.32914 25.4467 4.02332 26.0248 3.76778C26.5476 3.53737 27.2012 3.31953 27.6385 3.22318C28.1664 3.10588 28.6992 3.02628 29.3578 3.00533C30.0164 2.98439 30.6196 3.02628 31.2379 3.12682C32.7411 3.36561 34.1738 3.92278 35.4004 4.67685C37.6425 6.05931 38.854 8.09948 39.2813 10.3617C39.6835 12.5066 39.4673 14.6976 39.2059 16.8425C39.0953 17.7599 38.8138 18.6564 38.5373 19.5487C37.557 22.7284 36.3656 25.8662 35.1842 28.9997C33.852 32.5229 32.4746 36.0293 31.0771 39.5357C30.2275 41.6639 29.3679 43.792 28.5032 45.9202C28.463 46.0249 28.4177 46.1254 28.3775 46.2302C28.1362 46.8167 30.9816 46.5318 31.2631 45.8448L31.248 45.8406Z" fill="#E0A619"/>
<circle cx="29.5" cy="13.5" r="4.5" stroke="#E0A619" stroke-width="2"/>
</svg>
