<svg width="57" height="53" viewBox="0 0 57 53" fill="none" xmlns="http://www.w3.org/2000/svg">
<path d="M5.45898 13.2474V40.0641C5.45898 40.216 5.77318 40.3002 5.87624 40.3189C6.1301 40.3633 6.4443 40.3306 6.68812 40.2651C7.07269 40.1623 7.64578 39.959 7.64578 39.5196V12.7029C7.64578 12.551 7.33159 12.4668 7.22853 12.4481C6.97466 12.4037 6.66047 12.4364 6.41665 12.5019C6.03208 12.6047 5.45898 12.8081 5.45898 13.2474Z" fill="#E0A619"/>
<path d="M49.082 13.3637V40.1803C49.082 40.3323 49.3962 40.4164 49.4993 40.4351C49.7531 40.4795 50.0673 40.4468 50.3112 40.3813C50.6957 40.2785 51.2688 40.0752 51.2688 39.6358C51.2688 34.8072 51.2688 29.9763 51.2688 25.1477V12.8191C51.2688 12.6672 50.9546 12.583 50.8516 12.5643C50.5977 12.5199 50.2835 12.5527 50.0397 12.6181C49.6551 12.7209 49.082 12.9243 49.082 13.3637Z" fill="#E0A619"/>
<path d="M50.6084 39.3626C49.6331 39.3579 48.6604 39.3556 47.6851 39.3509C45.169 39.3415 42.6555 39.3322 40.1394 39.3228C36.7084 39.3112 33.2749 39.2995 29.8439 39.2901C26.0785 39.2784 22.3107 39.2691 18.5454 39.2621C15.0666 39.2551 11.5879 39.248 8.1091 39.248C7.73458 39.248 7.36006 39.248 6.98554 39.248C6.50545 39.248 5.83181 39.4 5.54024 39.7903C5.24867 40.1806 5.7916 40.3395 6.11836 40.3395C9.51921 40.3395 12.9226 40.3442 16.3234 40.3512C20.0887 40.3582 23.8515 40.3676 27.6168 40.3792C31.1207 40.3886 34.6246 40.4003 38.1285 40.412C40.7904 40.4213 43.4523 40.4307 46.1116 40.44C47.3056 40.4447 48.502 40.4657 49.6934 40.454C49.7085 40.454 49.7261 40.454 49.7412 40.454C50.2213 40.454 50.8949 40.2998 51.1865 39.9118C51.4781 39.5238 50.9351 39.3649 50.6084 39.3626Z" fill="#E0A619"/>
<path d="M50.6084 12.4876C49.6331 12.4829 48.6604 12.4806 47.6851 12.4759C45.169 12.4665 42.6555 12.4572 40.1394 12.4478C36.7084 12.4362 33.2749 12.4245 29.8439 12.4151C26.0785 12.4034 22.3107 12.3941 18.5454 12.3871C15.0666 12.3801 11.5879 12.373 8.1091 12.373C7.73458 12.373 7.36006 12.373 6.98554 12.373C6.50545 12.373 5.83181 12.525 5.54024 12.9153C5.24867 13.3056 5.7916 13.4645 6.11836 13.4645C9.51921 13.4645 12.9226 13.4692 16.3234 13.4762C20.0887 13.4832 23.8515 13.4926 27.6168 13.5042C31.1207 13.5136 34.6246 13.5253 38.1285 13.537C40.7904 13.5463 43.4523 13.5557 46.1116 13.565C47.3056 13.5697 48.502 13.5907 49.6934 13.579C49.7085 13.579 49.7261 13.579 49.7412 13.579C50.2213 13.579 50.8949 13.4248 51.1865 13.0368C51.4781 12.6488 50.9351 12.4899 50.6084 12.4876Z" fill="#E0A619"/>
<path d="M28.5184 28.3943C27.7467 27.4314 26.8016 26.5666 25.8867 25.7276C22.9911 23.0679 19.8189 20.6699 16.5664 18.4029C13.6431 16.3649 10.6319 14.4367 7.56785 12.588C7.1506 12.3356 6.56745 12.4127 6.12758 12.5927C5.96671 12.6581 5.11964 13.1139 5.53187 13.3639C10.4157 16.3111 15.1839 19.4499 19.6329 22.9463C21.7644 24.6221 23.8557 26.375 25.7107 28.3171C25.9746 28.5953 26.2436 28.8734 26.4799 29.1702C26.5854 29.3034 26.9172 29.3268 27.063 29.3268C27.3395 29.3291 27.6663 29.2684 27.9176 29.1655C28.2067 29.0463 28.7999 28.7519 28.5133 28.3943H28.5184Z" fill="#E0A619"/>
<path d="M28.3677 28.9244C29.3756 28.0083 30.4665 27.1645 31.5498 26.3255C34.8376 23.778 38.266 21.3894 41.7524 19.0849C44.6957 17.1381 47.7371 15.2333 50.8414 13.3612C51.1129 13.1976 51.515 12.819 51.0475 12.618C50.6101 12.4287 49.8887 12.5876 49.5042 12.8213C44.4469 15.8713 39.4726 19.0546 34.6767 22.4505C32.2637 24.1589 29.8833 25.9165 27.6211 27.7932C27.2868 28.0714 26.95 28.3495 26.6308 28.6416C26.5202 28.7421 26.3593 28.8894 26.4071 29.0553C26.4548 29.2212 26.676 29.2843 26.8243 29.3101C27.2944 29.3919 28.0158 29.247 28.3702 28.9244H28.3677Z" fill="#E0A619"/>
<path d="M50.4667 39.0888C49.9363 38.6587 49.4211 38.2076 48.9033 37.7636C46.4902 35.6975 44.0948 33.6151 41.6994 31.5327C39.0401 29.2189 36.3832 26.9004 33.7314 24.5796C33.3871 24.2781 32.6732 24.43 32.2911 24.5843C32.0674 24.6754 31.341 25.0447 31.6954 25.3555C35.702 28.8613 39.7137 32.3624 43.7404 35.8471C45.1606 37.0765 46.5807 38.3081 48.0185 39.5211C48.1542 39.6357 48.29 39.7502 48.4282 39.8647C48.7876 40.1568 49.4764 40.019 49.8685 39.86C50.0796 39.7735 50.8312 39.3879 50.4642 39.0888H50.4667Z" fill="#E0A619"/>
<path d="M8.29934 39.2789C8.74927 38.9494 9.15646 38.5544 9.5712 38.1875C11.8007 36.2289 13.9926 34.233 16.1844 32.237C18.7331 29.9162 21.2743 27.5884 23.813 25.2582C23.9236 25.1577 24.0845 25.0128 24.0367 24.8446C23.989 24.6763 23.7678 24.6155 23.6195 24.5898C23.152 24.508 22.4255 24.6529 22.0736 24.9755C18.2581 28.4812 14.4375 31.9846 10.5817 35.453C9.35001 36.5608 8.1259 37.6756 6.85907 38.7484C6.76104 38.8302 6.66552 38.919 6.55995 38.9938C6.44433 39.0779 6.291 39.2532 6.33625 39.4075C6.38149 39.5617 6.6052 39.6365 6.7535 39.6622C7.26878 39.7534 7.89214 39.5734 8.29934 39.2766V39.2789Z" fill="#E0A619"/>
</svg>
