<svg width="348" height="340" viewBox="0 0 348 340" fill="none" xmlns="http://www.w3.org/2000/svg">
<path d="M225.698 287.871C224.516 285.141 223.624 282.202 222.613 279.384C220.24 272.77 217.867 266.156 215.476 259.549C209.937 244.11 204.405 228.693 198.83 213.266C191.709 193.532 184.587 173.797 177.494 154.026L164.902 118.931L160.928 122.802C169.907 122.629 178.463 130.284 182.384 140.758C182.751 141.783 187.568 138.898 186.952 137.069C183.261 126.328 185.03 111.894 194.814 110.171C204.597 108.448 213.956 116.866 218.094 127.946C218.453 128.947 223.278 126.086 222.662 124.257C218.971 113.516 220.74 99.0814 230.524 97.3586C240.308 95.6357 249.666 104.054 253.804 115.133C254.164 116.135 258.988 113.274 258.372 111.444C255.006 101.665 256.002 87.8495 264.52 84.9774C273.038 82.1052 283.138 89.0218 288.138 99.1087C288.725 100.291 293.416 97.0574 292.706 95.4195C282.797 72.9525 264.247 58.0012 245.593 49.2122C221.4 37.784 195.659 35.0072 171.691 37.0613C144.336 39.4111 118.096 48.326 95.0513 63.0867C74.8515 76.038 56.3548 93.793 44.0629 117.234C34.5116 135.459 28.4891 158.254 33.055 182.191C33.553 184.825 34.1854 187.437 34.9077 190.017C35.1545 190.874 39.9366 188.291 39.4758 186.328C36.9244 175.309 40.1996 163.147 49.9106 162.581C58.9068 162.06 67.7038 170.102 71.5897 180.536C71.949 181.537 76.7734 178.676 76.1577 176.847C72.4667 166.106 74.2359 151.671 84.0196 149.949C93.8033 148.226 103.162 156.644 107.3 167.723C107.659 168.725 112.484 165.864 111.868 164.034C108.177 153.294 109.946 138.859 119.73 137.136C129.513 135.413 138.872 143.831 143.01 154.911C143.369 155.912 148.194 153.051 147.578 151.222C144.487 142.211 145.075 130.882 151.324 125.932L148.491 126.87C155.219 145.905 161.937 164.969 168.665 184.004C179.382 214.383 190.116 244.755 200.833 275.133C203.303 282.132 205.774 289.132 208.244 296.131C208.587 297.086 213.471 294.334 212.812 292.442C206.084 273.407 199.366 254.342 192.638 235.307C181.922 204.929 171.187 174.556 160.471 144.178C158 137.179 155.53 130.18 153.059 123.18C152.725 122.249 150.371 124.013 150.226 124.118C142.168 130.479 138.662 142.225 143.02 154.881L147.588 151.192C142.253 136.888 129.043 129.458 118.412 134.481C107.78 139.505 102.26 152.998 107.328 167.687L111.896 163.998C106.56 149.694 93.3504 142.264 82.7193 147.287C72.0882 152.31 66.5682 165.804 71.6353 180.493L76.2034 176.804C71.1773 163.362 58.8866 155.549 48.4779 159.494C38.0693 163.438 31.5717 175.679 34.9077 190.017L39.4758 186.328C33.1126 163.666 36.7914 141.134 44.8211 122.744C54.8156 99.8652 71.2302 82.2527 89.499 69.4685C111.435 54.107 136.8 44.7958 163.264 41.7147C186.525 38.9941 211.324 40.8998 235.159 50.5376C255.884 58.9255 277.144 74.2973 288.093 99.1513L292.661 95.4621C286.086 82.2338 273.268 77.0284 263.406 82.7222C253.544 88.4161 248.942 101.186 253.75 115.153L258.318 111.464C252.983 97.1598 239.773 89.7293 229.142 94.7527C218.511 99.7761 212.991 113.27 218.058 127.959L222.626 124.27C217.291 109.966 204.081 102.535 193.45 107.559C182.819 112.582 177.299 126.075 182.366 140.765L186.934 137.075C182.779 125.949 173.681 118.541 164.301 118.727C163.274 118.753 159.716 120.897 160.326 122.597L186.453 195.417C193.822 215.957 201.273 236.441 208.661 256.974C211.526 264.962 214.392 272.949 217.276 280.93C218.529 284.424 219.644 288.098 221.114 291.513C221.587 292.605 226.416 289.532 225.682 287.824L225.698 287.871Z" fill="#E0A619"/>
<rect x="151" y="184" width="104" height="130.775" fill="white"/>
</svg>
