<?xml version="1.0" encoding="utf-8"?>
<!-- Generator: Adobe Illustrator 19.1.0, SVG Export Plug-In . SVG Version: 6.00 Build 0)  -->
<!DOCTYPE svg PUBLIC "-//W3C//DTD SVG 1.1//EN" "http://www.w3.org/Graphics/SVG/1.1/DTD/svg11.dtd">
<svg version="1.1" id="Layer_1" xmlns="http://www.w3.org/2000/svg" xmlns:xlink="http://www.w3.org/1999/xlink" x="0px" y="0px"
	 viewBox="171 -2 390 52" style="enable-background:new 171 -2 390 52;" xml:space="preserve">
<style type="text/css">
	.st0{fill:#289BD6;}
	.st1{fill:#FCB44E;}
	.st2{fill:#FEFEFE;}
</style>
<path class="st0" d="M222.9,26L222.9,26h-8.3l0,0h-0.2l0,0c-0.3,3-1.6,6.1-3.4,8.6c-3.2,4.3-8.3,7-14.1,7c-4,0-7.6-1.3-10.6-3.5
	c-3.7-2.8-6.3-7.1-6.8-12.1l0,0h-0.2H171c0.3,4,1.8,8.6,4.1,12.2l0,0l0,0c0.6,0.9,1.2,1.7,1.8,2.4l0.1,0.1c0.3,0.4,0.6,0.7,0.9,1
	l0.1,0.1c0.7,0.7,1.5,1.4,2.2,2.1l0.1,0.1c0.4,0.3,0.7,0.6,1.1,0.9l0.1,0.1c0.8,0.6,1.7,1.1,2.6,1.6c0.1,0,0.1,0.1,0.2,0.1
	c0.4,0.2,0.8,0.4,1.2,0.6c0.1,0,0.1,0.1,0.2,0.1c0.9,0.4,1.8,0.8,2.8,1.1c0.1,0,0.2,0.1,0.3,0.1c0.4,0.1,0.8,0.2,1.2,0.3
	c0.1,0,0.2,0.1,0.3,0.1c1,0.2,2,0.4,3,0.6c0.1,0,0.3,0,0.4,0c0.4,0,0.8,0.1,1.2,0.1c0.1,0,0.3,0,0.4,0c0.5,0,1,0,1.5,0l0,0l0,0
	c8,0,15.1-3.6,19.9-9.3c0.7-0.8,1.3-1.6,1.9-2.5C221.1,34.6,222.5,30,222.9,26z"/>
<path class="st1" d="M218.7,9.8C214.1,2.7,206.1-2,196.9-2c-9.1,0-17.1,4.7-21.8,11.8c-2.3,3.6-3.8,7.8-4.1,12.3h8.3h0.2
	c0.9-8.8,8.4-15.7,17.5-15.7s16.5,6.9,17.5,15.7h0.2h8.3C222.5,17.6,221.1,13.4,218.7,9.8z"/>
<g>
	<path class="st2" d="M235.3,10.5h6.7c5.4,0,9.4,2.6,9.4,7.8c0,5.3-3.6,8.3-9.9,8.3h-3.2v10.9h-3.1L235.3,10.5L235.3,10.5z
		 M241.6,23.9c4.7,0,6.7-1.9,6.7-5.5c0-3.1-1.8-5.2-6.5-5.2h-3.3v10.7H241.6z"/>
	<path class="st2" d="M263,10.5h7.3c5.6,0,8.9,2.6,8.9,7.1s-3.3,6.8-7.6,7v0.1c0.5,0.4,1.3,1.2,2.8,3.4l6.7,9.3h-3.7l-5.4-7.6
		c-3.1-4.4-3.6-4.8-5.5-4.8h-0.4v12.4H263V10.5z M270.2,22.5c4,0,5.8-1.7,5.8-4.7s-1.9-4.6-6.1-4.6h-3.8v9.2h4.1V22.5z"/>
	<path class="st2" d="M290.3,24c0-7.4,4.9-14,13.2-14s13.2,6.5,13.2,13.9s-4.9,14-13.2,14S290.3,31.4,290.3,24z M313.4,24
		c0-6.1-3.4-11.3-9.9-11.3c-6.4,0-9.9,5.2-9.9,11.3s3.4,11.3,9.9,11.3C309.9,35.3,313.4,30.1,313.4,24z"/>
	<path class="st2" d="M324.6,10.5h3.4l6.9,18.5c0.8,2.1,1.3,3.9,1.6,4.7h0.1c0.3-0.9,0.8-2.6,1.6-4.7l6.7-18.5h3.1l-10,26.9h-3.1
		L324.6,10.5z"/>
	<path class="st2" d="M366,10.5h3.1l10.3,26.9H376l-2.5-6.7h-12.2l-2.5,6.7h-3.1L366,10.5z M372.5,28.1l-3.4-9.2
		c-0.8-2.3-1.2-3.4-1.7-4.6h-0.1c-0.4,1.3-0.9,2.6-1.7,4.6l-3.4,9.2C362.2,28.1,372.5,28.1,372.5,28.1z"/>
	<path class="st2" d="M387.6,23.9c0-7.3,4.9-13.9,13.2-13.9c3.4,0,5.6,0.8,7.6,2l-1.6,2.4c-1.6-1.1-3.5-1.8-6.1-1.8
		c-6.5,0-9.8,5.3-9.8,11.1c0,5.9,3.2,11.4,9.9,11.4c2.9,0,5-1,6.6-2.3l1.5,2.3c-1.4,1.3-4.4,2.7-8.1,2.7
		C392.3,37.9,387.6,31.2,387.6,23.9z"/>
	<path class="st2" d="M427,10.5h3.1l10.3,26.9H437l-2.5-6.7h-12.2l-2.5,6.7h-3.1L427,10.5z M433.5,28.1l-3.4-9.2
		c-0.8-2.3-1.2-3.4-1.7-4.6h-0.1c-0.4,1.3-0.9,2.6-1.7,4.6l-3.4,9.2C423.2,28.1,433.5,28.1,433.5,28.1z"/>
	<path class="st2" d="M452.3,10.5h3.1L468,28.8c1.3,1.8,2,3.1,2.5,4h0.1c0-0.5-0.2-1.7-0.2-3.6V10.5h2.9v26.9h-2.9l-13.3-19.2
		c-0.8-1.1-1.6-2.6-2.1-3.5l0,0c0,0.5,0.2,1.7,0.2,2.9v19.7h-2.9L452.3,10.5L452.3,10.5z"/>
	<path class="st2" d="M485.8,23.9c0-7.3,4.9-13.9,13.2-13.9c3.4,0,5.6,0.8,7.6,2l-1.6,2.4c-1.6-1.1-3.5-1.8-6.1-1.8
		c-6.5,0-9.8,5.3-9.8,11.1c0,5.9,3.2,11.4,9.9,11.4c2.9,0,5-1,6.6-2.3l1.5,2.3c-1.4,1.3-4.4,2.7-8.1,2.7
		C490.5,37.9,485.8,31.2,485.8,23.9z"/>
	<path class="st2" d="M519.6,10.5h13.8v2.7h-10.7v8.6h9.4v2.7h-9.4v10.3h10.9v2.7h-14.1L519.6,10.5L519.6,10.5z"/>
	<path class="st2" d="M544.6,35.2l1.6-2.3c0.6,0.6,2.5,2.4,6.1,2.4c3.3,0,5.5-2.2,5.5-4.6c0-3.3-3.1-4.6-6.2-6.2
		c-3.3-1.6-6.3-3.4-6.3-7.6c0-4.4,3.7-6.9,7.8-6.9c4,0,6.2,1.5,7.1,2.1l-1.5,2.3c-0.9-0.7-2.7-1.9-5.6-1.9c-2.7,0-4.7,1.6-4.7,4.1
		c0,2.7,2.2,3.9,4.8,5.2c3.6,1.7,7.7,3.5,7.7,8.8c0,4.2-3.6,7.2-8.8,7.2C548.1,37.9,545.6,36.1,544.6,35.2z"/>
</g>
</svg>
