<svg width="615" height="134" viewBox="0 0 615 134" fill="none" xmlns="http://www.w3.org/2000/svg">
<path d="M41.03 52.59C47.05 53.57 50.2 57.21 50.2 63.37C50.2 71.98 44.11 76.81 34.17 76.81C27.38 76.81 21.57 74.36 18.28 70.65L22.83 65.68C25.63 68.55 28.78 70.44 33.75 70.44C38.16 70.44 42.08 68.83 42.08 63.02C42.08 58.05 38.93 55.81 33.54 55.81C31.86 55.81 30.46 55.95 28.5 56.3V50.56L32.35 50.21C38.09 49.65 41.1 46.57 41.1 42.02C41.1 38.52 39.42 35.93 34.52 35.93C29.9 35.93 27.52 37.26 27.52 42.86L20.1 42.09C20.1 31.8 28.01 29.91 34.94 29.91C45.09 29.91 49.08 34.39 49.08 41.25C49.08 46.92 45.79 50.7 41.03 52.31V52.59ZM78.5566 71.84C64.6966 71.84 61.1966 63.16 61.1966 51.19C61.1966 39.15 65.6066 29.91 79.3266 29.91C92.9066 29.91 96.4066 38.73 96.4066 50.21C96.4066 62.32 92.3466 71.84 78.5566 71.84ZM78.8366 65.68C85.6966 65.68 87.9366 60.43 87.9366 50.63C87.9366 41.04 85.9766 36.07 79.1166 36.07C72.1866 36.07 69.6666 41.11 69.6666 51.19C69.6666 60.5 71.8366 65.68 78.8366 65.68ZM115.6 49.65C117.63 48.32 120.57 47.06 124.35 47.06C132.61 47.06 137.93 52.03 137.93 61.34C137.93 69.88 132.19 76.81 121.48 76.81C114.41 76.81 108.46 74.43 104.89 70.65L109.51 65.61C112.31 68.48 115.95 70.37 120.99 70.37C125.54 70.37 129.81 67.71 129.81 61.62C129.81 54.97 125.4 53.36 122.04 53.36C118.54 53.36 116.09 54.83 114.2 56.51L108.6 54.06L110.14 30.96H128.55C129.25 30.96 129.39 30.75 129.53 30.19L130.51 26.34L135.34 25.99V37.68H116.58L115.6 49.65Z" fill="#E0A619"/>
<path d="M1.01086 105.04L1.95586 104.935C2.16586 104.905 2.19586 104.86 2.19586 104.635V96.52C2.19586 96.295 2.16586 96.25 1.95586 96.22L1.01086 96.115V95.14H5.70586C8.27086 95.14 8.99086 96.31 8.99086 97.795C8.99086 99.22 8.07586 100.015 7.16086 100.315V100.36C8.87086 100.555 9.68086 101.5 9.68086 103C9.68086 105.22 7.98586 106 5.63086 106H1.01086V105.04ZM5.37586 104.695C6.81586 104.695 7.86586 104.41 7.86586 102.895C7.86586 101.515 6.87586 101.095 5.64586 101.095H3.93586V104.695H5.37586ZM4.97086 99.805C6.11086 99.805 7.28086 99.52 7.28086 98.05C7.28086 96.73 6.50086 96.445 5.19586 96.445H3.93586V99.805H4.97086ZM12.2743 105.04L13.2193 104.935C13.4293 104.905 13.4593 104.86 13.4593 104.635V96.52C13.4593 96.295 13.4293 96.25 13.2193 96.22L12.2743 96.115V95.14H16.6993V96.115L15.4543 96.235C15.2293 96.25 15.2143 96.31 15.2143 96.52V104.725H18.5743C18.7393 104.725 18.7843 104.71 18.8143 104.56L19.0543 103.135H20.3143V106H12.2743V105.04ZM22.7907 105.04L23.7357 104.935C23.9457 104.905 23.9757 104.86 23.9757 104.635V96.52C23.9757 96.295 23.9457 96.25 23.7357 96.22L22.7907 96.115V95.14H30.5007V97.84L29.2257 97.78L29.0157 96.625C28.9857 96.475 28.9257 96.43 28.7607 96.43H25.7307V99.88H29.5407V101.185H25.7307V104.725H29.0907C29.2557 104.725 29.3007 104.71 29.3307 104.56L29.5707 103.24H30.8307V106H22.7907V105.04ZM33.5639 96.52C33.5039 96.34 33.3839 96.31 33.2039 96.265L32.5289 96.1L32.6789 95.14H36.5939V96.1L35.3639 96.235L37.9289 104.485H37.9889L40.5089 96.235L39.3089 96.1L39.4589 95.14H42.9839V96.1L42.3539 96.265C42.1739 96.31 42.0389 96.37 41.9789 96.55L39.0689 106H36.7139L33.5639 96.52ZM57.1113 96.505C57.1113 96.28 57.0813 96.235 56.8713 96.205L55.9263 96.1V95.14H59.9313V96.1L58.9263 96.22C58.7013 96.25 58.6863 96.28 58.6863 96.505V102.265C58.6863 104.965 57.1713 106.18 54.5763 106.18C51.7113 106.18 50.5413 104.86 50.5413 102.22V96.505C50.5413 96.28 50.5113 96.235 50.3013 96.205L49.3563 96.1V95.14H53.5413V96.1L52.5363 96.22C52.3113 96.25 52.2963 96.28 52.2963 96.505V101.965C52.2963 103.87 52.9563 104.725 54.6663 104.725C56.3613 104.725 57.1113 104.02 57.1113 102.01V96.505ZM65.108 97.42V104.62C65.108 104.86 65.123 104.89 65.348 104.92L66.353 105.04V106H62.498V105.04L63.443 104.935C63.653 104.905 63.683 104.86 63.683 104.635V96.505C63.683 96.28 63.653 96.235 63.443 96.205L62.498 96.1V95.125H65.753L70.838 103.675V96.505C70.838 96.28 70.808 96.235 70.598 96.205L69.653 96.1V95.14H73.508V96.1L72.503 96.22C72.278 96.25 72.263 96.28 72.263 96.505V106H70.313L65.108 97.42ZM76.1345 105.04L77.0795 104.935C77.2895 104.905 77.3195 104.86 77.3195 104.635V96.52C77.3195 96.295 77.2895 96.25 77.0795 96.22L76.1345 96.115V95.14H80.7695C84.5345 95.14 86.1545 97.165 86.1545 100.405C86.1545 103.735 84.3995 106 80.5145 106H76.1345V105.04ZM80.4095 104.695C83.1845 104.695 84.3545 103.105 84.3545 100.57C84.3545 97.465 83.0345 96.445 80.4995 96.445H79.0745V104.695H80.4095ZM88.7456 105.04L89.6906 104.935C89.9006 104.905 89.9306 104.86 89.9306 104.635V96.52C89.9306 96.295 89.9006 96.25 89.6906 96.22L88.7456 96.115V95.14H96.4556V97.84L95.1806 97.78L94.9706 96.625C94.9406 96.475 94.8806 96.43 94.7156 96.43H91.6856V99.88H95.4956V101.185H91.6856V104.725H95.0456C95.2106 104.725 95.2556 104.71 95.2856 104.56L95.5256 103.24H96.7856V106H88.7456V105.04ZM104.703 105.055L105.693 104.92L104.568 102.085C104.388 101.62 104.148 101.44 103.638 101.44H102.363V104.62C102.363 104.86 102.378 104.89 102.603 104.92L103.563 105.04V106H99.4378V105.04L100.383 104.935C100.593 104.905 100.623 104.86 100.623 104.635V96.52C100.623 96.295 100.593 96.25 100.383 96.22L99.4378 96.115V95.14H104.238C106.938 95.14 107.658 96.61 107.658 98.11C107.658 99.685 106.818 100.54 105.633 101.005C106.098 101.23 106.248 101.59 106.533 102.31L107.433 104.605C107.523 104.83 107.658 104.86 107.883 104.89L108.798 105.04V106H104.703V105.055ZM103.473 100.165C104.748 100.165 105.843 99.82 105.843 98.185C105.843 96.805 105.003 96.445 103.368 96.445H102.363V100.165H103.473ZM116.308 96.835C116.278 96.67 116.248 96.595 116.158 96.55C115.978 96.445 115.513 96.31 114.838 96.31C113.458 96.31 112.783 96.925 112.783 97.87C112.783 99.01 113.833 99.34 115.003 99.7C116.473 100.15 118.138 100.66 118.138 102.91C118.138 105.295 116.278 106.18 114.073 106.18C112.708 106.18 111.313 105.835 110.803 105.595V102.955H112.078L112.378 104.305C112.423 104.5 112.438 104.545 112.633 104.605C112.843 104.665 113.413 104.83 114.163 104.83C115.573 104.83 116.398 104.29 116.398 103.135C116.398 101.935 115.363 101.605 114.208 101.26C112.723 100.825 111.043 100.405 111.043 98.125C111.043 95.92 112.738 94.945 114.913 94.945C116.188 94.945 117.238 95.275 117.808 95.5V98.2L116.518 98.08L116.308 96.835ZM123.012 105.535C121.407 104.62 120.687 102.82 120.687 100.54C120.687 97.36 122.487 94.945 125.967 94.945C126.477 94.945 126.957 95.005 127.392 95.11L127.782 94.165H129.387L128.757 95.665C130.272 96.595 130.962 98.35 130.962 100.375C130.962 103.9 129.252 106.18 125.757 106.18C125.277 106.18 124.827 106.135 124.422 106.045L123.957 107.17H122.337L123.012 105.535ZM122.502 100.525C122.502 102.175 122.922 103.315 123.657 103.99L126.807 96.505C126.537 96.445 126.252 96.4 125.952 96.4C123.927 96.4 122.502 97.765 122.502 100.525ZM125.817 104.725C127.797 104.725 129.162 103.48 129.162 100.51C129.162 98.98 128.787 97.885 128.112 97.21L125.007 104.65C125.262 104.695 125.532 104.725 125.817 104.725ZM142.866 101.905C142.686 101.92 142.626 101.965 142.626 102.115V105.52C141.606 106.015 140.136 106.18 138.921 106.18C134.841 106.18 133.386 103.765 133.386 100.51C133.386 97.33 135.186 94.945 138.876 94.945C140.076 94.945 141.396 95.23 142.236 95.785V98.35L140.946 98.245L140.706 96.88C140.676 96.715 140.646 96.64 140.496 96.595C140.031 96.445 139.371 96.325 138.771 96.325C136.581 96.325 135.216 97.87 135.216 100.495C135.216 103.255 136.551 104.815 139.011 104.815C139.551 104.815 140.241 104.74 140.676 104.635C140.811 104.605 140.886 104.56 140.886 104.38V101.995H138.996L139.191 100.87H143.496V101.845L142.866 101.905ZM146.696 105.025L148.241 104.92C148.451 104.905 148.481 104.845 148.481 104.62V96.43H146.471C146.306 96.43 146.261 96.445 146.231 96.595L145.991 97.9H144.731V95.14H153.986V97.9H152.741L152.501 96.595C152.471 96.445 152.426 96.43 152.261 96.43H150.236V104.62C150.236 104.83 150.251 104.89 150.476 104.905L152.126 105.025V106H146.696V105.025ZM34.4741 125.04L35.7041 124.905L35.0141 122.88H31.0091L30.3191 124.905L31.5191 125.04V126H27.7691V125.055L28.4141 124.89C28.5941 124.845 28.7291 124.785 28.7891 124.605L32.0891 115.14H34.2041L37.5191 124.635C37.5791 124.815 37.6991 124.845 37.8791 124.89L38.5691 125.055V126H34.4741V125.04ZM33.0041 116.805L31.3991 121.56H34.6391L33.0491 116.805H33.0041ZM40.6454 125.04L41.5904 124.935C41.8004 124.905 41.8304 124.86 41.8304 124.635V116.52C41.8304 116.295 41.8004 116.25 41.5904 116.22L40.6454 116.115V115.14H48.2954V117.84L47.0204 117.78L46.8104 116.625C46.7804 116.475 46.7204 116.43 46.5554 116.43H43.5854V119.85H47.3354V121.155H43.5854V124.62C43.5854 124.86 43.6004 124.905 43.8254 124.92L46.0304 125.04V126H40.6454V125.04ZM55.3355 125.04L56.2805 124.935C56.4905 124.905 56.5205 124.86 56.5205 124.635V116.52C56.5205 116.295 56.4905 116.25 56.2805 116.22L55.3355 116.115V115.14H63.0455V117.84L61.7705 117.78L61.5605 116.625C61.5305 116.475 61.4705 116.43 61.3055 116.43H58.2755V119.88H62.0855V121.185H58.2755V124.725H61.6355C61.8005 124.725 61.8455 124.71 61.8755 124.56L62.1155 123.24H63.3755V126H55.3355V125.04ZM68.6377 117.42V124.62C68.6377 124.86 68.6527 124.89 68.8777 124.92L69.8827 125.04V126H66.0277V125.04L66.9727 124.935C67.1827 124.905 67.2127 124.86 67.2127 124.635V116.505C67.2127 116.28 67.1827 116.235 66.9727 116.205L66.0277 116.1V115.125H69.2827L74.3677 123.675V116.505C74.3677 116.28 74.3377 116.235 74.1277 116.205L73.1827 116.1V115.14H77.0377V116.1L76.0327 116.22C75.8077 116.25 75.7927 116.28 75.7927 116.505V126H73.8427L68.6377 117.42ZM84.0722 125.04L85.0172 124.935C85.2272 124.905 85.2572 124.86 85.2572 124.635V116.52C85.2572 116.295 85.2272 116.25 85.0172 116.22L84.0722 116.115V115.14H88.4972V116.115L87.2522 116.235C87.0272 116.25 87.0122 116.31 87.0122 116.52V124.725H90.3722C90.5372 124.725 90.5822 124.71 90.6122 124.56L90.8522 123.135H92.1122V126H84.0722V125.04ZM100.169 125.04L101.114 124.935C101.294 124.92 101.354 124.86 101.354 124.665V121.305H98.2186L96.3436 124.905L97.4536 125.04V126H93.8986V125.04L94.4686 124.905C94.7836 124.83 94.8736 124.71 95.0386 124.41L99.3136 116.235L98.1586 116.115V115.14H107.819V117.84L106.544 117.78L106.349 116.67C106.319 116.46 106.259 116.43 106.064 116.43H103.049V119.985H106.859V121.305H103.049V124.725H106.409C106.574 124.725 106.619 124.71 106.649 124.56L106.889 123.24H108.149V126H100.169V125.04ZM100.664 116.43L98.8186 119.985H101.354V116.43H100.664ZM119.737 121.905C119.557 121.92 119.497 121.965 119.497 122.115V125.52C118.477 126.015 117.007 126.18 115.792 126.18C111.712 126.18 110.257 123.765 110.257 120.51C110.257 117.33 112.057 114.945 115.747 114.945C116.947 114.945 118.267 115.23 119.107 115.785V118.35L117.817 118.245L117.577 116.88C117.547 116.715 117.517 116.64 117.367 116.595C116.902 116.445 116.242 116.325 115.642 116.325C113.452 116.325 112.087 117.87 112.087 120.495C112.087 123.255 113.422 124.815 115.882 124.815C116.422 124.815 117.112 124.74 117.547 124.635C117.682 124.605 117.757 124.56 117.757 124.38V121.995H115.867L116.062 120.87H120.367V121.845L119.737 121.905ZM122.609 125.04L123.554 124.935C123.764 124.905 123.794 124.86 123.794 124.635V116.52C123.794 116.295 123.764 116.25 123.554 116.22L122.609 116.115V115.14H130.319V117.84L129.044 117.78L128.834 116.625C128.804 116.475 128.744 116.43 128.579 116.43H125.549V119.88H129.359V121.185H125.549V124.725H128.909C129.074 124.725 129.119 124.71 129.149 124.56L129.389 123.24H130.649V126H122.609V125.04Z" fill="black"/>
<path d="M289.1 65.75L298.48 56.58C305.34 49.93 309.47 46.5 309.47 41.74C309.47 38.24 307.72 35.93 302.82 35.93C298.13 35.93 295.96 37.19 295.96 42.86L288.61 42.09C288.61 31.59 296.45 29.91 303.38 29.91C313.74 29.91 317.66 34.46 317.66 41.04C317.66 48.11 312.13 52.8 306.81 57.91L298.9 65.47H311.99C312.69 65.47 312.83 65.33 312.97 64.63L313.95 58.89H319.69V71H289.1V65.75ZM338.805 49.65C340.835 48.32 343.775 47.06 347.555 47.06C355.815 47.06 361.135 52.03 361.135 61.34C361.135 69.88 355.395 76.81 344.685 76.81C337.615 76.81 331.665 74.43 328.095 70.65L332.715 65.61C335.515 68.48 339.155 70.37 344.195 70.37C348.745 70.37 353.015 67.71 353.015 61.62C353.015 54.97 348.605 53.36 345.245 53.36C341.745 53.36 339.295 54.83 337.405 56.51L331.805 54.06L333.345 30.96H351.755C352.455 30.96 352.595 30.75 352.735 30.19L353.715 26.34L358.545 25.99V37.68H339.785L338.805 49.65Z" fill="#E0A619"/>
<path d="M278.226 105.04L279.171 104.935C279.381 104.905 279.411 104.86 279.411 104.635V96.52C279.411 96.295 279.381 96.25 279.171 96.22L278.226 96.115V95.14H285.876V97.84L284.601 97.78L284.391 96.625C284.361 96.475 284.301 96.43 284.136 96.43H281.166V99.85H284.916V101.155H281.166V104.62C281.166 104.86 281.181 104.905 281.406 104.92L283.611 105.04V106H278.226V105.04ZM288.493 105.04L289.588 104.935C289.798 104.92 289.828 104.86 289.828 104.635V96.505C289.828 96.28 289.798 96.22 289.588 96.205L288.493 96.1V95.14H292.978V96.1L291.823 96.22C291.598 96.25 291.583 96.28 291.583 96.505V104.62C291.583 104.86 291.598 104.89 291.823 104.92L292.978 105.04V106H288.493V105.04ZM301.46 105.04L302.39 104.89L299.72 101.185L298.61 102.43V104.62C298.61 104.86 298.625 104.89 298.85 104.92L299.855 105.04V106H295.67V105.04L296.615 104.935C296.825 104.905 296.855 104.86 296.855 104.635V96.505C296.855 96.28 296.825 96.235 296.615 96.205L295.67 96.1V95.14H299.855V96.1L298.85 96.22C298.625 96.25 298.61 96.28 298.61 96.505V100.57L302.525 96.235L301.595 96.115V95.14H305.195V96.1L304.49 96.235C304.22 96.28 304.16 96.325 304.025 96.475L300.98 99.835L304.385 104.59C304.52 104.77 304.58 104.845 304.835 104.89L305.75 105.04V106H301.46V105.04ZM312.411 105.04L313.356 104.935C313.566 104.905 313.596 104.86 313.596 104.635V96.52C313.596 96.295 313.566 96.25 313.356 96.22L312.411 96.115V95.14H320.121V97.84L318.846 97.78L318.636 96.625C318.606 96.475 318.546 96.43 318.381 96.43H315.351V99.88H319.161V101.185H315.351V104.725H318.711C318.876 104.725 318.921 104.71 318.951 104.56L319.191 103.24H320.451V106H312.411V105.04ZM325.713 97.42V104.62C325.713 104.86 325.728 104.89 325.953 104.92L326.958 105.04V106H323.103V105.04L324.048 104.935C324.258 104.905 324.288 104.86 324.288 104.635V96.505C324.288 96.28 324.258 96.235 324.048 96.205L323.103 96.1V95.125H326.358L331.443 103.675V96.505C331.443 96.28 331.413 96.235 331.203 96.205L330.258 96.1V95.14H334.113V96.1L333.108 96.22C332.883 96.25 332.868 96.28 332.868 96.505V106H330.918L325.713 97.42ZM342.708 105.025L344.253 104.92C344.463 104.905 344.493 104.845 344.493 104.62V96.43H342.483C342.318 96.43 342.273 96.445 342.243 96.595L342.003 97.9H340.743V95.14H349.998V97.9H348.753L348.513 96.595C348.483 96.445 348.438 96.43 348.273 96.43H346.248V104.62C346.248 104.83 346.263 104.89 346.488 104.905L348.138 105.025V106H342.708V105.025ZM352.338 105.04L353.433 104.935C353.643 104.92 353.673 104.86 353.673 104.635V96.505C353.673 96.28 353.643 96.22 353.433 96.205L352.338 96.1V95.14H356.823V96.1L355.668 96.22C355.443 96.25 355.428 96.28 355.428 96.505V104.62C355.428 104.86 355.443 104.89 355.668 104.92L356.823 105.04V106H352.338V105.04ZM359.515 105.04L360.46 104.935C360.67 104.905 360.7 104.86 360.7 104.635V96.52C360.7 96.295 360.67 96.25 360.46 96.22L359.515 96.115V95.14H364.15C367.915 95.14 369.535 97.165 369.535 100.405C369.535 103.735 367.78 106 363.895 106H359.515V105.04ZM363.79 104.695C366.565 104.695 367.735 103.105 367.735 100.57C367.735 97.465 366.415 96.445 363.88 96.445H362.455V104.695H363.79ZM246.376 125.04L247.321 124.935C247.531 124.905 247.561 124.86 247.561 124.635V116.52C247.561 116.295 247.531 116.25 247.321 116.22L246.376 116.115V115.14H251.191C253.966 115.14 254.806 116.61 254.806 118.335C254.806 120.93 253.231 121.935 250.696 121.935H249.301V124.62C249.301 124.86 249.316 124.905 249.541 124.92L251.686 125.04V126H246.376V125.04ZM250.486 120.645C251.791 120.645 252.991 120.36 252.991 118.425C252.991 116.895 252.121 116.445 250.651 116.445H249.301V120.645H250.486ZM261.985 125.04L263.215 124.905L262.525 122.88H258.52L257.83 124.905L259.03 125.04V126H255.28V125.055L255.925 124.89C256.105 124.845 256.24 124.785 256.3 124.605L259.6 115.14H261.715L265.03 124.635C265.09 124.815 265.21 124.845 265.39 124.89L266.08 125.055V126H261.985V125.04ZM260.515 116.805L258.91 121.56H262.15L260.56 116.805H260.515ZM262.135 113.385C262.135 114.255 261.52 114.81 260.62 114.81C259.705 114.81 259.09 114.27 259.09 113.415C259.09 112.485 259.78 111.945 260.62 111.945C261.46 111.945 262.135 112.47 262.135 113.385ZM260.62 114C260.995 114 261.22 113.805 261.22 113.385C261.22 112.95 260.98 112.755 260.62 112.755C260.26 112.755 260.005 112.95 260.005 113.4C260.005 113.805 260.23 114 260.62 114ZM272.894 116.52C272.834 116.34 272.714 116.31 272.534 116.265L271.859 116.1L272.009 115.14H275.924V116.1L274.694 116.235L277.259 124.485H277.319L279.839 116.235L278.639 116.1L278.789 115.14H282.314V116.1L281.684 116.265C281.504 116.31 281.369 116.37 281.309 116.55L278.399 126H276.044L272.894 116.52ZM284.413 125.04L285.358 124.935C285.568 124.905 285.598 124.86 285.598 124.635V116.52C285.598 116.295 285.568 116.25 285.358 116.22L284.413 116.115V115.14H292.123V117.84L290.848 117.78L290.638 116.625C290.608 116.475 290.548 116.43 290.383 116.43H287.353V119.88H291.163V121.185H287.353V124.725H290.713C290.878 124.725 290.923 124.71 290.953 124.56L291.193 123.24H292.453V126H284.413V125.04ZM298.481 116.49C298.481 116.295 298.436 116.235 298.241 116.22L296.936 116.1V115.14H301.481V116.1L300.476 116.22C300.251 116.25 300.236 116.28 300.236 116.505V123.705C300.236 125.385 299.471 126.18 297.626 126.18C296.456 126.18 295.361 125.865 295.016 125.64V123.315L296.291 123.405L296.456 124.455C296.471 124.56 296.501 124.62 296.621 124.665C296.741 124.71 297.071 124.8 297.476 124.8C298.271 124.8 298.481 124.455 298.481 123.645V116.49ZM303.938 125.04L304.883 124.935C305.093 124.905 305.123 124.86 305.123 124.635V116.52C305.123 116.295 305.093 116.25 304.883 116.22L303.938 116.115V115.14H308.363V116.115L307.118 116.235C306.893 116.25 306.878 116.31 306.878 116.52V124.725H310.238C310.403 124.725 310.448 124.71 310.478 124.56L310.718 123.135H311.978V126H303.938V125.04ZM314.454 125.04L315.399 124.935C315.609 124.905 315.639 124.86 315.639 124.635V116.52C315.639 116.295 315.609 116.25 315.399 116.22L314.454 116.115V115.14H322.164V117.84L320.889 117.78L320.679 116.625C320.649 116.475 320.589 116.43 320.424 116.43H317.394V119.88H321.204V121.185H317.394V124.725H320.754C320.919 124.725 320.964 124.71 320.994 124.56L321.234 123.24H322.494V126H314.454V125.04ZM335.044 116.835C335.014 116.67 334.984 116.595 334.894 116.55C334.714 116.445 334.249 116.31 333.574 116.31C332.194 116.31 331.519 116.925 331.519 117.87C331.519 119.01 332.569 119.34 333.739 119.7C335.209 120.15 336.874 120.66 336.874 122.91C336.874 125.295 335.014 126.18 332.809 126.18C331.444 126.18 330.049 125.835 329.539 125.595V122.955H330.814L331.114 124.305C331.159 124.5 331.174 124.545 331.369 124.605C331.579 124.665 332.149 124.83 332.899 124.83C334.309 124.83 335.134 124.29 335.134 123.135C335.134 121.935 334.099 121.605 332.944 121.26C331.459 120.825 329.779 120.405 329.779 118.125C329.779 115.92 331.474 114.945 333.649 114.945C334.924 114.945 335.974 115.275 336.544 115.5V118.2L335.254 118.08L335.044 116.835ZM340.928 125.04L342.383 124.935C342.593 124.92 342.623 124.86 342.623 124.635V121.86L339.638 116.52C339.548 116.355 339.458 116.31 339.278 116.265L338.603 116.1L338.753 115.14H342.548V116.1L341.408 116.235L343.538 120.33H343.613L345.758 116.235L344.633 116.1L344.783 115.14H348.173V116.1L347.543 116.265C347.378 116.31 347.258 116.385 347.168 116.55L344.378 121.83V124.62C344.378 124.86 344.393 124.905 344.618 124.92L346.163 125.04V126H340.928V125.04ZM358.891 121.905C358.711 121.92 358.651 121.965 358.651 122.115V125.52C357.631 126.015 356.161 126.18 354.946 126.18C350.866 126.18 349.411 123.765 349.411 120.51C349.411 117.33 351.211 114.945 354.901 114.945C356.101 114.945 357.421 115.23 358.261 115.785V118.35L356.971 118.245L356.731 116.88C356.701 116.715 356.671 116.64 356.521 116.595C356.056 116.445 355.396 116.325 354.796 116.325C352.606 116.325 351.241 117.87 351.241 120.495C351.241 123.255 352.576 124.815 355.036 124.815C355.576 124.815 356.266 124.74 356.701 124.635C356.836 124.605 356.911 124.56 356.911 124.38V121.995H355.021L355.216 120.87H359.521V121.845L358.891 121.905ZM361.763 125.04L362.708 124.935C362.918 124.905 362.948 124.86 362.948 124.635V116.52C362.948 116.295 362.918 116.25 362.708 116.22L361.763 116.115V115.14H369.473V117.84L368.198 117.78L367.988 116.625C367.958 116.475 367.898 116.43 367.733 116.43H364.703V119.88H368.513V121.185H364.703V124.725H368.063C368.228 124.725 368.273 124.71 368.303 124.56L368.543 123.24H369.803V126H361.763V125.04ZM378.95 125.04L379.895 124.935C380.105 124.905 380.135 124.86 380.135 124.635V121.065H375.395V124.62C375.395 124.86 375.41 124.89 375.635 124.92L376.64 125.04V126H372.455V125.04L373.4 124.935C373.61 124.905 373.64 124.86 373.64 124.635V116.505C373.64 116.28 373.61 116.235 373.4 116.205L372.455 116.1V115.14H376.64V116.1L375.635 116.22C375.41 116.25 375.395 116.28 375.395 116.505V119.745H380.135V116.505C380.135 116.28 380.105 116.235 379.895 116.205L378.95 116.1V115.14H383.075V116.1L382.13 116.22C381.905 116.25 381.89 116.28 381.89 116.505V124.62C381.89 124.86 381.905 124.89 382.13 124.92L383.075 125.04V126H378.95V125.04ZM393.448 116.505C393.448 116.28 393.418 116.235 393.208 116.205L392.263 116.1V115.14H396.268V116.1L395.263 116.22C395.038 116.25 395.023 116.28 395.023 116.505V122.265C395.023 124.965 393.508 126.18 390.913 126.18C388.048 126.18 386.878 124.86 386.878 122.22V116.505C386.878 116.28 386.848 116.235 386.638 116.205L385.693 116.1V115.14H389.878V116.1L388.873 116.22C388.648 116.25 388.633 116.28 388.633 116.505V121.965C388.633 123.87 389.293 124.725 391.003 124.725C392.698 124.725 393.448 124.02 393.448 122.01V116.505ZM403.855 116.835C403.825 116.67 403.795 116.595 403.705 116.55C403.525 116.445 403.06 116.31 402.385 116.31C401.005 116.31 400.33 116.925 400.33 117.87C400.33 119.01 401.38 119.34 402.55 119.7C404.02 120.15 405.685 120.66 405.685 122.91C405.685 125.295 403.825 126.18 401.62 126.18C400.255 126.18 398.86 125.835 398.35 125.595V122.955H399.625L399.925 124.305C399.97 124.5 399.985 124.545 400.18 124.605C400.39 124.665 400.96 124.83 401.71 124.83C403.12 124.83 403.945 124.29 403.945 123.135C403.945 121.935 402.91 121.605 401.755 121.26C400.27 120.825 398.59 120.405 398.59 118.125C398.59 115.92 400.285 114.945 402.46 114.945C403.735 114.945 404.785 115.275 405.355 115.5V118.2L404.065 118.08L403.855 116.835Z" fill="black"/>
<path d="M529.1 65.75L538.48 56.58C545.34 49.93 549.47 46.5 549.47 41.74C549.47 38.24 547.72 35.93 542.82 35.93C538.13 35.93 535.96 37.19 535.96 42.86L528.61 42.09C528.61 31.59 536.45 29.91 543.38 29.91C553.74 29.91 557.66 34.46 557.66 41.04C557.66 48.11 552.13 52.8 546.81 57.91L538.9 65.47H551.99C552.69 65.47 552.83 65.33 552.97 64.63L553.95 58.89H559.69V71H529.1V65.75Z" fill="#E0A619"/>
<path d="M489.877 105.04L490.807 104.89L488.137 101.185L487.027 102.43V104.62C487.027 104.86 487.042 104.89 487.267 104.92L488.272 105.04V106H484.087V105.04L485.032 104.935C485.242 104.905 485.272 104.86 485.272 104.635V96.505C485.272 96.28 485.242 96.235 485.032 96.205L484.087 96.1V95.14H488.272V96.1L487.267 96.22C487.042 96.25 487.027 96.28 487.027 96.505V100.57L490.942 96.235L490.012 96.115V95.14H493.612V96.1L492.907 96.235C492.637 96.28 492.577 96.325 492.442 96.475L489.397 99.835L492.802 104.59C492.937 104.77 492.997 104.845 493.252 104.89L494.167 105.04V106H489.877V105.04ZM500.593 106.18C497.053 106.18 495.523 103.84 495.523 100.54C495.523 97.36 497.323 94.945 500.803 94.945C504.283 94.945 505.798 97.36 505.798 100.375C505.798 103.9 504.088 106.18 500.593 106.18ZM500.653 104.725C502.633 104.725 503.998 103.48 503.998 100.51C503.998 97.75 502.768 96.4 500.788 96.4C498.763 96.4 497.338 97.765 497.338 100.525C497.338 103.42 498.643 104.725 500.653 104.725ZM516.862 105.04L518.107 104.935C518.317 104.92 518.347 104.86 518.347 104.635V97.81H518.302L515.692 103.6H513.742L511.117 97.735H511.087V104.62C511.087 104.86 511.102 104.905 511.327 104.92L512.617 105.04V106H508.387V105.04L509.332 104.935C509.542 104.905 509.572 104.86 509.572 104.635V96.52C509.572 96.295 509.542 96.25 509.332 96.22L508.387 96.115V95.14H511.762L514.837 102.16H514.882L518.002 95.14H521.227V96.1L520.222 96.22C519.997 96.25 519.982 96.28 519.982 96.505V104.635C519.982 104.83 520.027 104.89 520.222 104.92L521.227 105.04V106H516.862V105.04ZM528.335 105.04L529.28 104.935C529.49 104.905 529.52 104.86 529.52 104.635V96.52C529.52 96.295 529.49 96.25 529.28 96.22L528.335 96.115V95.14H532.97C536.735 95.14 538.355 97.165 538.355 100.405C538.355 103.735 536.6 106 532.715 106H528.335V105.04ZM532.61 104.695C535.385 104.695 536.555 103.105 536.555 100.57C536.555 97.465 535.235 96.445 532.7 96.445H531.275V104.695H532.61ZM540.932 105.04L542.027 104.935C542.237 104.92 542.267 104.86 542.267 104.635V96.505C542.267 96.28 542.237 96.22 542.027 96.205L540.932 96.1V95.14H545.417V96.1L544.262 96.22C544.037 96.25 544.022 96.28 544.022 96.505V104.62C544.022 104.86 544.037 104.89 544.262 104.92L545.417 105.04V106H540.932V105.04ZM553.374 105.055L554.364 104.92L553.239 102.085C553.059 101.62 552.819 101.44 552.309 101.44H551.034V104.62C551.034 104.86 551.049 104.89 551.274 104.92L552.234 105.04V106H548.109V105.04L549.054 104.935C549.264 104.905 549.294 104.86 549.294 104.635V96.52C549.294 96.295 549.264 96.25 549.054 96.22L548.109 96.115V95.14H552.909C555.609 95.14 556.329 96.61 556.329 98.11C556.329 99.685 555.489 100.54 554.304 101.005C554.769 101.23 554.919 101.59 555.204 102.31L556.104 104.605C556.194 104.83 556.329 104.86 556.554 104.89L557.469 105.04V106H553.374V105.055ZM552.144 100.165C553.419 100.165 554.514 99.82 554.514 98.185C554.514 96.805 553.674 96.445 552.039 96.445H551.034V100.165H552.144ZM559.489 105.04L560.434 104.935C560.644 104.905 560.674 104.86 560.674 104.635V96.52C560.674 96.295 560.644 96.25 560.434 96.22L559.489 96.115V95.14H567.199V97.84L565.924 97.78L565.714 96.625C565.684 96.475 565.624 96.43 565.459 96.43H562.429V99.88H566.239V101.185H562.429V104.725H565.789C565.954 104.725 565.999 104.71 566.029 104.56L566.269 103.24H567.529V106H559.489V105.04ZM575.971 105.04L576.901 104.89L574.231 101.185L573.121 102.43V104.62C573.121 104.86 573.136 104.89 573.361 104.92L574.366 105.04V106H570.181V105.04L571.126 104.935C571.336 104.905 571.366 104.86 571.366 104.635V96.505C571.366 96.28 571.336 96.235 571.126 96.205L570.181 96.1V95.14H574.366V96.1L573.361 96.22C573.136 96.25 573.121 96.28 573.121 96.505V100.57L577.036 96.235L576.106 96.115V95.14H579.706V96.1L579.001 96.235C578.731 96.28 578.671 96.325 578.536 96.475L575.491 99.835L578.896 104.59C579.031 104.77 579.091 104.845 579.346 104.89L580.261 105.04V106H575.971V105.04ZM583.928 105.025L585.473 104.92C585.683 104.905 585.713 104.845 585.713 104.62V96.43H583.703C583.538 96.43 583.493 96.445 583.463 96.595L583.223 97.9H581.963V95.14H591.218V97.9H589.973L589.733 96.595C589.703 96.445 589.658 96.43 589.493 96.43H587.468V104.62C587.468 104.83 587.483 104.89 587.708 104.905L589.358 105.025V106H583.928V105.025ZM593.573 105.04L594.518 104.935C594.728 104.905 594.758 104.86 594.758 104.635V96.52C594.758 96.295 594.728 96.25 594.518 96.22L593.573 96.115V95.14H601.283V97.84L600.008 97.78L599.798 96.625C599.768 96.475 599.708 96.43 599.543 96.43H596.513V99.88H600.323V101.185H596.513V104.725H599.873C600.038 104.725 600.083 104.71 600.113 104.56L600.353 103.24H601.613V106H593.573V105.04ZM476.28 125.04L477.225 124.935C477.435 124.905 477.465 124.86 477.465 124.635V116.52C477.465 116.295 477.435 116.25 477.225 116.22L476.28 116.115V115.14H481.095C483.87 115.14 484.71 116.61 484.71 118.335C484.71 120.93 483.135 121.935 480.6 121.935H479.205V124.62C479.205 124.86 479.22 124.905 479.445 124.92L481.59 125.04V126H476.28V125.04ZM480.39 120.645C481.695 120.645 482.895 120.36 482.895 118.425C482.895 116.895 482.025 116.445 480.555 116.445H479.205V120.645H480.39ZM491.888 125.04L493.118 124.905L492.428 122.88H488.423L487.733 124.905L488.933 125.04V126H485.183V125.055L485.828 124.89C486.008 124.845 486.143 124.785 486.203 124.605L489.503 115.14H491.618L494.933 124.635C494.993 124.815 495.113 124.845 495.293 124.89L495.983 125.055V126H491.888V125.04ZM490.418 116.805L488.813 121.56H492.053L490.463 116.805H490.418ZM492.038 113.385C492.038 114.255 491.423 114.81 490.523 114.81C489.608 114.81 488.993 114.27 488.993 113.415C488.993 112.485 489.683 111.945 490.523 111.945C491.363 111.945 492.038 112.47 492.038 113.385ZM490.523 114C490.898 114 491.123 113.805 491.123 113.385C491.123 112.95 490.883 112.755 490.523 112.755C490.163 112.755 489.908 112.95 489.908 113.4C489.908 113.805 490.133 114 490.523 114ZM503.849 125.04L504.779 124.89L502.109 121.185L500.999 122.43V124.62C500.999 124.86 501.014 124.89 501.239 124.92L502.244 125.04V126H498.059V125.04L499.004 124.935C499.214 124.905 499.244 124.86 499.244 124.635V116.505C499.244 116.28 499.214 116.235 499.004 116.205L498.059 116.1V115.14H502.244V116.1L501.239 116.22C501.014 116.25 500.999 116.28 500.999 116.505V120.57L504.914 116.235L503.984 116.115V115.14H507.584V116.1L506.879 116.235C506.609 116.28 506.549 116.325 506.414 116.475L503.369 119.835L506.774 124.59C506.909 124.77 506.969 124.845 507.224 124.89L508.139 125.04V126H503.849V125.04ZM515.657 125.055L516.647 124.92L515.522 122.085C515.342 121.62 515.102 121.44 514.592 121.44H513.317V124.62C513.317 124.86 513.332 124.89 513.557 124.92L514.517 125.04V126H510.392V125.04L511.337 124.935C511.547 124.905 511.577 124.86 511.577 124.635V116.52C511.577 116.295 511.547 116.25 511.337 116.22L510.392 116.115V115.14H515.192C517.892 115.14 518.612 116.61 518.612 118.11C518.612 119.685 517.772 120.54 516.587 121.005C517.052 121.23 517.202 121.59 517.487 122.31L518.387 124.605C518.477 124.83 518.612 124.86 518.837 124.89L519.752 125.04V126H515.657V125.055ZM514.427 120.165C515.702 120.165 516.797 119.82 516.797 118.185C516.797 116.805 515.957 116.445 514.322 116.445H513.317V120.165H514.427ZM527.353 125.04L528.298 124.935C528.478 124.92 528.538 124.86 528.538 124.665V121.305H525.403L523.528 124.905L524.638 125.04V126H521.083V125.04L521.653 124.905C521.968 124.83 522.058 124.71 522.223 124.41L526.498 116.235L525.343 116.115V115.14H535.003V117.84L533.728 117.78L533.533 116.67C533.503 116.46 533.443 116.43 533.248 116.43H530.233V119.985H534.043V121.305H530.233V124.725H533.593C533.758 124.725 533.803 124.71 533.833 124.56L534.073 123.24H535.333V126H527.353V125.04ZM527.848 116.43L526.003 119.985H528.538V116.43H527.848ZM537.9 125.04L538.845 124.935C539.055 124.905 539.085 124.86 539.085 124.635V116.52C539.085 116.295 539.055 116.25 538.845 116.22L537.9 116.115V115.14H545.55V117.84L544.275 117.78L544.065 116.625C544.035 116.475 543.975 116.43 543.81 116.43H540.84V119.85H544.59V121.155H540.84V124.62C540.84 124.86 540.855 124.905 541.08 124.92L543.285 125.04V126H537.9V125.04ZM549.698 125.025L551.243 124.92C551.453 124.905 551.483 124.845 551.483 124.62V116.43H549.473C549.308 116.43 549.263 116.445 549.233 116.595L548.993 117.9H547.733V115.14H556.988V117.9H555.743L555.503 116.595C555.473 116.445 555.428 116.43 555.263 116.43H553.238V124.62C553.238 124.83 553.253 124.89 553.478 124.905L555.128 125.025V126H549.698V125.025ZM559.343 125.04L560.288 124.935C560.498 124.905 560.528 124.86 560.528 124.635V116.52C560.528 116.295 560.498 116.25 560.288 116.22L559.343 116.115V115.14H564.158C566.933 115.14 567.773 116.61 567.773 118.335C567.773 120.93 566.198 121.935 563.663 121.935H562.268V124.62C562.268 124.86 562.283 124.905 562.508 124.92L564.653 125.04V126H559.343V125.04ZM563.453 120.645C564.758 120.645 565.958 120.36 565.958 118.425C565.958 116.895 565.088 116.445 563.618 116.445H562.268V120.645H563.453ZM574.951 125.04L576.181 124.905L575.491 122.88H571.486L570.796 124.905L571.996 125.04V126H568.246V125.055L568.891 124.89C569.071 124.845 569.206 124.785 569.266 124.605L572.566 115.14H574.681L577.996 124.635C578.056 124.815 578.176 124.845 578.356 124.89L579.046 125.055V126H574.951V125.04ZM573.481 116.805L571.876 121.56H575.116L573.526 116.805H573.481ZM586.913 125.04L587.843 124.89L585.173 121.185L584.063 122.43V124.62C584.063 124.86 584.078 124.89 584.303 124.92L585.308 125.04V126H581.123V125.04L582.068 124.935C582.278 124.905 582.308 124.86 582.308 124.635V116.505C582.308 116.28 582.278 116.235 582.068 116.205L581.123 116.1V115.14H585.308V116.1L584.303 116.22C584.078 116.25 584.063 116.28 584.063 116.505V120.57L587.978 116.235L587.048 116.115V115.14H590.648V116.1L589.943 116.235C589.673 116.28 589.613 116.325 589.478 116.475L586.433 119.835L589.838 124.59C589.973 124.77 590.033 124.845 590.288 124.89L591.203 125.04V126H586.913V125.04ZM599.245 125.04L600.175 124.89L597.505 121.185L596.395 122.43V124.62C596.395 124.86 596.41 124.89 596.635 124.92L597.64 125.04V126H593.455V125.04L594.4 124.935C594.61 124.905 594.64 124.86 594.64 124.635V116.505C594.64 116.28 594.61 116.235 594.4 116.205L593.455 116.1V115.14H597.64V116.1L596.635 116.22C596.41 116.25 596.395 116.28 596.395 116.505V120.57L600.31 116.235L599.38 116.115V115.14H602.98V116.1L602.275 116.235C602.005 116.28 601.945 116.325 601.81 116.475L598.765 119.835L602.17 124.59C602.305 124.77 602.365 124.845 602.62 124.89L603.535 125.04V126H599.245V125.04ZM605.788 125.04L606.733 124.935C606.943 124.905 606.973 124.86 606.973 124.635V116.52C606.973 116.295 606.943 116.25 606.733 116.22L605.788 116.115V115.14H613.498V117.84L612.223 117.78L612.013 116.625C611.983 116.475 611.923 116.43 611.758 116.43H608.728V119.88H612.538V121.185H608.728V124.725H612.088C612.253 124.725 612.298 124.71 612.328 124.56L612.568 123.24H613.828V126H605.788V125.04Z" fill="black"/>
</svg>
