<svg width="644" height="422" viewBox="0 0 644 422" fill="none" xmlns="http://www.w3.org/2000/svg">
<path d="M123 15C123 6.71574 129.716 0 138 0H520V407C520 415.284 513.284 422 505 422H123V15Z" fill="#F4EAD1"/>
<path d="M193.279 174.235L196.884 173.99C197.374 173.955 197.444 173.815 197.444 173.29V155.475H193.839C193.454 155.475 193.349 155.51 193.279 155.86L192.719 158.905H188.869V151.66H211.409V158.905H207.594L207.034 155.86C206.964 155.51 206.859 155.475 206.474 155.475H202.869V173.29C202.869 173.78 202.904 173.92 203.429 173.955L207.279 174.235V177H193.279V174.235ZM227.639 177.42C219.169 177.42 215.599 171.995 215.599 164.4C215.599 156.91 219.799 151.205 228.129 151.205C236.424 151.205 239.994 156.91 239.994 163.945C239.994 172.17 235.969 177.42 227.639 177.42ZM227.849 173.115C231.769 173.115 234.429 170.7 234.429 164.26C234.429 158.205 232.014 155.615 228.059 155.615C224.034 155.615 221.199 158.275 221.199 164.295C221.199 170.595 223.824 173.115 227.849 173.115ZM257.067 168.215C256.647 167.025 256.192 166.64 255.002 166.64H253.357V173.22C253.357 173.78 253.392 173.85 253.917 173.92L256.367 174.2V177H245.202V174.2L247.407 173.955C247.932 173.885 247.967 173.78 247.967 173.255V155.37C247.967 154.845 247.897 154.74 247.407 154.67L245.202 154.425V151.66H257.137C263.437 151.66 265.292 155.02 265.292 158.66C265.292 162.265 263.402 164.19 260.672 165.38C261.687 165.87 262.142 166.71 262.702 168.18L264.627 173.185C264.837 173.71 265.152 173.78 265.677 173.85L267.847 174.2V177H260.217L257.067 168.215ZM254.967 163C257.487 163 259.727 162.405 259.727 158.975C259.727 156.28 258.222 155.475 255.107 155.475H253.357V163H254.967ZM271.821 155.37C271.681 154.95 271.401 154.88 270.981 154.775L269.406 154.39L269.756 151.66H280.361V154.39L277.526 154.705L282.776 172.205H283.056L288.131 154.705L285.331 154.39L285.681 151.66H294.746V154.39L293.276 154.775C292.856 154.88 292.541 154.985 292.401 155.44L285.996 177H278.856L271.821 155.37ZM299.098 174.27L301.303 174.025C301.793 173.955 301.863 173.85 301.863 173.325V155.37C301.863 154.845 301.758 154.705 301.303 154.67L299.098 154.425V151.66H317.718V158.73L313.868 158.555L313.378 155.895C313.308 155.545 313.168 155.44 312.783 155.44H307.288V162.335H315.478V166.22H307.288V173.255H313.553C313.938 173.255 314.043 173.22 314.113 172.87L314.673 169.79H318.488V177H299.098V174.27ZM323.841 174.27L326.046 174.025C326.536 173.955 326.606 173.85 326.606 173.325V155.37C326.606 154.845 326.501 154.705 326.046 154.67L323.841 154.425V151.66H342.461V158.73L338.611 158.555L338.121 155.895C338.051 155.545 337.911 155.44 337.526 155.44H332.031V162.335H340.221V166.22H332.031V173.255H338.296C338.681 173.255 338.786 173.22 338.856 172.87L339.416 169.79H343.231V177H323.841V174.27ZM349.264 155.37C349.124 154.95 348.844 154.88 348.424 154.775L346.849 154.39L347.199 151.66H357.804V154.39L354.969 154.705L360.219 172.205H360.499L365.574 154.705L362.774 154.39L363.124 151.66H372.189V154.39L370.719 154.775C370.299 154.88 369.984 154.985 369.844 155.44L363.439 177H356.299L349.264 155.37ZM376.541 174.27L378.746 174.025C379.236 173.955 379.306 173.85 379.306 173.325V155.37C379.306 154.845 379.201 154.705 378.746 154.67L376.541 154.425V151.66H395.161V158.73L391.311 158.555L390.821 155.895C390.751 155.545 390.611 155.44 390.226 155.44H384.731V162.335H392.921V166.22H384.731V173.255H390.996C391.381 173.255 391.486 173.22 391.556 172.87L392.116 169.79H395.931V177H376.541V174.27ZM408.109 158.73V173.29C408.109 173.85 408.144 173.92 408.669 173.99L411.014 174.27V177H401.284V174.27L403.489 174.025C403.979 173.955 404.049 173.85 404.049 173.325V155.335C404.049 154.81 404.014 154.705 403.489 154.635L401.284 154.39V151.66H409.964L420.954 169.965V155.405C420.954 154.88 420.919 154.775 420.394 154.705L418.189 154.46V151.66H427.919V154.46L425.574 154.74C425.049 154.81 425.014 154.88 425.014 155.405V177H419.274L408.109 158.73ZM436.989 174.235L440.594 173.99C441.084 173.955 441.154 173.815 441.154 173.29V155.475H437.549C437.164 155.475 437.059 155.51 436.989 155.86L436.429 158.905H432.579V151.66H455.119V158.905H451.304L450.744 155.86C450.674 155.51 450.569 155.475 450.184 155.475H446.579V173.29C446.579 173.78 446.614 173.92 447.139 173.955L450.989 174.235V177H436.989V174.235ZM169.799 221.11L172.004 220.865C172.494 220.795 172.564 220.69 172.564 220.165V200.53C172.564 200.005 172.494 199.9 172.004 199.83L169.799 199.585V197.66H180.264C189.049 197.66 192.829 202.385 192.829 209.945C192.829 217.715 188.734 223 179.669 223H169.799V221.11ZM179.634 220.445C186.319 220.445 189.504 216.665 189.504 210.4C189.504 202.595 186.004 200.18 179.844 200.18H175.784V220.445H179.634ZM212.37 221.11L215.24 220.795L213.35 215.265H203.585L201.73 220.795L204.565 221.11V223H196.515V221.145L198.02 220.76C198.58 220.62 198.755 220.515 198.895 220.095L206.595 197.66H210.655L218.495 220.13C218.635 220.55 218.915 220.62 219.335 220.725L220.91 221.11V223H212.37V221.11ZM204.39 212.71H212.58L208.52 200.39L204.39 212.71ZM226.89 221.075L230.495 220.83C230.985 220.795 231.055 220.655 231.055 220.13V200.145H225.63C225.245 200.145 225.14 200.18 225.07 200.53L224.51 203.575H222.165V197.66H243.165V203.575H240.82L240.26 200.53C240.19 200.18 240.085 200.145 239.7 200.145H234.275V220.13C234.275 220.62 234.31 220.76 234.835 220.795L238.685 221.075V223H226.89V221.075ZM259.777 223.42C251.657 223.42 248.087 217.925 248.087 210.19C248.087 202.77 252.287 197.205 260.267 197.205C268.212 197.205 271.782 202.77 271.782 209.805C271.782 218.065 267.792 223.42 259.777 223.42ZM259.952 220.725C265.027 220.725 268.457 217.365 268.457 210.155C268.457 203.435 265.272 199.9 260.197 199.9C255.052 199.9 251.412 203.47 251.412 210.19C251.412 217.225 254.807 220.725 259.952 220.725ZM289.038 221.11L291.243 220.865C291.733 220.795 291.803 220.69 291.803 220.165V200.53C291.803 200.005 291.733 199.9 291.243 199.83L289.038 199.585V197.66H306.468V203.435L304.088 203.295L303.598 200.6C303.528 200.25 303.388 200.145 303.003 200.145H295.023V208.86H304.228V211.38H295.023V220.13C295.023 220.69 295.058 220.795 295.583 220.83L300.728 221.11V223H289.038V221.11ZM323.377 223.42C315.257 223.42 311.687 217.925 311.687 210.19C311.687 202.77 315.887 197.205 323.867 197.205C331.812 197.205 335.382 202.77 335.382 209.805C335.382 218.065 331.392 223.42 323.377 223.42ZM323.552 220.725C328.627 220.725 332.057 217.365 332.057 210.155C332.057 203.435 328.872 199.9 323.797 199.9C318.652 199.9 315.012 203.47 315.012 210.19C315.012 217.225 318.407 220.725 323.552 220.725ZM354.399 221.11L357.164 220.9L354.259 213.655C353.804 212.535 353.279 212.185 351.879 212.185H348.029V220.13C348.029 220.69 348.064 220.76 348.589 220.83L350.899 221.11V223H342.079V221.11L344.284 220.865C344.774 220.795 344.844 220.69 344.844 220.165V200.53C344.844 200.005 344.774 199.9 344.284 199.83L342.079 199.585V197.66H352.789C359.089 197.66 360.699 201.16 360.699 204.52C360.699 208.265 358.669 210.33 355.834 211.345C356.919 211.87 357.269 212.535 357.794 213.9L360.174 220.025C360.384 220.585 360.734 220.76 361.259 220.83L363.394 221.145V223H354.399V221.11ZM351.249 209.665C354.574 209.665 357.339 208.685 357.339 204.625C357.339 201.055 355.029 200.215 350.759 200.215H348.029V209.665H351.249ZM378.037 220.83L382.832 216.14C386.227 212.85 388.502 210.855 388.502 208.405C388.502 206.305 387.417 205.08 384.582 205.08C381.957 205.08 380.732 205.71 380.732 208.72L377.757 208.405C377.757 203.365 381.432 202.56 384.757 202.56C389.797 202.56 391.687 204.835 391.687 208.09C391.687 211.765 388.817 214.25 386.087 216.84L382.097 220.62H389.377C389.727 220.62 389.832 220.55 389.902 220.235L390.427 217.26H392.737V223H378.037V220.83ZM406.512 223.42C399.617 223.42 398.077 218.765 398.077 213.06C398.077 207.425 400.107 202.56 406.862 202.56C413.547 202.56 415.157 207.145 415.157 212.605C415.157 218.38 413.372 223.42 406.512 223.42ZM406.617 220.83C410.607 220.83 411.832 217.75 411.832 212.85C411.832 208.055 410.782 205.255 406.792 205.255C402.767 205.255 401.402 208.09 401.402 213.235C401.402 217.785 402.557 220.83 406.617 220.83ZM420.415 220.83L425.21 216.14C428.605 212.85 430.88 210.855 430.88 208.405C430.88 206.305 429.795 205.08 426.96 205.08C424.335 205.08 423.11 205.71 423.11 208.72L420.135 208.405C420.135 203.365 423.81 202.56 427.135 202.56C432.175 202.56 434.065 204.835 434.065 208.09C434.065 211.765 431.195 214.25 428.465 216.84L424.475 220.62H431.755C432.105 220.62 432.21 220.55 432.28 220.235L432.805 217.26H435.115V223H420.415V220.83ZM443.989 212.535C445.109 211.765 446.684 211.205 448.504 211.205C452.774 211.205 455.364 213.725 455.364 218.17C455.364 222.615 452.529 225.905 447.419 225.905C444.059 225.905 441.189 224.75 439.474 222.93L441.399 220.795C442.869 222.335 444.759 223.21 447.314 223.21C449.659 223.21 452.109 221.845 452.109 218.275C452.109 214.81 449.764 213.795 447.874 213.795C445.879 213.795 444.549 214.635 443.499 215.475L441.189 214.46L441.924 203.085H451.199C451.584 203.085 451.654 203.015 451.724 202.7L452.214 200.81L454.174 200.67V205.71H444.444L443.989 212.535ZM461.768 222.86C461.803 222.685 461.768 222.58 461.593 222.51L460.368 222.02L461.138 219.115C463.378 219.185 464.953 219.465 464.953 221.355C464.953 221.985 464.708 222.615 464.393 223.21L462.363 227.13L460.718 226.535L461.768 222.86ZM258.807 267.11L261.012 266.865C261.502 266.795 261.572 266.69 261.572 266.165V246.53C261.572 246.005 261.502 245.9 261.012 245.83L258.807 245.585V243.66H269.622C276.097 243.66 278.057 247.09 278.057 251.115C278.057 257.135 274.382 259.445 268.467 259.445H264.757V266.13C264.757 266.69 264.792 266.795 265.317 266.83L270.322 267.11V269H258.807V267.11ZM268.187 256.89C271.722 256.89 274.732 256.12 274.732 251.255C274.732 247.58 272.667 246.215 268.642 246.215H264.757V256.89H268.187ZM295.432 267.11L298.302 266.795L296.412 261.265H286.647L284.792 266.795L287.627 267.11V269H279.577V267.145L281.082 266.76C281.642 266.62 281.817 266.515 281.957 266.095L289.657 243.66H293.717L301.557 266.13C301.697 266.55 301.977 266.62 302.397 266.725L303.972 267.11V269H295.432V267.11ZM287.452 258.71H295.642L291.582 246.39L287.452 258.71ZM295.012 239.425C295.012 241.525 293.612 242.82 291.547 242.82C289.482 242.82 288.082 241.56 288.082 239.53C288.082 237.29 289.622 236.1 291.547 236.1C293.507 236.1 295.012 237.22 295.012 239.425ZM291.547 241.035C292.492 241.035 293.017 240.51 293.017 239.425C293.017 238.375 292.457 237.885 291.547 237.885C290.637 237.885 290.042 238.375 290.042 239.495C290.042 240.545 290.567 241.035 291.547 241.035ZM320.337 246.53C320.197 246.11 319.917 246.04 319.497 245.935L317.922 245.55L318.272 243.66H326.462V245.55L323.592 245.865L329.997 266.235L336.542 245.865L333.707 245.55L334.057 243.66H341.687V245.55L340.217 245.935C339.797 246.04 339.482 246.18 339.342 246.6L332.132 269H327.792L320.337 246.53ZM346.809 267.11L349.014 266.865C349.504 266.795 349.574 266.69 349.574 266.165V246.53C349.574 246.005 349.504 245.9 349.014 245.83L346.809 245.585V243.66H364.379V249.435L361.999 249.295L361.509 246.6C361.439 246.25 361.299 246.145 360.914 246.145H352.794V254.965H362.139V257.485H352.794V266.515H361.684C362.069 266.515 362.174 266.48 362.244 266.13L362.804 263.085H365.149V269H346.809V267.11ZM379.876 246.46C379.876 245.97 379.771 245.83 379.316 245.795L376.341 245.55V243.66H386.001V245.55L383.656 245.83C383.131 245.9 383.096 245.97 383.096 246.46V263.855C383.096 267.635 381.381 269.42 377.286 269.42C374.626 269.42 372.281 268.685 371.546 268.195V263.365L373.926 263.505L374.276 265.92C374.311 266.165 374.416 266.305 374.696 266.41C375.081 266.55 375.886 266.83 377.111 266.83C379.281 266.83 379.876 265.815 379.876 263.645V246.46Z" fill="black"/>
</svg>
