<?xml version="1.0" encoding="utf-8"?>
<!-- Generator: Adobe Illustrator 22.1.0, SVG Export Plug-In . SVG Version: 6.00 Build 0)  -->
<svg version="1.1" id="grøn" xmlns="http://www.w3.org/2000/svg" xmlns:xlink="http://www.w3.org/1999/xlink" x="0px" y="0px"
	 viewBox="0 0 218.3 61.2" style="enable-background:new 0 0 218.3 61.2;" xml:space="preserve">
<style type="text/css">
	.st0{fill:#FFFFFF;}
</style>
<g>
	<path class="st0" d="M212,31.4c0,5.1-1.8,6.3-6.9,6.3h-5.4V25.1h5.4C210.2,25.1,212,26.3,212,31.4 M218.3,31.4
		c0-6.4-3.1-9.1-12.6-9.1h-11.6c-0.3,0-0.6,0.2-0.6,0.4v17.5c0,0.2,0.3,0.4,0.6,0.4h11.6C215.2,40.5,218.3,37.8,218.3,31.4
		 M185.8,40.2v-2.2c0-0.2-0.3-0.4-0.6-0.4h-12.7v-4.9h12.1c0.3,0,0.6-0.1,0.6-0.4V30c0-0.2-0.3-0.4-0.6-0.4h-12.1v-4.4h12.7
		c0.3,0,0.6-0.2,0.6-0.4v-2.2c0-0.2-0.2-0.4-0.6-0.4H167c-0.3,0-0.6,0.2-0.6,0.4v17.5c0,0.2,0.3,0.4,0.6,0.4h18.2
		C185.5,40.5,185.8,40.4,185.8,40.2 M160.8,24.9v-2.2c0-0.2-0.2-0.4-0.6-0.4h-22.9c-0.3,0-0.6,0.2-0.6,0.4v2.2
		c0,0.2,0.3,0.4,0.6,0.4h8.4v14.9c0,0.2,0.3,0.4,0.6,0.4h4.9c0.3,0,0.6-0.1,0.6-0.4V25.3h8.4C160.6,25.3,160.8,25.1,160.8,24.9
		 M133.3,35.2c0-4.7-4.8-5.2-9.1-5.6c-3.2-0.3-6.1-0.5-6.1-2.4c0-1.9,2.6-2.2,5.2-2.2c3,0,5.5,0.4,7.7,0.8c0,0,0.1,0,0.1,0
		c0.3,0,0.6-0.2,0.6-0.4l0.6-1.8v-0.1c0-0.3-0.3-0.5-0.7-0.5c-0.9-0.2-4.5-0.8-8.9-0.8c-5.9,0-10.7,1.2-10.7,5.6c0,4.3,5.2,5,9,5.4
		c3.4,0.4,6,0.5,6,2.5c0,1.9-2.4,2.4-5.3,2.4c-3.4,0-7.2-0.7-8-0.8c-0.1,0-0.2,0-0.3,0c-0.3,0-0.6,0.1-0.6,0.4l-0.5,1.8v0.1
		c0,0.2,0.2,0.4,0.6,0.5c0.6,0.2,4.6,0.9,9.6,0.9C128.1,40.8,133.3,39.5,133.3,35.2 M104.8,23.6c0-0.1,0-0.2,0-0.2
		c0-0.3-0.2-0.4-0.7-0.5c-0.7-0.1-4.6-1-10.1-1c-9.8,0-13.6,2.7-13.6,9.5c0,6.9,3.3,9.5,14.3,9.5c2.5,0,5.9-0.2,7.6-0.6
		c2-0.4,2.3-1,2.3-2.3v-7.8c0-0.2-0.3-0.4-0.6-0.4h-9.7c-0.3,0-0.6,0.1-0.6,0.3v2.1c0,0.2,0.3,0.3,0.6,0.4l4.3,0.4v4.8
		c0,0-1.8,0.2-3.8,0.2c-5.8,0-8.2-1.2-8.2-6.5c0-5.3,2.6-6.6,8.5-6.6c3.9,0,6.9,0.6,8,0.8c0.1,0,0.2,0,0.3,0c0.3,0,0.6-0.1,0.6-0.3
		L104.8,23.6z M73,40.2V22.7c0-0.4-0.4-0.4-0.9-0.4h-4.4c-0.4,0-0.8,0.1-0.8,0.4l0.3,15.5h-0.6l-7.9-15.6c-0.1-0.2-0.4-0.3-0.7-0.3
		h-10c-0.3,0-0.6,0.2-0.6,0.4v17.5c0,0.2,0.3,0.4,0.6,0.4h4.9c0.3,0,0.6-0.1,0.6-0.4l-0.4-14.8h1.1L62,40.1c0.1,0.2,0.4,0.4,0.7,0.4
		h9.7C72.8,40.5,73,40.4,73,40.2 M26.6,22.8v-0.1c0-0.2-0.3-0.4-0.5-0.4h-5.2c-0.4,0-0.7,0.1-0.9,0.4l-5.9,15h-1.5l-6.2-15
		c-0.1-0.3-0.4-0.4-0.9-0.4H0.5c-0.2,0-0.5,0.2-0.5,0.4c0,0,0,0.1,0,0.1l8.2,17.3c0.1,0.2,0.3,0.4,0.7,0.4h9.2
		c0.3,0,0.6-0.2,0.7-0.4L26.6,22.8z M61.6,8.9L42.8,9.2c0,0-1,0.1-2,1.2c-0.7,0.9-0.8,2.2-0.6,2.9c0.2,0.7,0.9,1.3,1.6,1.4
		c0.8,0,0.5,0,0.8,0C42.9,14.6,61.6,8.9,61.6,8.9 M35.6,48.3L33,22.5c0,0-0.1-1.4,1.4-3c1.1-1.2,2.9-1.5,3.8-1.3c1,0.2,1.9,1,2.1,2
		c0.2,1.1,0.1,0.7,0.1,1.1C40.5,21.7,35.6,48.3,35.6,48.3 M12.9,17.7l18.7-0.3c0,0,1-0.1,2-1.2c0.7-0.9,0.8-2.2,0.6-2.9
		c-0.2-0.7-0.9-1.3-1.6-1.4c-0.8,0-0.5,0-0.8,0C31.6,11.9,12.9,17.7,12.9,17.7 M34.8,1.7c0,0,2.3-2.1,4.2-1.6c1.8,0.5,2.9,1.7,3,3.1
		c0.1,1.4-0.7,3.8-2.6,4.7c-1.9,0.9-5.2,1.3-5.9-1.5C32.7,3.5,34.8,1.7,34.8,1.7"/>
	<g>
		<path class="st0" d="M15.4,60.9c-0.4,0.1-1.1,0.2-1.8,0.2c-1.3,0-3.2-0.1-3.2-2.4c0-1.9,1.1-2,2.4-2.2l2.6-0.4v-0.6
			c0-0.4,0-0.8-0.5-1c-0.2-0.1-0.6-0.1-1.2-0.1c-1,0-2,0.3-2.5,0.4c0,0-0.1,0-0.1,0c-0.1,0-0.1,0-0.1-0.1l-0.1-0.7c0,0,0,0,0,0
			c0-0.1,0.1-0.2,0.2-0.2c0.4-0.2,1.6-0.5,2.9-0.5c1,0,1.6,0.1,2,0.4c0.7,0.4,0.7,1.1,0.7,1.9v4C16.6,60.4,16.3,60.7,15.4,60.9z
			 M15.3,57l-2.4,0.4c-0.6,0.1-1.3,0.2-1.3,1.2c0,1.4,1.1,1.5,1.9,1.5c0.6,0,1.2-0.1,1.7-0.2V57z"/>
		<path class="st0" d="M24.4,60.8c0,0.1-0.1,0.1-0.1,0.1h-1.3c-0.1,0-0.1,0-0.1-0.1l-2.7-3.2h-0.5v3.1c0,0.1-0.1,0.2-0.2,0.2h-0.9
			c-0.1,0-0.2-0.1-0.2-0.2V50.5c0-0.1,0.1-0.2,0.2-0.2l0.9-0.2h0c0.1,0,0.2,0.1,0.2,0.2v6.4h0.5l2.6-3.2c0,0,0.1-0.1,0.1-0.1l1.2,0
			c0.1,0,0.1,0.1,0.1,0.1c0,0,0,0.1,0,0.1L21.2,57L24.4,60.8C24.4,60.7,24.4,60.7,24.4,60.8z"/>
		<path class="st0" d="M29.3,60.6c0,0.1-0.1,0.1-0.1,0.2c-0.3,0.1-0.9,0.3-1.7,0.3c-1.4,0-2.1-0.6-2.1-2.1v-7.8
			c0-0.1,0.1-0.2,0.2-0.2l0.9-0.2h0c0.1,0,0.2,0.1,0.2,0.2v2.3h2.2c0.1,0,0.2,0.1,0.2,0.2v0.6c0,0.1-0.1,0.2-0.2,0.2h-2.2v4.7
			c0,0.7,0.4,1,1.1,1c0.4,0,0.9-0.1,1.2-0.2c0,0,0,0,0,0c0.1,0,0.1,0.1,0.2,0.1L29.3,60.6L29.3,60.6z"/>
		<path class="st0" d="M31.7,52.1h-0.8c-0.1,0-0.2-0.1-0.2-0.2v-1.6c0-0.2,0.1-0.2,0.2-0.2h0.8c0.1,0,0.2,0.1,0.2,0.2v1.6
			C31.9,52,31.8,52.1,31.7,52.1z M31.7,60.9h-0.9c-0.1,0-0.2-0.1-0.2-0.2v-7.1c0-0.1,0.1-0.2,0.2-0.2h0.9c0.1,0,0.2,0.1,0.2,0.2v7.1
			C31.9,60.8,31.8,60.9,31.7,60.9z"/>
		<path class="st0" d="M37.7,60.7c0,0.1-0.2,0.2-0.3,0.2h-1.7c-0.1,0-0.2-0.1-0.3-0.2l-2.2-7.1c0,0,0,0,0-0.1c0-0.1,0.1-0.2,0.2-0.2
			h1c0.1,0,0.2,0.1,0.2,0.2l1.9,6.4h0.4l1.7-6.4c0-0.1,0.1-0.2,0.2-0.2h1c0.1,0,0.2,0.1,0.2,0.2c0,0,0,0,0,0.1L37.7,60.7z"/>
		<path class="st0" d="M45,60.6c0,0.1-0.1,0.1-0.1,0.2c-0.3,0.1-0.9,0.3-1.7,0.3c-1.4,0-2.1-0.6-2.1-2.1v-7.8c0-0.1,0.1-0.2,0.2-0.2
			l0.9-0.2h0c0.1,0,0.2,0.1,0.2,0.2v2.3h2.2c0.1,0,0.2,0.1,0.2,0.2v0.6c0,0.1-0.1,0.2-0.2,0.2h-2.2v4.7c0,0.7,0.4,1,1.1,1
			c0.4,0,0.9-0.1,1.2-0.2c0,0,0,0,0,0c0.1,0,0.1,0.1,0.2,0.1L45,60.6L45,60.6z"/>
		<path class="st0" d="M56.4,60.9h-0.9c-0.1,0-0.2-0.1-0.2-0.2v-5.3c0-0.9-0.3-1.2-1.2-1.2c-1.2,0-2.4,0.4-2.4,0.4v6.2
			c0,0.1-0.1,0.2-0.2,0.2h-0.9c-0.1,0-0.2-0.1-0.2-0.2V50.5c0-0.1,0.1-0.2,0.2-0.2l0.9-0.2h0c0.1,0,0.2,0.1,0.2,0.2v2.4l-0.1,0.8
			c0.7-0.2,1.9-0.4,2.7-0.4c1.6,0,2.4,0.5,2.4,2.1v5.5C56.6,60.8,56.6,60.9,56.4,60.9z"/>
		<path class="st0" d="M61.3,61.1c-2.9,0-3.3-1.8-3.3-4c0-2.2,0.4-4,3.3-4c2.9,0,3.3,1.8,3.3,4C64.6,59.3,64.3,61.1,61.3,61.1z
			 M61.3,54.2c-1.9,0-1.9,1.1-1.9,3c0,1.8,0.1,2.9,1.9,2.9c1.9,0,2-1.1,2-2.9C63.3,55.3,63.2,54.2,61.3,54.2z"/>
		<path class="st0" d="M70,60.6c0,0.1-0.1,0.1-0.1,0.2c-0.3,0.1-0.9,0.3-1.7,0.3c-1.4,0-2.1-0.6-2.1-2.1v-7.8c0-0.1,0.1-0.2,0.2-0.2
			l0.9-0.2h0c0.1,0,0.2,0.1,0.2,0.2v2.3h2.2c0.1,0,0.2,0.1,0.2,0.2v0.6c0,0.1-0.1,0.2-0.2,0.2h-2.2v4.7c0,0.7,0.4,1,1.1,1
			c0.4,0,0.9-0.1,1.2-0.2c0,0,0,0,0,0c0.1,0,0.1,0.1,0.2,0.1L70,60.6L70,60.6z"/>
		<path class="st0" d="M77.2,57.7c0,0.1-0.1,0.2-0.2,0.2h-5c0,0.8,0.2,1.2,0.5,1.6c0.4,0.5,1,0.6,1.9,0.6c0.9,0,1.4-0.2,2-0.4
			c0,0,0.1,0,0.1,0c0.1,0,0.1,0,0.2,0.1l0.2,0.6c0,0,0,0,0,0.1c0,0.1-0.1,0.1-0.2,0.2c-0.5,0.2-1.5,0.4-2.4,0.4
			c-2.7,0-3.6-1.3-3.6-4c0-2.5,0.5-4,3.3-4c1.4,0,2.3,0.4,2.8,1.2c0.4,0.7,0.5,1.6,0.5,2.6V57.7z M75.7,55.3
			c-0.2-0.9-0.7-1.2-1.8-1.2c-1.1,0-1.6,0.3-1.8,1.2c-0.1,0.5-0.1,1-0.2,1.5l3.9,0C75.8,56.4,75.8,55.9,75.7,55.3z"/>
		<path class="st0" d="M81.3,60.7c0,0.1-0.1,0.2-0.1,0.2c-0.1,0.1-0.5,0.2-1.1,0.2c-0.9,0-1.5-0.5-1.5-1.6v-9c0-0.1,0.1-0.2,0.2-0.2
			l0.9-0.2h0c0.1,0,0.2,0.1,0.2,0.2v9.1c0,0.5,0.3,0.6,0.6,0.6c0.2,0,0.4,0,0.5-0.1c0,0,0,0,0.1,0c0.1,0,0.1,0,0.1,0.1L81.3,60.7
			L81.3,60.7z"/>
		<path class="st0" d="M93.9,61.2c-0.5-0.3-1-0.8-1.5-1.5c-0.8,0.9-1.7,1.4-2.8,1.4c-1.8,0-3.1-1.3-3.1-3c0-1.3,0.8-2.3,2.4-3.1
			c-0.8-1-1.1-1.6-1.1-2.3c0-1.3,1.1-2.3,2.5-2.3c1.3,0,2.3,1,2.3,2.2c0,1-0.6,1.8-1.9,2.5l1.8,2.4c0.2-0.4,0.3-0.9,0.5-1.4l1.3,0.3
			c-0.2,1-0.5,1.6-0.9,2.2c0.4,0.6,1,1.2,1.5,1.6L93.9,61.2z M89.4,55.8c-1.2,0.7-1.7,1.4-1.7,2.2c0,1.1,0.9,2,1.8,2
			c0.7,0,1.6-0.5,2.1-1.3L89.4,55.8z M89.9,54.3c1-0.6,1.2-1,1.2-1.7s-0.5-1.2-1.1-1.2c-0.6,0-1.1,0.5-1.1,1.1
			c0,0.3,0.1,0.7,0.5,1.1L89.9,54.3z"/>
		<path class="st0" d="M106.4,60.8c0,0.1-0.1,0.1-0.1,0.1h-1.3c-0.1,0-0.1,0-0.1-0.1l-2.7-3.2h-0.5v3.1c0,0.1-0.1,0.2-0.2,0.2h-0.9
			c-0.1,0-0.2-0.1-0.2-0.2V50.5c0-0.1,0.1-0.2,0.2-0.2l0.9-0.2h0c0.1,0,0.2,0.1,0.2,0.2v6.4h0.5l2.6-3.2c0,0,0.1-0.1,0.1-0.1l1.2,0
			c0.1,0,0.1,0.1,0.1,0.1c0,0,0,0.1,0,0.1l-2.9,3.5L106.4,60.8C106.4,60.7,106.4,60.7,106.4,60.8z"/>
		<path class="st0" d="M110.2,61.1c-2.9,0-3.3-1.8-3.3-4c0-2.2,0.4-4,3.3-4c2.9,0,3.3,1.8,3.3,4C113.5,59.3,113.1,61.1,110.2,61.1z
			 M110.2,54.2c-1.9,0-1.9,1.1-1.9,3c0,1.8,0.1,2.9,1.9,2.9c1.9,0,2-1.1,2-2.9C112.1,55.3,112,54.2,110.2,54.2z"/>
		<path class="st0" d="M120.9,60.9H120c-0.1,0-0.2-0.1-0.2-0.2v-5.3c0-0.9-0.3-1.2-1.2-1.2c-1.2,0-2.4,0.4-2.4,0.4v6.2
			c0,0.1-0.1,0.2-0.2,0.2h-0.9c-0.1,0-0.2-0.1-0.2-0.2v-6c0-0.6,0.1-0.8,0.8-1.1c0.7-0.2,2-0.4,2.9-0.4c1.7,0,2.4,0.5,2.4,2.1v5.4
			C121.1,60.8,121,60.9,120.9,60.9z"/>
		<path class="st0" d="M127.3,51.1c0,0.1-0.1,0.2-0.2,0.2c0,0,0,0,0,0c-0.3,0-0.8-0.1-1.3-0.1c-0.4,0-0.6,0-0.8,0.2
			c-0.2,0.1-0.3,0.4-0.3,0.7v1.3h2c0.1,0,0.2,0.1,0.2,0.2v0.6c0,0.1-0.1,0.2-0.2,0.2h-2v6.3c0,0.1-0.1,0.2-0.2,0.2h-0.9
			c-0.1,0-0.2-0.1-0.2-0.2v-6.3h-1.1c-0.1,0-0.2-0.1-0.2-0.2v-0.6c0-0.1,0.1-0.2,0.2-0.2h1.1v-1.2c0-1.4,0.7-2,2.1-2
			c0.8,0,1.4,0.1,1.7,0.2c0.1,0,0.2,0.1,0.2,0.2v0L127.3,51.1z"/>
		<path class="st0" d="M134.1,57.7c0,0.1-0.1,0.2-0.2,0.2h-5c0,0.8,0.2,1.2,0.5,1.6c0.4,0.5,1,0.6,1.9,0.6c0.9,0,1.4-0.2,2-0.4
			c0,0,0.1,0,0.1,0c0.1,0,0.1,0,0.2,0.1l0.2,0.6c0,0,0,0,0,0.1c0,0.1-0.1,0.1-0.2,0.2c-0.5,0.2-1.5,0.4-2.4,0.4
			c-2.7,0-3.6-1.3-3.6-4c0-2.5,0.5-4,3.3-4c1.4,0,2.3,0.4,2.8,1.2c0.4,0.7,0.5,1.6,0.5,2.6V57.7z M132.7,55.3
			c-0.2-0.9-0.7-1.2-1.8-1.2c-1.1,0-1.6,0.3-1.8,1.2c-0.1,0.5-0.1,1-0.2,1.5l3.9,0C132.8,56.4,132.8,55.9,132.7,55.3z"/>
		<path class="st0" d="M139.2,54.3c-0.9,0-1.6,0.1-2.3,0.3v6.2c0,0.1-0.1,0.2-0.2,0.2h-0.9c0,0-0.2-0.1-0.2-0.2v-6.1
			c0-0.6,0.2-0.8,0.7-1c0.6-0.3,1.8-0.4,2.5-0.4h0.2c0,0,0.1,0,0.1,0c0.1,0,0.2,0,0.2,0.2v0.7C139.3,54.2,139.3,54.3,139.2,54.3z"/>
		<path class="st0" d="M146.5,57.7c0,0.1-0.1,0.2-0.2,0.2h-5c0,0.8,0.2,1.2,0.5,1.6c0.4,0.5,1,0.6,1.9,0.6c0.9,0,1.4-0.2,2-0.4
			c0,0,0.1,0,0.1,0c0.1,0,0.1,0,0.2,0.1l0.2,0.6c0,0,0,0,0,0.1c0,0.1-0.1,0.1-0.2,0.2c-0.5,0.2-1.5,0.4-2.4,0.4
			c-2.7,0-3.6-1.3-3.6-4c0-2.5,0.5-4,3.3-4c1.4,0,2.3,0.4,2.8,1.2c0.4,0.7,0.5,1.6,0.5,2.6V57.7z M145.1,55.3
			c-0.2-0.9-0.7-1.2-1.8-1.2c-1.1,0-1.6,0.3-1.8,1.2c-0.1,0.5-0.1,1-0.2,1.5l3.9,0C145.2,56.4,145.2,55.9,145.1,55.3z"/>
		<path class="st0" d="M154,60.9h-0.9c-0.1,0-0.2-0.1-0.2-0.2v-5.3c0-0.9-0.3-1.2-1.2-1.2c-1.2,0-2.4,0.4-2.4,0.4v6.2
			c0,0.1-0.1,0.2-0.2,0.2h-0.9c-0.1,0-0.2-0.1-0.2-0.2v-6c0-0.6,0.1-0.8,0.8-1.1c0.7-0.2,2-0.4,2.9-0.4c1.7,0,2.4,0.5,2.4,2.1v5.4
			C154.2,60.8,154.1,60.9,154,60.9z"/>
		<path class="st0" d="M161.2,60.5c0,0.1-0.1,0.2-0.1,0.2c-0.3,0.2-1.3,0.4-2.2,0.4c-2.6,0-3.3-1.3-3.3-4c0-2.7,0.7-4,3.3-4
			c0.9,0,1.8,0.2,2.2,0.4c0.1,0,0.1,0.1,0.1,0.2c0,0,0,0,0,0.1l-0.1,0.6c0,0.1-0.1,0.2-0.2,0.2h-0.1c-0.3-0.1-1.1-0.3-1.8-0.3
			c-1.6,0-2.1,0.7-2.1,2.9c0,2.2,0.5,2.9,2.1,2.9c0.7,0,1.5-0.2,1.8-0.3c0,0,0.1,0,0.1,0c0.1,0,0.1,0,0.2,0.2L161.2,60.5
			C161.2,60.5,161.2,60.5,161.2,60.5z"/>
		<path class="st0" d="M168.6,57.7c0,0.1-0.1,0.2-0.2,0.2h-5c0,0.8,0.2,1.2,0.5,1.6c0.4,0.5,1,0.6,1.9,0.6c0.9,0,1.4-0.2,2-0.4
			c0,0,0.1,0,0.1,0c0.1,0,0.1,0,0.2,0.1l0.2,0.6c0,0,0,0,0,0.1c0,0.1-0.1,0.1-0.2,0.2c-0.5,0.2-1.5,0.4-2.4,0.4
			c-2.7,0-3.6-1.3-3.6-4c0-2.5,0.5-4,3.3-4c1.4,0,2.3,0.4,2.8,1.2c0.4,0.7,0.5,1.6,0.5,2.6V57.7z M167.1,55.3
			c-0.2-0.9-0.7-1.2-1.8-1.2c-1.1,0-1.6,0.3-1.8,1.2c-0.1,0.5-0.1,1-0.2,1.5l3.9,0C167.3,56.4,167.2,55.9,167.1,55.3z"/>
		<path class="st0" d="M175.4,60.5c0,0.1-0.1,0.2-0.1,0.2c-0.3,0.2-1.3,0.4-2.2,0.4c-2.6,0-3.3-1.3-3.3-4c0-2.7,0.7-4,3.3-4
			c0.9,0,1.8,0.2,2.2,0.4c0.1,0,0.1,0.1,0.1,0.2c0,0,0,0,0,0.1l-0.1,0.6c0,0.1-0.1,0.2-0.2,0.2h-0.1c-0.3-0.1-1.1-0.3-1.8-0.3
			c-1.6,0-2.1,0.7-2.1,2.9c0,2.2,0.5,2.9,2.1,2.9c0.7,0,1.5-0.2,1.8-0.3c0,0,0.1,0,0.1,0c0.1,0,0.1,0,0.2,0.2L175.4,60.5
			C175.4,60.5,175.4,60.5,175.4,60.5z"/>
		<path class="st0" d="M182.8,57.7c0,0.1-0.1,0.2-0.2,0.2h-5c0,0.8,0.2,1.2,0.5,1.6c0.4,0.5,1,0.6,1.9,0.6c0.9,0,1.4-0.2,2-0.4
			c0,0,0.1,0,0.1,0c0.1,0,0.1,0,0.2,0.1l0.2,0.6c0,0,0,0,0,0.1c0,0.1-0.1,0.1-0.2,0.2c-0.5,0.2-1.5,0.4-2.4,0.4
			c-2.7,0-3.6-1.3-3.6-4c0-2.5,0.5-4,3.3-4c1.4,0,2.3,0.4,2.8,1.2c0.4,0.7,0.5,1.6,0.5,2.6V57.7z M181.3,55.3
			c-0.2-0.9-0.7-1.2-1.8-1.2c-1.1,0-1.6,0.3-1.8,1.2c-0.1,0.5-0.1,1-0.2,1.5l3.9,0C181.5,56.4,181.4,55.9,181.3,55.3z"/>
		<path class="st0" d="M190.2,60.9h-0.9c-0.1,0-0.2-0.1-0.2-0.2v-5.3c0-0.9-0.3-1.2-1.2-1.2c-1.2,0-2.4,0.4-2.4,0.4v6.2
			c0,0.1-0.1,0.2-0.2,0.2h-0.9c-0.1,0-0.2-0.1-0.2-0.2v-6c0-0.6,0.1-0.8,0.8-1.1c0.7-0.2,2-0.4,2.9-0.4c1.7,0,2.4,0.5,2.4,2.1v5.4
			C190.4,60.8,190.4,60.9,190.2,60.9z"/>
		<path class="st0" d="M196.1,60.6c0,0.1-0.1,0.1-0.1,0.2c-0.3,0.1-0.9,0.3-1.7,0.3c-1.4,0-2.1-0.6-2.1-2.1v-7.8
			c0-0.1,0.1-0.2,0.2-0.2l0.9-0.2h0c0.1,0,0.2,0.1,0.2,0.2v2.3h2.2c0.1,0,0.2,0.1,0.2,0.2v0.6c0,0.1-0.1,0.2-0.2,0.2h-2.2v4.7
			c0,0.7,0.4,1,1.1,1c0.4,0,0.9-0.1,1.2-0.2c0,0,0,0,0,0c0.1,0,0.1,0.1,0.2,0.1L196.1,60.6L196.1,60.6z"/>
		<path class="st0" d="M203.2,57.7c0,0.1-0.1,0.2-0.2,0.2h-5c0,0.8,0.2,1.2,0.5,1.6c0.4,0.5,1,0.6,1.9,0.6c0.9,0,1.4-0.2,2-0.4
			c0,0,0.1,0,0.1,0c0.1,0,0.1,0,0.2,0.1l0.2,0.6c0,0,0,0,0,0.1c0,0.1-0.1,0.1-0.2,0.2c-0.5,0.2-1.5,0.4-2.4,0.4
			c-2.7,0-3.6-1.3-3.6-4c0-2.5,0.5-4,3.3-4c1.4,0,2.3,0.4,2.8,1.2c0.4,0.7,0.5,1.6,0.5,2.6V57.7z M201.8,55.3
			c-0.2-0.9-0.7-1.2-1.8-1.2c-1.1,0-1.6,0.3-1.8,1.2c-0.1,0.5-0.1,1-0.2,1.5l3.9,0C201.9,56.4,201.9,55.9,201.8,55.3z"/>
		<path class="st0" d="M208.3,54.3c-0.9,0-1.6,0.1-2.3,0.3v6.2c0,0.1-0.1,0.2-0.2,0.2h-0.9c0,0-0.2-0.1-0.2-0.2v-6.1
			c0-0.6,0.2-0.8,0.7-1c0.7-0.3,1.8-0.4,2.5-0.4h0.2c0,0,0.1,0,0.1,0c0.1,0,0.2,0,0.2,0.2v0.7C208.4,54.2,208.4,54.3,208.3,54.3z"/>
	</g>
</g>
</svg>
