<svg width="380" height="379" viewBox="0 0 380 379" fill="none" xmlns="http://www.w3.org/2000/svg">
<g clip-path="url(#clip0_435_26)">
<path d="M365.583 266.185C364.962 256.031 356.504 249.917 348.117 244.278C344.772 242.032 335.311 237.948 333.71 234.319C332.276 231.078 340.782 226.693 343.124 224.23C358.487 208.199 363.982 182.123 350.387 163.717C340.591 150.452 322.385 145.548 306.377 152.18C284.897 161.081 273.357 186.401 274.241 206.579C275.794 206.082 277.347 205.585 278.9 205.089C272.425 203.231 273.285 202.021 275.531 196.49C276.917 193.055 277.92 189.49 278.518 185.882C279.808 178.04 279.306 169.917 276.893 162.291C273.022 149.998 263.824 138.418 250.372 133.579C225.07 124.505 201.034 142.004 193.722 163.263C195.419 162.917 197.091 162.572 198.788 162.226C196.422 148.313 198.31 133.104 198.31 119.082V77.192C196.757 77.6889 195.204 78.1858 193.651 78.6827C205.764 81.7721 213.267 90.7162 213.84 101.972C213.888 102.728 218.881 101.929 218.953 100.741C219.67 86.3522 233.337 73.9082 250.181 79.5901C260.813 83.1764 266.858 91.9909 267.36 101.994C267.408 102.75 272.401 101.95 272.473 100.762C273.19 86.3738 286.856 73.9298 303.725 79.6117C314.357 83.198 320.402 92.0125 320.903 102.015C320.951 102.771 325.945 101.972 326.016 100.784C326.662 87.6052 338.202 75.3557 354.258 78.7475C365.033 81.016 372.201 89.1175 374.16 98.6881C374.328 99.5739 379.393 98.5585 379.273 97.4567C372.918 41.2212 299.543 13.5895 246.406 4.75338C180.534 -6.22152 103.36 0.951056 47.0448 35.8849C23.2716 50.6406 3.03442 71.8558 4.28577e-05 98.6449C-0.0716354 99.2282 4.85027 98.6449 5.0653 97.6079C7.88465 83.7813 22.4592 73.6058 38.0851 80.2598C47.6183 84.3214 52.7791 92.7254 53.2331 101.972C53.2809 102.728 58.2744 101.929 58.3461 100.741C59.0629 86.3522 72.7295 73.9082 89.5739 79.5901C100.206 83.1764 106.251 91.9909 106.753 101.994C106.777 102.75 111.794 101.95 111.866 100.762C112.583 86.3738 126.249 73.9298 143.094 79.6117C153.726 83.198 159.771 92.0125 160.273 102.015C160.296 102.771 165.314 101.972 165.386 100.784C165.911 90.5866 172.219 81.4697 183.664 78.5315C182.756 78.5315 181.824 78.4883 180.916 78.4883V136.841C182.564 136.387 184.237 135.912 185.886 135.437C173.27 123.187 154.968 119.601 138.267 127.054C121.184 134.681 112.678 151.294 111.436 167.843C113.132 167.432 114.852 167.022 116.549 166.612C108.712 151.057 95.1409 135.566 74.187 138.137C55.3356 140.449 42.1229 153.952 39.0408 170.565C36.986 181.691 39.1841 193.293 44.6795 203.36C47.236 208.07 50.5571 212.412 54.5233 216.236C56.4586 218.116 59.2301 219.606 60.9743 221.551C64.1759 225.094 62.0973 225.137 57.8683 227.449C41.215 236.631 19.3771 246.028 18.6364 266.12C18.6364 266.747 23.7016 266.185 23.7494 264.889C24.5618 243.004 51.6561 233.347 69.3129 223.301C69.5279 223.171 70.2447 222.761 69.7668 222.501C47.3077 209.236 36.3648 180.676 48.0006 158.164C54.9056 144.791 71.1765 135.199 87.3519 142.004C99.0832 146.952 106.275 157.624 111.436 167.865C111.938 168.858 116.477 167.67 116.549 166.633C117.481 154.016 122.45 141.356 133.083 132.736C148.422 120.271 168.085 124.419 181.083 137.035C181.8 137.727 186.053 136.668 186.053 135.631V77.2785C186.053 76.6303 183.449 77.192 183.305 77.2352C170.14 80.6055 160.965 89.312 160.32 102.058C162.017 101.648 163.713 101.237 165.433 100.827C163.785 67.4918 108.401 70.0411 106.801 102.058C108.497 101.648 110.193 101.237 111.914 100.827C110.265 67.4918 54.8817 70.0195 53.2808 102.058C54.9772 101.648 56.6975 101.237 58.3939 100.827C56.8409 69.3713 6.09269 69.1121 0.0956138 98.5369C1.792 98.1913 3.46449 97.8456 5.16087 97.4999C11.2774 42.8847 81.4504 15.469 133.106 6.63294C198.214 -4.51479 275.412 2.63618 330.484 38.4342C352.705 52.8874 371.198 73.3033 374.065 98.6449C375.761 98.2345 377.481 97.824 379.178 97.4135C372.894 66.6708 322.337 71.8126 320.832 101.972C322.528 101.562 324.248 101.151 325.945 100.741C324.296 67.4054 268.913 69.9547 267.312 101.972C269.008 101.562 270.729 101.151 272.425 100.741C270.776 67.4054 215.393 69.9547 213.792 101.972C215.489 101.562 217.209 101.151 218.905 100.741C218.308 88.9879 210.256 80.1302 197.832 76.9544C196.924 76.7167 193.173 77.2785 193.173 78.4451V120.335C193.173 134.378 191.285 149.566 193.651 163.479C193.818 164.408 198.453 163.241 198.716 162.442C202.324 151.986 208.87 142.134 219.646 136.539C232.572 129.798 248.126 133.773 258.281 142.631C276.415 158.467 278.231 184.824 266.954 204.354C266.786 204.635 267.145 204.743 267.36 204.808C269.821 205.456 272.258 206.147 274.695 206.838C275.555 207.098 279.402 206.493 279.354 205.348C278.183 178.904 309.124 129.906 341.236 160.368C363.528 181.497 352.036 218.418 327.402 233.476C327.116 233.649 326.542 233.952 326.924 234.297C338.488 243.717 359.514 251.537 360.47 267.46C360.518 268.194 365.654 267.46 365.583 266.228" fill="#D89822"/>
</g>
<path d="M39.9035 294.543C38.3387 298.621 36.8356 302.402 35.3943 305.887C33.9942 309.335 32.6146 312.615 31.2557 315.729C29.8968 318.843 28.5378 321.828 27.1789 324.682C25.8611 327.5 24.5022 330.298 23.102 333.079H17.4809C16.0808 330.298 14.7013 327.5 13.3423 324.682C12.0246 321.828 10.6656 318.843 9.2655 315.729C7.90656 312.615 6.50643 309.335 5.06513 305.887C3.62383 302.402 2.14134 298.621 0.617676 294.543H7.22709C9.45081 300.4 11.6334 306.035 13.7747 311.448C15.9161 316.86 18.1192 321.939 20.3841 326.684C22.649 321.976 24.8522 316.916 26.9935 311.503C29.1349 306.054 31.2969 300.4 33.4794 294.543H39.9035Z" fill="#D89822"/>
<path d="M49.5551 333.079V294.543H75.6839V299.158H55.5468V310.613H73.4602V315.118H55.5468V328.463H77.2282V333.079H49.5551Z" fill="#D89822"/>
<path d="M110.145 320.678C110.145 322.532 109.918 324.256 109.465 325.85C109.054 327.444 108.292 328.853 107.18 330.076C106.109 331.262 104.647 332.208 102.794 332.912C100.982 333.579 98.6968 333.913 95.9378 333.913C94.5377 333.913 93.2405 333.802 92.0463 333.579C90.8932 333.394 89.8431 333.153 88.896 332.856C87.9488 332.523 87.1252 332.189 86.4252 331.855C85.7251 331.485 85.1692 331.132 84.7574 330.799L87.1046 326.517C87.9694 327.073 89.0813 327.666 90.4402 328.297C91.8404 328.89 93.5699 329.186 95.6289 329.186C98.5939 329.186 100.756 328.519 102.115 327.184C103.474 325.813 104.153 323.477 104.153 320.178V294.543H110.145V320.678Z" fill="#D89822"/>
<path d="M149.925 328.408V333.079H124.167V294.543H130.158V328.408H149.925Z" fill="#D89822"/>
<path d="M159.904 333.079V294.543H186.033V299.158H165.896V310.613H183.809V315.118H165.896V328.463H187.577V333.079H159.904Z" fill="#D89822"/>
<path d="M236.112 327.74C235.7 326.851 235.144 325.72 234.444 324.348C233.786 322.977 233.065 321.494 232.282 319.9C231.5 318.306 230.656 316.675 229.75 315.006C228.885 313.301 228.062 311.707 227.279 310.224C226.497 308.704 225.755 307.351 225.055 306.165C224.396 304.979 223.861 304.07 223.449 303.44C222.996 307.815 222.626 312.56 222.337 317.676C222.049 322.754 221.802 327.889 221.596 333.079H215.728C215.893 329.742 216.078 326.387 216.284 323.014C216.49 319.603 216.716 316.267 216.963 313.005C217.252 309.705 217.54 306.499 217.828 303.385C218.158 300.271 218.508 297.323 218.878 294.543H224.129C225.241 296.174 226.435 298.102 227.711 300.326C228.988 302.55 230.265 304.886 231.541 307.333C232.818 309.742 234.053 312.17 235.247 314.617C236.442 317.027 237.533 319.233 238.521 321.234C239.51 319.233 240.601 317.027 241.795 314.617C242.989 312.17 244.225 309.742 245.501 307.333C246.778 304.886 248.054 302.55 249.331 300.326C250.608 298.102 251.802 296.174 252.914 294.543H258.164C259.564 306.962 260.614 319.807 261.314 333.079H255.446C255.24 327.889 254.993 322.754 254.705 317.676C254.417 312.56 254.046 307.815 253.593 303.44C253.181 304.07 252.625 304.979 251.925 306.165C251.267 307.351 250.546 308.704 249.763 310.224C248.981 311.707 248.137 313.301 247.231 315.006C246.366 316.675 245.542 318.306 244.76 319.9C243.978 321.494 243.236 322.977 242.536 324.348C241.877 325.72 241.342 326.851 240.93 327.74H236.112Z" fill="#D89822"/>
<path d="M272.686 313.783C272.686 310.484 273.221 307.574 274.292 305.053C275.404 302.532 276.886 300.437 278.739 298.769C280.634 297.064 282.816 295.785 285.287 294.932C287.799 294.08 290.455 293.653 293.255 293.653C296.014 293.653 298.609 294.08 301.038 294.932C303.509 295.785 305.671 297.064 307.524 298.769C309.377 300.437 310.839 302.532 311.91 305.053C313.022 307.574 313.578 310.484 313.578 313.783C313.578 317.082 313.022 319.993 311.91 322.513C310.839 325.034 309.377 327.147 307.524 328.853C305.671 330.521 303.509 331.781 301.038 332.634C298.609 333.487 296.014 333.913 293.255 333.913C290.455 333.913 287.799 333.487 285.287 332.634C282.816 331.781 280.634 330.521 278.739 328.853C276.886 327.147 275.404 325.034 274.292 322.513C273.221 319.993 272.686 317.082 272.686 313.783ZM278.987 313.783C278.987 316.119 279.316 318.25 279.975 320.178C280.634 322.069 281.56 323.681 282.755 325.016C283.99 326.35 285.472 327.388 287.202 328.13C288.973 328.834 290.949 329.186 293.132 329.186C295.314 329.186 297.27 328.834 299 328.13C300.73 327.388 302.191 326.35 303.386 325.016C304.621 323.681 305.568 322.069 306.227 320.178C306.886 318.25 307.215 316.119 307.215 313.783C307.215 311.448 306.886 309.335 306.227 307.444C305.568 305.516 304.621 303.885 303.386 302.55C302.191 301.216 300.73 300.196 299 299.492C297.27 298.751 295.314 298.38 293.132 298.38C290.949 298.38 288.973 298.751 287.202 299.492C285.472 300.196 283.99 301.216 282.755 302.55C281.56 303.885 280.634 305.516 279.975 307.444C279.316 309.335 278.987 311.448 278.987 313.783Z" fill="#D89822"/>
<path d="M361.346 313.783C361.346 317.12 360.769 320.03 359.616 322.513C358.463 324.96 356.837 326.999 354.737 328.63C352.636 330.224 350.124 331.429 347.201 332.245C344.277 333.023 341.065 333.412 337.564 333.412C335.835 333.412 333.92 333.338 331.82 333.19C329.761 333.079 327.887 332.838 326.199 332.467V295.099C327.887 294.728 329.761 294.487 331.82 294.376C333.92 294.228 335.835 294.154 337.564 294.154C341.065 294.154 344.277 294.562 347.201 295.377C350.124 296.156 352.636 297.36 354.737 298.992C356.837 300.586 358.463 302.625 359.616 305.108C360.769 307.555 361.346 310.447 361.346 313.783ZM338.059 328.686C343.741 328.686 347.983 327.388 350.783 324.793C353.583 322.161 354.984 318.491 354.984 313.783C354.984 309.075 353.583 305.423 350.783 302.828C347.983 300.196 343.741 298.88 338.059 298.88C336.37 298.88 335.052 298.899 334.105 298.936C333.199 298.973 332.561 299.01 332.19 299.047V328.519C332.561 328.556 333.199 328.593 334.105 328.63C335.052 328.667 336.37 328.686 338.059 328.686Z" fill="#D89822"/>
<path d="M31.5028 339.63H39.2858V378.166H31.5028V361.094H12.9099V378.166H5.1269V339.63H12.9099V355.033H31.5028V339.63Z" fill="#D89822"/>
<path d="M66.0169 379C63.0931 379 60.5811 378.629 58.4809 377.888C56.3807 377.109 54.6306 376.034 53.2304 374.662C51.8715 373.291 50.8626 371.678 50.2037 369.825C49.5448 367.971 49.2154 365.932 49.2154 363.708V339.63H57.0602V363.04C57.0602 364.783 57.2661 366.284 57.6779 367.545C58.1309 368.768 58.7486 369.769 59.531 370.547C60.3546 371.326 61.3017 371.9 62.3724 372.271C63.4843 372.642 64.7197 372.827 66.0786 372.827C67.4376 372.827 68.673 372.642 69.7849 372.271C70.8967 371.9 71.8439 371.326 72.6263 370.547C73.4499 369.769 74.0676 368.768 74.4794 367.545C74.9324 366.284 75.1589 364.783 75.1589 363.04V339.63H83.0037V363.708C83.0037 365.932 82.6536 367.971 81.9536 369.825C81.2947 371.678 80.2652 373.291 78.8651 374.662C77.5061 376.034 75.756 377.109 73.6146 377.888C71.4732 378.629 68.9407 379 66.0169 379Z" fill="#D89822"/>
<path d="M100.739 372.382C101.192 372.42 101.79 372.457 102.531 372.494C103.272 372.494 104.281 372.494 105.558 372.494C110.787 372.494 114.679 371.307 117.232 368.935C119.826 366.525 121.124 363.17 121.124 358.87C121.124 354.495 119.868 351.141 117.356 348.805C114.844 346.47 110.952 345.302 105.681 345.302C103.375 345.302 101.728 345.357 100.739 345.469V372.382ZM129.277 358.87C129.277 362.206 128.701 365.116 127.548 367.6C126.395 370.047 124.747 372.104 122.606 373.773C120.506 375.404 117.953 376.627 114.947 377.443C111.982 378.221 108.687 378.61 105.063 378.61C103.334 378.61 101.378 378.536 99.1952 378.388C97.0126 378.277 94.9331 378.017 92.9564 377.609V340.186C94.9331 339.778 97.0332 339.519 99.257 339.407C101.481 339.296 103.457 339.241 105.187 339.241C108.77 339.241 112.043 339.63 115.008 340.408C117.973 341.15 120.506 342.336 122.606 343.967C124.747 345.561 126.395 347.6 127.548 350.084C128.701 352.531 129.277 355.459 129.277 358.87Z" fill="#D89822"/>
<path d="M156.801 379C153.589 379 150.707 378.555 148.153 377.665C145.6 376.775 143.438 375.478 141.668 373.773C139.897 372.03 138.538 369.917 137.591 367.433C136.644 364.95 136.17 362.095 136.17 358.87C136.17 355.645 136.705 352.79 137.776 350.306C138.888 347.823 140.391 345.728 142.285 344.023C144.18 342.28 146.403 340.964 148.956 340.075C151.51 339.185 154.248 338.74 157.172 338.74C158.943 338.74 160.549 338.87 161.99 339.129C163.431 339.352 164.687 339.611 165.758 339.908C166.829 340.204 167.714 340.52 168.414 340.853C169.114 341.187 169.608 341.428 169.896 341.576L167.611 347.304C166.623 346.748 165.202 346.229 163.349 345.747C161.537 345.228 159.56 344.968 157.419 344.968C155.566 344.968 153.836 345.265 152.23 345.858C150.624 346.414 149.224 347.267 148.03 348.416C146.877 349.565 145.971 351.011 145.312 352.753C144.653 354.495 144.324 356.516 144.324 358.814C144.324 360.853 144.571 362.725 145.065 364.431C145.6 366.136 146.403 367.619 147.474 368.879C148.545 370.103 149.904 371.066 151.551 371.771C153.198 372.438 155.175 372.772 157.481 372.772C160.24 372.772 162.484 372.531 164.214 372.049C165.943 371.53 167.282 371.048 168.229 370.603L170.329 376.331C169.835 376.627 169.155 376.924 168.29 377.22C167.467 377.517 166.479 377.813 165.326 378.11C164.172 378.369 162.875 378.573 161.434 378.722C159.993 378.907 158.448 379 156.801 379Z" fill="#D89822"/>
<path d="M206.727 378.166C206.15 376.646 205.553 375.144 204.936 373.661C204.318 372.179 203.721 370.659 203.144 369.102H185.107C184.531 370.659 183.934 372.197 183.316 373.717C182.74 375.2 182.163 376.683 181.587 378.166H173.495C175.101 374.051 176.624 370.251 178.066 366.766C179.507 363.281 180.907 359.982 182.266 356.868C183.666 353.754 185.046 350.788 186.405 347.971C187.764 345.153 189.164 342.373 190.605 339.63H197.956C199.397 342.373 200.797 345.153 202.156 347.971C203.515 350.788 204.874 353.754 206.233 356.868C207.633 359.982 209.054 363.281 210.495 366.766C211.977 370.251 213.522 374.051 215.128 378.166H206.727ZM194.126 347.081C193.179 349.046 192.087 351.437 190.852 354.255C189.658 357.072 188.402 360.13 187.084 363.43H201.168C199.85 360.13 198.573 357.053 197.338 354.199C196.102 351.344 195.032 348.972 194.126 347.081Z" fill="#D89822"/>
<path d="M249.385 378.166C247.985 376.052 246.42 373.791 244.691 371.382C242.961 368.935 241.17 366.488 239.317 364.041C237.463 361.558 235.569 359.166 233.634 356.868C231.739 354.533 229.927 352.438 228.198 350.584V378.166H220.538V339.63H226.901C228.548 341.187 230.319 343.04 232.213 345.191C234.107 347.304 236.002 349.509 237.896 351.808C239.831 354.106 241.684 356.423 243.455 358.759C245.267 361.057 246.873 363.207 248.273 365.209V339.63H255.994V378.166H249.385Z" fill="#D89822"/>
<path d="M285.288 379C282.076 379 279.193 378.555 276.64 377.665C274.087 376.775 271.925 375.478 270.154 373.773C268.384 372.03 267.025 369.917 266.078 367.433C265.13 364.95 264.657 362.095 264.657 358.87C264.657 355.645 265.192 352.79 266.263 350.306C267.375 347.823 268.878 345.728 270.772 344.023C272.666 342.28 274.89 340.964 277.443 340.075C279.996 339.185 282.735 338.74 285.659 338.74C287.429 338.74 289.035 338.87 290.477 339.129C291.918 339.352 293.174 339.611 294.245 339.908C295.315 340.204 296.201 340.52 296.901 340.853C297.601 341.187 298.095 341.428 298.383 341.576L296.098 347.304C295.11 346.748 293.689 346.229 291.836 345.747C290.024 345.228 288.047 344.968 285.906 344.968C284.053 344.968 282.323 345.265 280.717 345.858C279.111 346.414 277.711 347.267 276.517 348.416C275.364 349.565 274.458 351.011 273.799 352.753C273.14 354.495 272.81 356.516 272.81 358.814C272.81 360.853 273.058 362.725 273.552 364.431C274.087 366.136 274.89 367.619 275.961 368.879C277.031 370.103 278.39 371.066 280.038 371.771C281.685 372.438 283.661 372.772 285.968 372.772C288.727 372.772 290.971 372.531 292.7 372.049C294.43 371.53 295.768 371.048 296.716 370.603L298.816 376.331C298.322 376.627 297.642 376.924 296.777 377.22C295.954 377.517 294.965 377.813 293.812 378.11C292.659 378.369 291.362 378.573 289.921 378.722C288.479 378.907 286.935 379 285.288 379Z" fill="#D89822"/>
<path d="M305.653 378.166V339.63H333.141V345.58H313.436V355.089H330.979V360.927H313.436V372.216H334.624V378.166H305.653Z" fill="#D89822"/>
<path d="M353.645 339.241C359.822 339.241 364.537 340.26 367.79 342.299C371.085 344.338 372.732 347.452 372.732 351.641C372.732 356.868 369.87 360.408 364.146 362.262C364.928 363.115 365.814 364.153 366.802 365.376C367.79 366.599 368.799 367.934 369.829 369.38C370.858 370.788 371.847 372.253 372.794 373.773C373.741 375.255 374.585 376.72 375.326 378.166H366.617C365.834 376.831 364.99 375.496 364.084 374.162C363.178 372.79 362.252 371.474 361.304 370.214C360.399 368.916 359.493 367.711 358.587 366.599C357.681 365.45 356.836 364.431 356.054 363.541C355.477 363.578 354.983 363.597 354.572 363.597C354.16 363.597 353.769 363.597 353.398 363.597H349.63V378.166H341.847V340.186C343.741 339.815 345.759 339.574 347.9 339.463C350.042 339.315 351.957 339.241 353.645 339.241ZM354.201 345.302C352.554 345.302 351.03 345.357 349.63 345.469V357.925H353.027C354.922 357.925 356.589 357.832 358.031 357.647C359.472 357.461 360.666 357.128 361.613 356.646C362.602 356.164 363.343 355.515 363.837 354.699C364.331 353.884 364.578 352.846 364.578 351.585C364.578 350.399 364.331 349.398 363.837 348.583C363.343 347.767 362.622 347.118 361.675 346.636C360.769 346.154 359.678 345.821 358.401 345.635C357.125 345.413 355.725 345.302 354.201 345.302Z" fill="#D89822"/>
<defs>
<clipPath id="clip0_435_26">
<rect width="379.178" height="267.718" fill="white"/>
</clipPath>
</defs>
</svg>
