<svg width="227" height="227" viewBox="0 0 227 227" fill="none" xmlns="http://www.w3.org/2000/svg">
<path d="M135.98 147.21C132.47 150.34 128.72 152.45 124.49 153.92C123.56 154.24 124.78 153.83 124.23 154.01C123.99 154.09 123.74 154.16 123.49 154.24C122.9 154.42 122.3 154.58 121.7 154.73C121.2 154.86 120.7 154.97 120.19 155.08C120.76 154.96 119.76 155.16 119.75 155.16C119.39 155.23 119.04 155.29 118.68 155.35C116.29 155.74 114.48 155.89 112.07 155.93C102.71 156.1 93.2701 153.78 84.8901 149.65C77.6101 146.06 70.3301 140.61 66.6501 133.18C63.5501 126.94 63.2401 119.47 64.1301 112.68C65.2101 104.46 68.0901 96.3199 72.6001 89.3499C74.8601 85.8599 77.5301 82.5699 80.6401 79.7999C82.2701 78.3499 84.0001 77.0099 85.8501 75.8399C87.4201 74.8499 89.4501 73.8099 91.0501 73.1699C91.5001 72.9899 91.9601 72.8099 92.4201 72.6399C92.7001 72.5399 92.9801 72.4399 93.2601 72.3499C92.6701 72.5499 93.6001 72.2499 93.6301 72.2399C94.1101 72.0999 94.5901 71.9599 95.0701 71.8399C95.3601 71.7599 95.6601 71.6899 95.9501 71.6199C96.1501 71.5699 96.3501 71.5299 96.5401 71.4899C96.3101 71.5399 96.3001 71.5399 96.5101 71.4899C99.0201 70.9999 101.54 70.7799 104.1 70.8299C109.32 70.9299 114.5 72.2899 119.25 74.4099C128.97 78.7399 137.22 86.5899 142.38 95.8699C145.99 102.37 148.26 109.73 148.15 117.2C148.02 125.56 145.85 134.29 141.1 141.25C139.62 143.41 137.91 145.45 135.97 147.21C135.16 147.95 135.22 148.71 136.42 148.88C137.62 149.05 139.56 148.65 140.52 147.78C153.35 136.13 157.25 116.32 151.02 100.35C146.92 89.8299 139.16 80.6299 129.49 74.7899C119.82 68.9499 107.51 66.5799 95.9301 69.1299C77.0801 73.2699 63.8201 89.5299 59.4601 107.78C57.6601 115.28 57.1101 123.59 59.4101 131.05C61.8901 139.09 68.3701 145.25 75.3701 149.52C92.5101 159.99 116.78 162.75 134.52 152.15C136.65 150.88 138.67 149.44 140.53 147.78C141.36 147.04 141.27 146.28 140.08 146.11C138.89 145.94 136.95 146.35 135.98 147.21Z" fill="#E0A619"/>
<path d="M128.43 77.8198C129.8 80.9198 121.05 88.9798 117.39 87.5098C115.13 86.5998 115.43 82.9098 112.96 81.5498C111.08 80.5098 109.65 82.1198 109.59 83.8898C109.46 87.4998 110.58 91.1198 109.46 93.9798C103.84 108.36 88.1801 102.02 88.2801 105.89C88.3801 109.68 114.61 115.07 113.78 119.78C111.67 131.89 112.58 143.48 105.93 144.55C78.6101 148.96 75.6301 98.6098 70.4201 90.7298C70.3901 90.6798 70.2601 90.5898 70.3201 90.4898C88.8101 58.3998 125.35 70.8398 128.42 77.8198H128.43Z" fill="#E0A619"/>
<path d="M137.52 86.0799C131.39 84.9999 121.16 98.6699 123.77 107.07C125.97 114.13 134.03 112.4 135.07 120.72C135.52 124.28 135.07 130.04 136.67 133.69C138.12 136.99 143.75 140.45 144.94 138.76C155.2 124.28 148.33 87.9799 137.52 86.0699V86.0799Z" fill="#E0A619"/>
</svg>
