<svg width="227" height="227" viewBox="0 0 227 227" fill="none" xmlns="http://www.w3.org/2000/svg">
<path d="M97.7401 154.46C97.6201 154.56 97.4901 154.65 97.3701 154.75C97.9301 154.32 97.5401 154.65 97.3901 154.72C97.1901 154.82 96.7401 154.97 97.5001 154.69C97.3501 154.75 97.2101 154.83 97.0601 154.88C96.5201 155.06 97.6401 154.83 97.2601 154.81C97.1501 154.81 96.9401 154.89 96.8301 154.92C96.2101 155.11 97.5401 154.86 96.8601 154.91C96.5801 154.93 96.3001 154.98 96.0201 155.02C95.9301 155.02 95.1701 155.08 95.8001 155.04C95.5801 155.05 95.3601 155.06 95.1401 155.07C94.6001 155.09 94.0601 155.09 93.5201 155.09C92.0001 155.09 90.4701 155.03 88.9501 154.98C85.8401 154.86 82.7301 154.79 79.6201 154.72C78.7101 154.7 77.8001 154.68 76.8901 154.61C77.4301 154.65 76.3401 154.54 76.1601 154.52C75.8201 154.47 75.4801 154.4 75.1401 154.32C74.6101 154.19 75.5501 154.48 75.0501 154.29C74.9001 154.23 74.7601 154.18 74.6101 154.12C74.3701 154.02 74.1401 153.9 73.9201 153.78C73.5901 153.6 73.8101 153.58 73.3501 153.4C73.2301 153.35 72.9301 152.93 73.1401 153.4C73.1301 153.37 73.1401 153.34 73.1301 153.31C72.8801 152.58 72.9401 151.59 72.8501 150.82C72.4501 147.28 72.0601 143.73 71.6601 140.19C71.3701 137.62 71.3101 134.88 70.7701 132.35C70.5501 131.31 68.5601 131.56 67.9001 131.7C66.8701 131.91 65.3601 132.41 64.9801 133.52C64.1801 135.84 63.8101 138.41 63.2401 140.8C62.3301 144.63 61.4201 148.46 60.5101 152.29C60.3001 153.19 60.0801 154.09 59.8701 154.99L62.4001 153.25C61.5701 153.43 63.0401 153.15 62.1601 153.3C61.9801 153.33 61.8001 153.36 61.6201 153.39C61.1501 153.47 60.6701 153.53 60.2001 153.59C59.3301 153.69 58.5301 153.74 57.3801 153.71C56.2301 153.68 54.4201 153.62 53.6001 152.51C53.3001 152.1 53.2901 151.56 53.3701 151C53.6301 149.28 54.1901 147.56 54.6001 145.87C55.2901 142.98 55.9801 140.09 56.6801 137.21C58.4601 129.89 60.0801 122.38 62.7901 115.33C63.5901 113.24 64.0801 112.03 65.3501 110.31C65.5701 110.02 65.8101 109.75 66.0401 109.46C66.3801 109.04 65.6801 109.76 66.0901 109.41C66.2401 109.28 66.3801 109.14 66.5301 109C66.6501 108.89 66.7901 108.8 66.9101 108.69C67.3801 108.29 66.6501 108.82 66.8501 108.72C67.1201 108.59 67.4801 108.4 67.7201 108.21C67.4201 108.44 67.1101 108.47 67.6301 108.26C67.7501 108.21 67.8701 108.16 67.9901 108.11C68.0801 108.07 68.3201 108.04 68.3801 107.97C68.1801 108.21 67.5001 108.24 68.2001 108.04C68.5601 107.94 68.9101 107.84 69.2701 107.76C69.4701 107.71 69.6901 107.68 69.8901 107.62C69.3101 107.78 69.4601 107.7 70.0001 107.61C71.2001 107.4 72.4001 107.27 73.6101 107.17C74.4101 107.1 73.3001 107.17 74.1301 107.14C74.5001 107.12 74.8701 107.1 75.2501 107.09C76.1501 107.06 77.0601 107.04 77.9601 107.05C82.5301 107.06 87.0801 107.47 91.6101 108.05C97.7801 108.85 103.87 110.23 110.09 110.59C115.71 110.91 121.35 110.54 126.92 109.83C130.98 109.32 135 108.51 139.07 108.11C139.26 108.09 140.4 108.03 139.62 108.06C139.94 108.05 140.27 108.03 140.59 108.03C140.88 108.03 141.18 108.03 141.47 108.05C140.73 108.01 141.71 108.11 141.9 108.14C142.41 108.21 141.72 107.96 142.14 108.22C142.27 108.3 142.76 108.63 142.39 108.32C142.54 108.44 142.67 108.56 142.8 108.7C143.02 108.95 142.84 108.61 142.97 109.01C143.46 110.54 143.15 112.33 142.8 113.86C142.31 116.01 141.43 118.07 140.08 119.82C139.61 120.43 138.84 121.21 138.35 121.55C137.86 121.89 138.01 121.82 137.45 122.01C138.16 121.76 136.74 122.16 136.89 122.12C136.42 122.23 135.95 122.33 135.48 122.44C132.78 123.03 130.03 123.46 127.28 123.73C122.9 124.16 118.32 123.95 113.84 123.67C111.45 123.52 109.05 123.36 106.65 123.26C104.75 123.18 102.68 123.58 101.21 124.89C99.2601 126.62 99.1901 129.57 99.1301 131.98C99.0501 135.56 99.3101 139.13 99.4201 142.7C99.5201 145.83 99.6401 149.13 98.8301 152.18C98.7101 152.65 98.4301 153.44 98.3001 153.69C98.3301 153.63 98.0501 154.08 97.9601 154.21C97.6201 154.75 98.1101 154.15 97.7101 154.49C96.8201 155.26 97.0601 156.18 98.2201 156.4C99.5301 156.65 101.3 156.18 102.32 155.3C104.59 153.33 105.02 150.15 105.18 147.31C105.4 143.51 105.15 139.7 105 135.91C104.88 132.92 104.56 129.6 105.43 126.69C105.5 126.46 105.58 126.23 105.67 126.01C105.83 125.61 105.53 126.22 105.67 126C105.72 125.91 105.78 125.83 105.83 125.74C105.89 125.64 105.97 125.56 106.04 125.47C105.72 125.88 105.77 125.74 105.9 125.64C105.45 125.99 104.57 126.1 103.9 126.34C103.54 126.47 103.73 126.36 104.16 126.37C104.54 126.38 104.91 126.4 105.29 126.42C105.9 126.45 106.5 126.48 107.11 126.51C108.37 126.58 109.62 126.66 110.88 126.74C115.84 127.06 120.75 127.24 125.71 126.81C128.78 126.55 131.82 126.04 134.84 125.42C137.86 124.8 140.7 124.15 143.15 122.21C146.82 119.3 148.91 114.31 148.98 109.68C149 108.44 148.94 107.21 148 106.29C147.16 105.46 145.87 105.16 144.74 105.03C141.05 104.6 137.22 105.43 133.59 105.99C128.5 106.77 123.4 107.47 118.25 107.58C115.19 107.65 112.12 107.55 109.07 107.2C105.69 106.81 102.35 106.1 98.9801 105.59C93.6501 104.78 88.2701 104.18 82.8801 104C77.4901 103.82 71.1301 103.85 65.8101 105.92C62.0401 107.39 59.6501 110.2 57.9701 113.8C55.0001 120.14 53.5301 127.28 51.8601 134.03C51.1701 136.8 50.5001 139.58 49.8301 142.36C49.0601 145.54 48.0101 148.79 47.5201 152.03C46.8501 156.48 53.0301 156.9 56.0801 156.84C58.4501 156.8 60.7901 156.48 63.1001 155.97C63.9101 155.79 65.4001 155.18 65.6301 154.23C67.1101 147.97 68.6001 141.72 70.0901 135.46C70.3001 134.57 70.4401 133.62 70.7401 132.76L64.9501 133.93C65.4501 136.27 65.5101 138.8 65.7701 141.18C66.2001 144.98 66.6201 148.77 67.0501 152.57C67.1301 153.29 67.0601 154.28 67.3201 154.97C67.5601 155.6 68.5701 156.12 69.1201 156.44C69.8001 156.84 70.5301 157.09 71.2901 157.29C73.0901 157.77 75.0101 157.81 76.8601 157.86C80.1101 157.95 83.3601 158.01 86.6001 158.13C91.8501 158.33 97.9601 158.86 102.31 155.31C103.24 154.55 102.94 153.62 101.8 153.4C100.45 153.14 98.7601 153.64 97.7001 154.5L97.7401 154.46Z" fill="#E0A619"/>
<path d="M147.68 123.86C150.52 133.94 153 144.27 154.37 154.67L156.15 152.8C155.21 153.24 154.28 153.7 153.35 154.15C152.93 154.35 152.5 154.55 152.06 154.73C151.88 154.8 151.7 154.88 151.51 154.94C152.03 154.77 151.21 154.98 151.58 154.91C151.91 154.85 151.35 154.95 151.3 154.95C150.85 154.98 151.66 154.98 151.2 154.95C151.01 154.94 150.56 154.88 150.21 154.77C149.11 154.45 148.07 153.84 147.09 153.26L147.67 153.83C145.98 148.38 144.37 142.85 142.32 137.52C141.74 136.01 141.18 135.32 139.27 135.58C138.05 135.74 136.34 136.31 135.89 137.59C135.78 137.92 135.75 138.29 135.7 138.62C135.25 141.86 135.04 145.15 134.78 148.41C134.56 151.13 134.36 153.85 134.17 156.58L138.21 154.63C134.43 154.84 130.65 154.73 126.87 154.65C121.39 154.53 115.91 154.5 110.43 154.63C109.18 154.66 107.34 155.04 106.59 156.18C105.84 157.32 107.21 157.77 108.12 157.75C113.6 157.62 119.08 157.65 124.56 157.77C128.34 157.85 132.12 157.96 135.9 157.75C136.83 157.7 139.84 157.23 139.94 155.8C140.16 152.71 140.39 149.61 140.64 146.52C140.81 144.36 140.99 142.2 141.21 140.04C141.29 139.29 141.36 138.53 141.47 137.78C141.5 137.55 141.57 137.31 141.58 137.08C141.61 136.73 141.83 136.71 141.49 137.1L139.92 138.18H139.93C138.96 138.31 137.99 138.45 137.02 138.58H137.03C136.73 138.45 136.43 138.32 136.13 138.19C136.25 138.27 135.99 137.79 136.14 138.21C136.23 138.46 136.35 138.7 136.45 138.95C136.77 139.78 137.07 140.62 137.36 141.47C138.15 143.76 138.9 146.07 139.64 148.38C140.26 150.3 140.87 152.23 141.47 154.16C141.59 154.54 141.66 155.02 141.85 155.37C142.17 155.97 142.87 156.24 143.45 156.56C144.41 157.07 145.39 157.47 146.44 157.75C150.76 158.88 154.58 156.78 158.37 155.01C159.08 154.68 160.28 154.11 160.15 153.14C158.78 142.74 156.3 132.41 153.46 122.33C152.93 120.44 147.13 122 147.66 123.88L147.68 123.86Z" fill="#E0A619"/>
<path d="M96.0201 96.4498C89.5801 102.48 79.1301 99.7898 76.0601 91.4698C76.0301 91.3898 76.0001 91.3098 75.9801 91.2398C72.7001 81.9198 78.4401 69.4398 85.4801 68.6298C91.7101 67.9098 98.3101 76.3898 99.5701 83.9998C99.8401 85.6298 100.5 89.5898 98.3401 93.5098C97.7001 94.6698 96.9101 95.6398 96.0401 96.4598L96.0201 96.4498Z" fill="#E0A619"/>
<path d="M137.45 96.1599C136.67 96.8699 135.61 97.6099 134.98 97.8699C134.95 97.8799 134.03 98.1999 134.61 98.0199C134.58 98.0299 133.63 98.2699 134.24 98.1399C133.44 98.3099 133.44 98.2999 132.63 98.2999C130.71 98.2799 128.43 97.4599 126.74 96.2299C122.39 93.0699 120.97 87.4699 121.63 82.3299C121.97 79.6699 122.8 77.0499 124.08 74.6899C125.07 72.8799 126.68 70.9199 128.22 70.0799C128.95 69.6799 127.73 70.2699 128.49 69.9599C127.61 70.3199 129.08 69.7999 128.14 70.0299C128.18 70.0299 128.92 69.9799 128.48 69.9799C129.14 69.9799 128.35 69.9199 129.01 70.0199C130.12 70.1899 131.18 70.7099 132.11 71.3299C134.51 72.9399 136.44 75.2799 137.85 77.7799C141.1 83.5799 142.31 91.4699 137.06 96.5099C136.06 97.4699 137.92 97.8599 138.53 97.8499C139.91 97.8199 141.38 97.3299 142.38 96.3599C147.84 91.1199 147.21 82.9499 143.91 76.7299C142.33 73.7399 140.14 70.8499 137.25 69.0299C134.36 67.2099 131.01 66.7299 127.69 67.6499C121.37 69.3899 117.44 75.3399 116.16 81.4999C114.89 87.5899 116.08 94.6399 121.44 98.4399C127.52 102.74 136.57 101.64 141.99 96.7199C142.81 95.9799 142.74 95.2199 141.54 95.0499C140.34 94.8799 138.4 95.2799 137.44 96.1499L137.45 96.1599Z" fill="#E0A619"/>
</svg>
