<svg width="227" height="227" viewBox="0 0 227 227" fill="none" xmlns="http://www.w3.org/2000/svg">
<path d="M147.3 148.5C141.16 161.51 80.6301 175.58 68.1501 143.33C64.8901 134.91 76.7001 121.59 90.9601 117.61C119.69 109.58 156.91 128.13 147.3 148.5Z" fill="#FBF5EB"/>
<path d="M144.41 148.89C144.25 149.22 144.57 148.61 144.45 148.82C144.4 148.9 144.37 148.98 144.32 149.06C144.24 149.19 144.16 149.32 144.08 149.44C143.86 149.77 143.61 150.09 143.35 150.39C143.24 150.52 143.12 150.64 143.01 150.77C142.71 151.1 143.29 150.5 143.07 150.71C142.99 150.79 142.91 150.87 142.83 150.95C142.52 151.24 142.21 151.52 141.88 151.79C141.53 152.08 141.16 152.35 140.8 152.62C140.23 153.05 141.15 152.41 140.54 152.8C140.31 152.95 140.08 153.1 139.84 153.25C138.91 153.84 137.94 154.37 136.97 154.87C136.83 154.94 136.69 155.01 136.55 155.08C136.61 155.05 137.14 154.8 136.69 155.01C136.42 155.13 136.16 155.26 135.89 155.38C135.31 155.65 134.73 155.9 134.14 156.15C132.93 156.66 131.69 157.11 130.45 157.55C130.27 157.61 129.76 157.78 130.47 157.55C130.33 157.6 130.19 157.64 130.05 157.69C129.73 157.79 129.41 157.9 129.08 158C128.38 158.22 127.69 158.42 126.99 158.62C125.54 159.03 124.08 159.39 122.61 159.72C122.29 159.79 121.98 159.85 121.66 159.92C120.88 160.09 122.09 159.84 121.6 159.93C121.4 159.97 121.2 160.01 121 160.05C120.27 160.19 119.54 160.32 118.81 160.44C117.24 160.7 115.66 160.91 114.08 161.08C113.32 161.16 112.56 161.23 111.8 161.29C111.62 161.3 110.72 161.37 111.26 161.33C110.79 161.36 110.33 161.39 109.86 161.41C108.29 161.48 106.72 161.51 105.15 161.48C101.92 161.43 99.5001 161.23 96.2801 160.69C93.2901 160.19 90.6701 159.53 87.9101 158.48C82.5901 156.46 77.8001 153.25 74.3801 148.64C72.7401 146.43 71.0501 143.65 70.6201 140.89C70.1201 137.7 71.6001 134.43 73.3301 131.84C78.0101 124.85 85.7401 120.15 93.7201 118.35C101.7 116.55 110.33 117.01 118.36 118.94C125.72 120.71 133.13 123.88 138.82 128.97C143.23 132.9 146.78 138.47 145.78 144.61C145.54 146.1 145.06 147.52 144.43 148.89C143.89 150.07 146.37 150.07 146.9 150.01C148.13 149.85 149.66 149.32 150.21 148.11C157.2 133 139.79 121.64 127.68 117.58C109.62 111.53 86.9201 112.68 72.5801 126.45C69.5801 129.33 66.8501 132.73 65.4701 136.71C64.3201 140.02 64.6701 143.04 66.1601 146.16C68.9001 151.88 73.4501 156.29 79.0201 159.26C84.5901 162.23 91.2501 163.77 97.6701 164.32C104.61 164.91 111.62 164.54 118.48 163.37C124.79 162.29 131.08 160.64 136.97 158.1C141.26 156.26 145.83 153.92 148.87 150.26C149.42 149.6 149.85 148.88 150.22 148.1C150.78 146.93 148.26 146.92 147.75 146.98C146.5 147.14 145.02 147.68 144.44 148.88L144.41 148.89Z" fill="#E0A619"/>
<path d="M147.29 140.1C141.15 153.11 80.6201 167.18 68.1401 134.93C64.8801 126.51 76.6901 113.19 90.9501 109.21C119.68 101.18 156.9 119.73 147.29 140.1Z" fill="#FBF5EB"/>
<path d="M144.4 140.49C144.24 140.82 144.56 140.21 144.44 140.42C144.39 140.5 144.36 140.58 144.31 140.66C144.23 140.79 144.15 140.92 144.07 141.04C143.85 141.37 143.6 141.69 143.34 141.99C143.23 142.12 143.11 142.24 143 142.37C142.7 142.7 143.28 142.1 143.06 142.31C142.98 142.39 142.9 142.47 142.82 142.55C142.51 142.84 142.2 143.12 141.87 143.39C141.52 143.68 141.15 143.95 140.79 144.22C140.22 144.65 141.14 144.01 140.53 144.4C140.3 144.55 140.07 144.7 139.83 144.85C138.9 145.44 137.93 145.97 136.96 146.47C136.82 146.54 136.68 146.61 136.54 146.68C136.6 146.65 137.13 146.4 136.68 146.61C136.41 146.73 136.15 146.86 135.88 146.98C135.3 147.25 134.72 147.5 134.13 147.75C132.92 148.26 131.68 148.71 130.44 149.15C130.26 149.21 129.75 149.38 130.46 149.15C130.32 149.2 130.18 149.24 130.04 149.29C129.72 149.39 129.4 149.5 129.07 149.6C128.37 149.82 127.68 150.02 126.98 150.22C125.53 150.63 124.07 150.99 122.6 151.32C122.28 151.39 121.97 151.45 121.65 151.52C120.87 151.69 122.08 151.44 121.59 151.53C121.39 151.57 121.19 151.61 120.99 151.65C120.26 151.79 119.53 151.92 118.8 152.04C117.23 152.3 115.65 152.51 114.07 152.68C113.31 152.76 112.55 152.83 111.79 152.89C111.61 152.9 110.71 152.97 111.25 152.93C110.78 152.96 110.32 152.99 109.85 153.01C108.28 153.08 106.71 153.11 105.14 153.08C101.91 153.03 99.49 152.83 96.27 152.29C93.28 151.79 90.6601 151.13 87.9001 150.08C82.5801 148.06 77.7901 144.85 74.3701 140.24C72.7301 138.03 71.0401 135.25 70.6101 132.49C70.1101 129.3 71.59 126.03 73.32 123.44C78 116.45 85.73 111.75 93.71 109.95C101.69 108.15 110.32 108.61 118.35 110.54C125.71 112.31 133.12 115.48 138.81 120.57C143.22 124.5 146.77 130.07 145.77 136.21C145.53 137.7 145.05 139.12 144.42 140.49C143.88 141.67 146.36 141.67 146.89 141.61C148.12 141.45 149.65 140.92 150.2 139.71C157.19 124.6 139.78 113.24 127.67 109.18C109.61 103.13 86.91 104.28 72.57 118.05C69.57 120.93 66.84 124.33 65.46 128.31C64.31 131.62 64.6601 134.64 66.1501 137.76C68.8901 143.48 73.4401 147.89 79.0101 150.86C84.5801 153.83 91.2401 155.37 97.6601 155.92C104.6 156.51 111.61 156.14 118.47 154.97C124.78 153.89 131.07 152.24 136.96 149.7C141.25 147.86 145.82 145.52 148.86 141.86C149.41 141.2 149.84 140.48 150.21 139.7C150.77 138.53 148.25 138.52 147.74 138.58C146.49 138.74 145.01 139.28 144.43 140.48L144.4 140.49Z" fill="#E0A619"/>
<path d="M148.23 129.02C142.09 142.03 81.56 156.1 69.08 123.85C65.82 115.43 77.63 102.11 91.89 98.1297C120.62 90.0997 157.84 108.65 148.23 129.02Z" fill="#FBF5EB"/>
<path d="M145.34 129.41C145.18 129.74 145.5 129.13 145.38 129.34C145.33 129.42 145.3 129.5 145.25 129.58C145.17 129.71 145.09 129.84 145.01 129.96C144.79 130.29 144.54 130.61 144.28 130.91C144.17 131.04 144.05 131.16 143.94 131.29C143.64 131.62 144.22 131.02 144 131.23C143.92 131.31 143.84 131.39 143.76 131.47C143.45 131.76 143.14 132.04 142.81 132.31C142.46 132.6 142.09 132.87 141.73 133.14C141.16 133.57 142.08 132.93 141.47 133.32C141.24 133.47 141.01 133.62 140.77 133.77C139.84 134.36 138.87 134.89 137.9 135.39C137.76 135.46 137.62 135.53 137.48 135.6C137.54 135.57 138.07 135.32 137.62 135.53C137.35 135.65 137.09 135.78 136.82 135.9C136.24 136.17 135.66 136.42 135.07 136.67C133.86 137.18 132.62 137.63 131.38 138.07C131.2 138.13 130.69 138.3 131.4 138.07C131.26 138.12 131.12 138.16 130.98 138.21C130.66 138.31 130.34 138.42 130.01 138.52C129.31 138.74 128.62 138.94 127.92 139.14C126.47 139.55 125.01 139.91 123.54 140.24C123.22 140.31 122.91 140.37 122.59 140.44C121.81 140.61 123.02 140.36 122.53 140.45C122.33 140.49 122.13 140.53 121.93 140.57C121.2 140.71 120.47 140.84 119.74 140.96C118.17 141.22 116.59 141.43 115.01 141.6C114.25 141.68 113.49 141.75 112.73 141.81C112.55 141.82 111.65 141.89 112.19 141.85C111.72 141.88 111.26 141.91 110.79 141.93C109.22 142 107.65 142.03 106.08 142C102.85 141.95 100.43 141.75 97.21 141.21C94.22 140.71 91.6 140.05 88.84 139C83.52 136.98 78.73 133.77 75.31 129.16C73.67 126.95 71.98 124.17 71.55 121.41C71.05 118.22 72.53 114.95 74.26 112.36C78.94 105.37 86.67 100.67 94.65 98.8697C102.63 97.0697 111.26 97.5297 119.29 99.4597C126.65 101.23 134.06 104.4 139.75 109.49C144.16 113.42 147.71 118.99 146.71 125.13C146.47 126.62 145.99 128.04 145.36 129.41C144.82 130.59 147.3 130.59 147.83 130.53C149.06 130.37 150.59 129.84 151.14 128.63C158.13 113.52 140.72 102.16 128.61 98.0997C110.55 92.0497 87.85 93.1997 73.51 106.97C70.51 109.85 67.78 113.25 66.4 117.23C65.25 120.54 65.6 123.56 67.09 126.68C69.83 132.4 74.38 136.81 79.95 139.78C85.52 142.75 92.18 144.29 98.6 144.84C105.54 145.43 112.55 145.06 119.41 143.89C125.72 142.81 132.01 141.16 137.9 138.62C142.19 136.78 146.76 134.44 149.8 130.78C150.35 130.12 150.78 129.4 151.15 128.62C151.71 127.45 149.19 127.44 148.68 127.5C147.43 127.66 145.95 128.2 145.37 129.4L145.34 129.41Z" fill="#E0A619"/>
<path d="M148.23 120.62C142.09 133.63 81.56 147.7 69.08 115.45C65.82 107.03 77.63 93.7098 91.89 89.7298C120.62 81.6998 157.84 100.25 148.23 120.62Z" fill="#FBF5EB"/>
<path d="M145.34 121.01C145.18 121.34 145.5 120.73 145.38 120.94C145.33 121.02 145.3 121.1 145.25 121.18C145.17 121.31 145.09 121.44 145.01 121.56C144.79 121.89 144.54 122.21 144.28 122.51C144.17 122.64 144.05 122.76 143.94 122.89C143.64 123.22 144.22 122.62 144 122.83C143.92 122.91 143.84 122.99 143.76 123.07C143.45 123.36 143.14 123.64 142.81 123.91C142.46 124.2 142.09 124.47 141.73 124.74C141.16 125.17 142.08 124.53 141.47 124.92C141.24 125.07 141.01 125.22 140.77 125.37C139.84 125.96 138.87 126.49 137.9 126.99C137.76 127.06 137.62 127.13 137.48 127.2C137.54 127.17 138.07 126.92 137.62 127.13C137.35 127.25 137.09 127.38 136.82 127.5C136.24 127.77 135.66 128.02 135.07 128.27C133.86 128.78 132.62 129.23 131.38 129.67C131.2 129.73 130.69 129.9 131.4 129.67C131.26 129.72 131.12 129.76 130.98 129.81C130.66 129.91 130.34 130.02 130.01 130.12C129.31 130.34 128.62 130.54 127.92 130.74C126.47 131.15 125.01 131.51 123.54 131.84C123.22 131.91 122.91 131.97 122.59 132.04C121.81 132.21 123.02 131.96 122.53 132.05C122.33 132.09 122.13 132.13 121.93 132.17C121.2 132.31 120.47 132.44 119.74 132.56C118.17 132.82 116.59 133.03 115.01 133.2C114.25 133.28 113.49 133.35 112.73 133.41C112.55 133.42 111.65 133.49 112.19 133.45C111.72 133.48 111.26 133.51 110.79 133.53C109.22 133.6 107.65 133.63 106.08 133.6C102.85 133.55 100.43 133.35 97.21 132.81C94.22 132.31 91.6 131.65 88.84 130.6C83.52 128.58 78.73 125.37 75.31 120.76C73.67 118.55 71.98 115.77 71.55 113.01C71.05 109.82 72.53 106.55 74.26 103.96C78.94 96.9698 86.67 92.2698 94.65 90.4698C102.63 88.6698 111.26 89.1298 119.29 91.0598C126.65 92.8298 134.06 95.9998 139.75 101.09C144.16 105.02 147.71 110.59 146.71 116.73C146.47 118.22 145.99 119.64 145.36 121.01C144.82 122.19 147.3 122.19 147.83 122.13C149.06 121.97 150.59 121.44 151.14 120.23C158.13 105.12 140.72 93.7598 128.61 89.6998C110.55 83.6498 87.85 84.7998 73.51 98.5698C70.51 101.45 67.78 104.85 66.4 108.83C65.25 112.14 65.6 115.16 67.09 118.28C69.83 124 74.38 128.41 79.95 131.38C85.52 134.35 92.18 135.89 98.6 136.44C105.54 137.03 112.55 136.66 119.41 135.49C125.72 134.41 132.01 132.76 137.9 130.22C142.19 128.38 146.76 126.04 149.8 122.38C150.35 121.72 150.78 121 151.15 120.22C151.71 119.05 149.19 119.04 148.68 119.1C147.43 119.26 145.95 119.8 145.37 121L145.34 121.01Z" fill="#E0A619"/>
<path d="M148.23 108.56C142.09 121.57 81.56 135.64 69.08 103.39C65.82 94.9702 77.63 81.6502 91.89 77.6702C120.62 69.6402 157.84 88.1902 148.23 108.56Z" fill="#FBF5EB"/>
<path d="M145.34 108.96C145.18 109.29 145.5 108.68 145.38 108.89C145.33 108.97 145.3 109.05 145.25 109.13C145.17 109.26 145.09 109.39 145.01 109.51C144.79 109.84 144.54 110.16 144.28 110.46C144.17 110.59 144.05 110.71 143.94 110.84C143.64 111.17 144.22 110.57 144 110.78C143.92 110.86 143.84 110.94 143.76 111.02C143.45 111.31 143.14 111.59 142.81 111.86C142.46 112.15 142.09 112.42 141.73 112.69C141.16 113.12 142.08 112.48 141.47 112.87C141.24 113.02 141.01 113.17 140.77 113.32C139.84 113.91 138.87 114.44 137.9 114.94C137.76 115.01 137.62 115.08 137.48 115.15C137.54 115.12 138.07 114.87 137.62 115.08C137.35 115.2 137.09 115.33 136.82 115.45C136.24 115.72 135.66 115.97 135.07 116.22C133.86 116.73 132.62 117.18 131.38 117.62C131.2 117.68 130.69 117.85 131.4 117.62C131.26 117.67 131.12 117.71 130.98 117.76C130.66 117.86 130.34 117.97 130.01 118.07C129.31 118.29 128.62 118.49 127.92 118.69C126.47 119.1 125.01 119.46 123.54 119.79C123.22 119.86 122.91 119.92 122.59 119.99C121.81 120.16 123.02 119.91 122.53 120C122.33 120.04 122.13 120.08 121.93 120.12C121.2 120.26 120.47 120.39 119.74 120.51C118.17 120.77 116.59 120.98 115.01 121.15C114.25 121.23 113.49 121.3 112.73 121.36C112.55 121.37 111.65 121.44 112.19 121.4C111.72 121.43 111.26 121.46 110.79 121.48C109.22 121.55 107.65 121.58 106.08 121.55C102.85 121.5 100.43 121.3 97.21 120.76C94.22 120.26 91.6 119.6 88.84 118.55C83.52 116.53 78.73 113.32 75.31 108.71C73.67 106.5 71.98 103.72 71.55 100.96C71.05 97.77 72.53 94.5 74.26 91.91C78.94 84.92 86.67 80.22 94.65 78.42C102.63 76.62 111.26 77.08 119.29 79.01C126.65 80.78 134.06 83.95 139.75 89.04C144.16 92.97 147.71 98.54 146.71 104.68C146.47 106.17 145.99 107.59 145.36 108.96C144.82 110.14 147.3 110.14 147.83 110.08C149.06 109.92 150.59 109.39 151.14 108.18C158.13 93.07 140.72 81.71 128.61 77.65C110.55 71.6 87.85 72.75 73.51 86.52C70.51 89.4 67.78 92.8 66.4 96.78C65.25 100.09 65.6 103.11 67.09 106.23C69.83 111.95 74.38 116.36 79.95 119.33C85.52 122.3 92.18 123.84 98.6 124.39C105.54 124.98 112.55 124.61 119.41 123.44C125.72 122.36 132.01 120.71 137.9 118.17C142.19 116.33 146.76 113.99 149.8 110.33C150.35 109.67 150.78 108.95 151.15 108.17C151.71 107 149.19 106.99 148.68 107.05C147.43 107.21 145.95 107.75 145.37 108.95L145.34 108.96Z" fill="#E0A619"/>
<path d="M148.23 100.17C142.09 113.18 81.56 127.25 69.08 95.0001C65.82 86.5801 77.63 73.2601 91.89 69.2801C120.62 61.2501 157.84 79.8001 148.23 100.17Z" fill="#FBF5EB"/>
<path d="M145.34 100.56C145.18 100.89 145.5 100.28 145.38 100.49C145.33 100.57 145.3 100.65 145.25 100.73C145.17 100.86 145.09 100.99 145.01 101.11C144.79 101.44 144.54 101.76 144.28 102.06C144.17 102.19 144.05 102.31 143.94 102.44C143.64 102.77 144.22 102.17 144 102.38C143.92 102.46 143.84 102.54 143.76 102.62C143.45 102.91 143.14 103.19 142.81 103.46C142.46 103.75 142.09 104.02 141.73 104.29C141.16 104.72 142.08 104.08 141.47 104.47C141.24 104.62 141.01 104.77 140.77 104.92C139.84 105.51 138.87 106.04 137.9 106.54C137.76 106.61 137.62 106.68 137.48 106.75C137.54 106.72 138.07 106.47 137.62 106.68C137.35 106.8 137.09 106.93 136.82 107.05C136.24 107.32 135.66 107.57 135.07 107.82C133.86 108.33 132.62 108.78 131.38 109.22C131.2 109.28 130.69 109.45 131.4 109.22C131.26 109.27 131.12 109.31 130.98 109.36C130.66 109.46 130.34 109.57 130.01 109.67C129.31 109.89 128.62 110.09 127.92 110.29C126.47 110.7 125.01 111.06 123.54 111.39C123.22 111.46 122.91 111.52 122.59 111.59C121.81 111.76 123.02 111.51 122.53 111.6C122.33 111.64 122.13 111.68 121.93 111.72C121.2 111.86 120.47 111.99 119.74 112.11C118.17 112.37 116.59 112.58 115.01 112.75C114.25 112.83 113.49 112.9 112.73 112.96C112.55 112.97 111.65 113.04 112.19 113C111.72 113.03 111.26 113.06 110.79 113.08C109.22 113.15 107.65 113.18 106.08 113.15C102.85 113.1 100.43 112.9 97.21 112.36C94.22 111.86 91.6 111.2 88.84 110.15C83.52 108.13 78.73 104.92 75.31 100.31C73.67 98.1001 71.98 95.3201 71.55 92.5601C71.05 89.3701 72.53 86.1001 74.26 83.5101C78.94 76.5201 86.67 71.8201 94.65 70.0201C102.63 68.2201 111.26 68.6801 119.29 70.6101C126.65 72.3801 134.06 75.5501 139.75 80.6401C144.16 84.5701 147.71 90.1401 146.71 96.2801C146.47 97.7701 145.99 99.1901 145.36 100.56C144.82 101.74 147.3 101.74 147.83 101.68C149.06 101.52 150.59 100.99 151.14 99.7801C158.13 84.6701 140.72 73.3101 128.61 69.2501C110.55 63.2001 87.85 64.3501 73.51 78.1201C70.51 81.0001 67.78 84.4001 66.4 88.3801C65.25 91.6901 65.6 94.7101 67.09 97.8301C69.83 103.55 74.38 107.96 79.95 110.93C85.52 113.9 92.18 115.44 98.6 115.99C105.54 116.58 112.55 116.21 119.41 115.04C125.72 113.96 132.01 112.31 137.9 109.77C142.19 107.93 146.76 105.59 149.8 101.93C150.35 101.27 150.78 100.55 151.15 99.7701C151.71 98.6001 149.19 98.5901 148.68 98.6501C147.43 98.8101 145.95 99.3501 145.37 100.55L145.34 100.56Z" fill="#E0A619"/>
<path d="M157.63 89.09C151.49 102.1 90.96 116.17 78.48 83.92C75.22 75.5 87.03 62.18 101.29 58.2C130.02 50.17 167.24 68.72 157.63 89.09Z" fill="#FBF5EB"/>
<path d="M154.74 89.48C154.58 89.81 154.9 89.2 154.78 89.41C154.73 89.49 154.7 89.57 154.65 89.65C154.57 89.78 154.49 89.91 154.41 90.03C154.19 90.36 153.94 90.68 153.68 90.98C153.57 91.11 153.45 91.23 153.34 91.36C153.04 91.69 153.62 91.09 153.4 91.3C153.32 91.38 153.24 91.46 153.16 91.54C152.85 91.83 152.54 92.11 152.21 92.38C151.86 92.67 151.49 92.94 151.13 93.21C150.56 93.64 151.48 93 150.87 93.39C150.64 93.54 150.41 93.69 150.17 93.84C149.24 94.43 148.27 94.96 147.3 95.46C147.16 95.53 147.02 95.6 146.88 95.67C146.94 95.64 147.47 95.39 147.02 95.6C146.75 95.72 146.49 95.85 146.22 95.97C145.64 96.24 145.06 96.49 144.47 96.74C143.26 97.25 142.02 97.7 140.78 98.14C140.6 98.2 140.09 98.37 140.8 98.14C140.66 98.19 140.52 98.23 140.38 98.28C140.06 98.38 139.74 98.49 139.41 98.59C138.71 98.81 138.02 99.01 137.32 99.21C135.87 99.62 134.41 99.98 132.94 100.31C132.62 100.38 132.31 100.44 131.99 100.51C131.21 100.68 132.42 100.43 131.93 100.52C131.73 100.56 131.53 100.6 131.33 100.64C130.6 100.78 129.87 100.91 129.14 101.03C127.57 101.29 125.99 101.5 124.41 101.67C123.65 101.75 122.89 101.82 122.13 101.88C121.95 101.89 121.05 101.96 121.59 101.92C121.12 101.95 120.66 101.98 120.19 102C118.62 102.07 117.05 102.1 115.48 102.07C112.25 102.02 109.83 101.82 106.61 101.28C103.62 100.78 101 100.12 98.24 99.07C92.92 97.05 88.13 93.84 84.71 89.23C83.07 87.02 81.38 84.24 80.95 81.48C80.45 78.29 81.93 75.02 83.66 72.43C88.34 65.44 96.07 60.74 104.05 58.94C112.03 57.14 120.66 57.6 128.69 59.53C136.05 61.3 143.46 64.47 149.15 69.56C153.56 73.49 157.11 79.06 156.11 85.2C155.87 86.69 155.39 88.11 154.76 89.48C154.22 90.66 156.7 90.66 157.23 90.6C158.46 90.44 159.99 89.91 160.54 88.7C167.53 73.59 150.12 62.23 138.01 58.17C119.95 52.12 97.25 53.27 82.91 67.04C79.91 69.92 77.18 73.32 75.8 77.3C74.65 80.61 75 83.63 76.49 86.75C79.23 92.47 83.78 96.88 89.35 99.85C94.92 102.82 101.58 104.36 108 104.91C114.94 105.5 121.95 105.13 128.81 103.96C135.12 102.88 141.41 101.23 147.3 98.69C151.59 96.85 156.16 94.51 159.2 90.85C159.75 90.19 160.18 89.47 160.55 88.69C161.11 87.52 158.59 87.51 158.08 87.57C156.83 87.73 155.35 88.27 154.77 89.47L154.74 89.48Z" fill="#E0A619"/>
<path d="M157.63 80.6901C151.49 93.7001 90.96 107.77 78.48 75.5201C75.22 67.1001 87.03 53.7801 101.29 49.8001C130.02 41.7701 167.24 60.3201 157.63 80.6901Z" fill="#FBF5EB"/>
<path d="M154.74 81.0801C154.58 81.4101 154.9 80.8001 154.78 81.0101C154.73 81.0901 154.7 81.1701 154.65 81.2501C154.57 81.3801 154.49 81.5101 154.41 81.6301C154.19 81.9601 153.94 82.2801 153.68 82.5801C153.57 82.7101 153.45 82.8301 153.34 82.9601C153.04 83.2901 153.62 82.6901 153.4 82.9001C153.32 82.9801 153.24 83.0601 153.16 83.1401C152.85 83.4301 152.54 83.7101 152.21 83.9801C151.86 84.2701 151.49 84.5401 151.13 84.8101C150.56 85.2401 151.48 84.6001 150.87 84.9901C150.64 85.1401 150.41 85.2901 150.17 85.4401C149.24 86.0301 148.27 86.5601 147.3 87.0601C147.16 87.1301 147.02 87.2001 146.88 87.2701C146.94 87.2401 147.47 86.9901 147.02 87.2001C146.75 87.3201 146.49 87.4501 146.22 87.5701C145.64 87.8401 145.06 88.0901 144.47 88.3401C143.26 88.8501 142.02 89.3001 140.78 89.7401C140.6 89.8001 140.09 89.9701 140.8 89.7401C140.66 89.7901 140.52 89.8301 140.38 89.8801C140.06 89.9801 139.74 90.0901 139.41 90.1901C138.71 90.4101 138.02 90.6101 137.32 90.8101C135.87 91.2201 134.41 91.5801 132.94 91.9101C132.62 91.9801 132.31 92.0401 131.99 92.1101C131.21 92.2801 132.42 92.0301 131.93 92.1201C131.73 92.1601 131.53 92.2001 131.33 92.2401C130.6 92.3801 129.87 92.5101 129.14 92.6301C127.57 92.8901 125.99 93.1001 124.41 93.2701C123.65 93.3501 122.89 93.4201 122.13 93.4801C121.95 93.4901 121.05 93.5601 121.59 93.5201C121.12 93.5501 120.66 93.5801 120.19 93.6001C118.62 93.6701 117.05 93.7001 115.48 93.6701C112.25 93.6201 109.83 93.4201 106.61 92.8801C103.62 92.3801 101 91.7201 98.24 90.6701C92.92 88.6501 88.13 85.4401 84.71 80.8301C83.07 78.6201 81.38 75.8401 80.95 73.0801C80.45 69.8901 81.93 66.6201 83.66 64.0301C88.34 57.0401 96.07 52.3401 104.05 50.5401C112.03 48.7401 120.66 49.2001 128.69 51.1301C136.05 52.9001 143.46 56.0701 149.15 61.1601C153.56 65.0901 157.11 70.6601 156.11 76.8001C155.87 78.2901 155.39 79.7101 154.76 81.0801C154.22 82.2601 156.7 82.2601 157.23 82.2001C158.46 82.0401 159.99 81.5101 160.54 80.3001C167.53 65.1901 150.12 53.8301 138.01 49.7701C119.95 43.7201 97.25 44.8701 82.91 58.6401C79.91 61.5201 77.18 64.9201 75.8 68.9001C74.65 72.2101 75 75.2301 76.49 78.3501C79.23 84.0701 83.78 88.4801 89.35 91.4501C94.92 94.4201 101.58 95.9601 108 96.5101C114.94 97.1001 121.95 96.7301 128.81 95.5601C135.12 94.4801 141.41 92.8301 147.3 90.2901C151.59 88.4501 156.16 86.1101 159.2 82.4501C159.75 81.7901 160.18 81.0701 160.55 80.2901C161.11 79.1201 158.59 79.1101 158.08 79.1701C156.83 79.3301 155.35 79.8701 154.77 81.0701L154.74 81.0801Z" fill="#E0A619"/>
<path d="M111.31 82.9501C113.44 84.4201 118.17 84.3201 120.72 84.0901C121.19 84.0501 123.49 83.8201 126.34 82.7901C130.06 81.4501 132.57 80.5501 133.72 78.1201C135.07 75.2601 134.23 70.9801 131.65 69.1001C128.74 66.9901 121.6 68.6701 121.6 68.6701C121.6 68.6701 122.47 63.8301 120.81 61.8001C118.94 59.5001 114.99 58.3001 111.94 59.2101C108.1 60.3601 107.09 64.4401 106.5 66.8101C105.25 71.8501 109.81 81.9101 111.31 82.9501Z" fill="#E0A619"/>
</svg>
